{
.appVersion = "3151";
.formatVersion = 3;
classes = (
{
automatic = 1;
code = "A AE B C D E Eth F G H I IJ J K L Lslash M N Eng O Oslash OE P Thorn Q R S Germandbls Schwa T U Uhorn V W X Y Z Aacute Abreve Abreveacute Abrevedotbelow Abrevegrave Abrevehookabove Abrevetilde Acircumflex Acircumflexacute Acircumflexdotbelow Acircumflexgrave Acircumflexhookabove Acircumflextilde Adblgrave Adieresis Adotbelow Agrave Ahookabove Ainvertedbreve Amacron Aogonek Aring Aringacute Atilde AEacute AEmacron Cacute Ccaron Ccedilla Ccircumflex Cdotaccent DZ DZcaron Dcaron Dcroat Dz Dzcaron Eacute Ebreve Ecaron Ecircumflex Ecircumflexacute Ecircumflexdotbelow Ecircumflexgrave Ecircumflexhookabove Ecircumflextilde Edblgrave Edieresis Edotaccent Edotbelow Egrave Ehookabove Einvertedbreve Emacron Eogonek Etilde Gbreve Gcaron Gcircumflex Gcommaaccent Gdotaccent Hbar Hcircumflex Iacute Ibreve Icircumflex Idblgrave Idieresis Idotaccent Idotbelow Igrave Ihookabove Iinvertedbreve Imacron Iogonek Itilde Jcircumflex Kcommaaccent LJ Lacute Lcaron Lcommaaccent Ldot Lj NJ Nacute Ncaron Ncommaaccent Ndotbelow Nhookleft Nj Ntilde Oacute Obreve Ocircumflex Ocircumflexacute Ocircumflexdotbelow Ocircumflexgrave Ocircumflexhookabove Ocircumflextilde Odblgrave Odieresis Odieresismacron Odotaccentmacron Odotbelow Ograve Ohookabove Ohorn Ohornacute Ohorndotbelow Ohorngrave Ohornhookabove Ohorntilde Ohungarumlaut Oinvertedbreve Omacron Oogonek Oslashacute Otilde Otildemacron Racute Rcaron Rcommaaccent Rdblgrave Rinvertedbreve Sacute Scaron Scedilla Scircumflex Scommaaccent Sdotbelow Tbar Tcaron Tcedilla Tcommaaccent Uacute Ubreve Ucaron Ucircumflex Udblgrave Udieresis Udotbelow Ugrave Uhookabove Uhornacute Uhorndotbelow Uhorngrave Uhornhookabove Uhorntilde Uhungarumlaut Uinvertedbreve Umacron Uogonek Uring Utilde Wacute Wcircumflex Wdieresis Wgrave Yacute Ycircumflex Ydieresis Ydotbelow Ygrave Yhookabove Ymacron Ytilde Zacute Zcaron Zdotaccent Delta Omega";
name = Uppercase;
}
);
customParameters = (
{

glyphs = (
{
color = 3;
glyphname = A;
kernLeft = A;
kernRight = A;
lastChange = "2023-02-14 14:17:59 +0000";
layers = (
{
anchors = (
{
name = bottom;
pos = (272,0);
},
{
name = ogonek;
pos = (522,3);
},
{
name = top;
pos = (262,750);
}
);
background = {
shapes = (
{
closed = 1;
nodes = (
(160,137,l),
(355,137,l),
(355,259,l),
(160,259,l)
);
},
{
closed = 1;
nodes = (
(385,-14,l),
(522,3,l),
(349,762,l),
(168,741,l),
(15,0,l),
(157,0,l),
(194,220,l),
(187,224,l),
(248,548,ls),
(253,572,o),
(256,595,o),
(260,617,c),
(264,595,o),
(268,572,o),
(273,549,cs),
(338,224,l),
(330,219,l)
);
}
);
};
layerId = "849A9C4C-BF7C-40C5-8614-1FD725A2A379";
shapes = (
{
closed = 1;
nodes = (
(157,0,l),
(180,137,l),
(349,137,l),
(385,-14,l),
(522,3,l),
(349,762,l),
(168,741,l),
(15,0,l)
);
},
{
closed = 1;
nodes = (
(260,612,l),
(331,259,l),
(194,259,l)
);
}
);
width = 537;
}
);
unicode = 65;
},
{
glyphname = Aringacute;
kernLeft = A;
kernRight = A;
lastChange = "2023-02-09 12:17:42 +0000";
layers = (
{
background = {
shapes = (
{
closed = 1;
nodes = (
(502,1112,l),
(399,1207,l),
(289,1008,l),
(321,981,l)
);
},
{
ref = A;
},
{
pos = (66,187);
ref = ring;
}
);
};
layerId = "849A9C4C-BF7C-40C5-8614-1FD725A2A379";
shapes = (
{
ref = A;
},
{
pos = (12,190);
ref = ringcomb;
},
{
alignment = -1;
pos = (112,365);
ref = acutecomb;
}
);
width = 537;
}
);
unicode = 506;
},
{
color = 3;
glyphname = AE;
kernLeft = AE;
kernRight = E;
lastChange = "2023-02-13 21:24:42 +0000";
layers = (
{
anchors = (
{
name = bottom;
pos = (341,0);
},
{
name = top;
pos = (431,750);
}
);
background = {
anchors = (
{
name = bottom;
pos = (341,0);
},
{
name = top;
pos = (431,750);
}
);
shapes = (
{
closed = 1;
nodes = (
(160,0,l),
(208,161,l),
(347,161,l),
(346,0,l),
(722,0,l),
(737,122,l),
(494,122,l),
(494,315,l),
(654,315,l),
(669,433,l),
(494,433,l),
(494,633,l),
(716,633,l),
(730,750,l),
(260,750,l),
(10,0,l)
);
},
{
closed = 1;
nodes = (
(347,630,l),
(346,277,l),
(241,277,l)
);
}
);
};
layerId = "849A9C4C-BF7C-40C5-8614-1FD725A2A379";
shapes = (
{
closed = 1;
nodes = (
(160,0,l),
(208,161,l),
(347,161,l),
(347,0,l),
(722,0,l),
(737,122,l),
(491,122,l),
(491,315,l),
(654,315,l),
(669,433,l),
(491,433,l),
(491,633,l),
(716,633,l),
(730,750,l),
(260,750,l),
(10,0,l)
);
},
{
closed = 1;
nodes = (
(347,620,l),
(347,277,l),
(241,277,l)
);
}
);
width = 762;
}
);
metricRight = E;
unicode = 198;
},
{
color = 3;
glyphname = B;
kernLeft = H;
kernRight = B;
lastChange = "2023-02-10 15:29:09 +0000";
layers = (
{
anchors = (
{
name = bottom;
pos = (271,0);
},
{
name = top;
pos = (271,750);
}
);
background = {
anchors = (
{
name = bottom;
pos = (271,0);
},
{
name = top;
pos = (271,750);
}
);
shapes = (
{
closed = 1;
nodes = (
(251,0,ls),
(422,0,o),
(515,72,o),
(515,213,cs),
(515,312,o),
(468,369,o),
(368,393,c),
(358,368,l),
(454,385,o),
(498,463,o),
(498,548,cs),
(498,678,o),
(426,750,o),
(249,750,cs),
(65,750,l),
(65,0,l)
);
},
{
closed = 1;
nodes = (
(204,322,l),
(251,322,ls),
(326,322,o),
(370,297,o),
(370,223,cs),
(370,145,o),
(326,116,o),
(251,116,cs),
(204,116,l)
);
},
{
closed = 1;
nodes = (
(204,634,l),
(249,634,ls),
(319,634,o),
(359,607,o),
(359,537,cs),
(359,472,o),
(315,435,o),
(260,435,cs),
(204,435,l)
);
}
);
};
layerId = "849A9C4C-BF7C-40C5-8614-1FD725A2A379";
shapes = (
{
closed = 1;
nodes = (
(251,0,ls),
(422,0,o),
(515,72,o),
(515,213,cs),
(515,312,o),
(468,369,o),
(368,393,c),
(358,368,l),
(454,385,o),
(498,463,o),
(498,548,cs),
(498,678,o),
(426,750,o),
(249,750,cs),
(60,750,l),
(60,0,l)
);
},
{
closed = 1;
nodes = (
(204,322,l),
(251,322,ls),
(326,322,o),
(370,297,o),
(370,223,cs),
(370,145,o),
(326,116,o),
(251,116,cs),
(204,116,l)
);
},
{
closed = 1;
nodes = (
(204,634,l),
(249,634,ls),
(319,634,o),
(359,607,o),
(359,537,cs),
(359,472,o),
(315,435,o),
(260,435,cs),
(204,435,l)
);
}
);
width = 547;
}
);
metricLeft = H;
unicode = 66;
},
{
color = 3;
glyphname = C;
kernLeft = O;
kernRight = C;
lastChange = "2023-02-13 21:13:10 +0000";
layers = (
{
anchors = (
{
name = bottom;
pos = (285,0);
},
{
name = top;
pos = (272,750);
}
);
background = {
anchors = (
{
name = bottom;
pos = (285,0);
},
{
name = top;
pos = (272,752);
}
);
shapes = (
{
closed = 1;
nodes = (
(434,-15,o),
(499,109,o),
(508,240,c),
(371,255,l),
(366,187,o),
(348,108,o),
(286,108,cs),
(214,108,o),
(190,203,o),
(190,375,cs),
(190,543,o),
(216,642,o),
(287,642,cs),
(347,642,o),
(365,549,o),
(369,481,c),
(508,510,l),
(501,646,o),
(429,765,o),
(288,765,cs),
(115,765,o),
(35,628,o),
(35,375,cs),
(35,144,o),
(113,-15,o),
(286,-15,cs)
);
}
);
};
layerId = "849A9C4C-BF7C-40C5-8614-1FD725A2A379";
shapes = (
{
closed = 1;
nodes = (
(434,-15,o),
(499,109,o),
(508,240,c),
(371,255,l),
(366,187,o),
(348,108,o),
(286,108,cs),
(214,108,o),
(190,203,o),
(190,375,cs),
(190,543,o),
(216,642,o),
(287,642,cs),
(347,642,o),
(365,549,o),
(369,481,c),
(508,510,l),
(501,646,o),
(429,765,o),
(288,765,cs),
(115,765,o),
(35,628,o),
(35,375,cs),
(35,144,o),
(113,-15,o),
(286,-15,cs)
);
}
);
width = 528;
}
);
metricLeft = O;
unicode = 67;
},
{
color = 3;
glyphname = D;
kernLeft = H;
kernRight = O;
lastChange = "2023-02-13 13:55:51 +0000";
layers = (
{
anchors = (
{
name = bottom;
pos = (269,0);
},
{
name = center;
pos = (269,375);
},
{
name = top;
pos = (226,750);
}
);
background = {
anchors = (
{
name = bottom;
pos = (269,0);
},
{
name = center;
pos = (269,375);
},
{
name = top;
pos = (226,750);
}
);
shapes = (
{
closed = 1;
nodes = (
(221,0,ls),
(423,0,o),
(522,182,o),
(522,375,cs),
(522,627,o),
(417,750,o),
(221,750,cs),
(62,750,l),
(62,0,l)
);
},
{
closed = 1;
nodes = (
(204,633,l),
(221,633,ls),
(321,633,o),
(367,546,o),
(367,375,cs),
(367,227,o),
(332,120,o),
(225,120,cs),
(204,120,l)
);
}
);
};
layerId = "849A9C4C-BF7C-40C5-8614-1FD725A2A379";
shapes = (
{
closed = 1;
nodes = (
(221,0,ls),
(423,0,o),
(522,182,o),
(522,375,cs),
(522,627,o),
(417,750,o),
(221,750,cs),
(60,750,l),
(60,0,l)
);
},
{
closed = 1;
nodes = (
(204,633,l),
(221,633,ls),
(321,633,o),
(367,546,o),
(367,375,cs),
(367,227,o),
(332,120,o),
(225,120,cs),
(204,120,l)
);
}
);
width = 557;
}
);
metricLeft = H;
metricRight = O;
unicode = 68;
},
{
color = 4;
glyphname = Eth;
kernLeft = H;
kernRight = O;
lastChange = "2023-02-13 10:37:55 +0000";
layers = (
{
background = {
shapes = (
{
closed = 1;
nodes = (
(298,340,l),
(298,430,l),
(15,430,l),
(15,340,l)
);
},
{
closed = 1;
nodes = (
(224,0,ls),
(426,0,o),
(524,182,o),
(524,376,cs),
(524,627,o),
(420,750,o),
(224,750,cs),
(64,750,l),
(64,0,l)
);
},
{
closed = 1;
nodes = (
(208,633,l),
(226,633,ls),
(324,633,o),
(370,546,o),
(370,376,cs),
(370,227,o),
(335,120,o),
(230,120,cs),
(208,120,l)
);
}
);
};
layerId = "849A9C4C-BF7C-40C5-8614-1FD725A2A379";
shapes = (
{
closed = 1;
nodes = (
(64,340,l),
(64,0,l),
(224,0,ls),
(426,0,o),
(524,182,o),
(524,376,cs),
(524,627,o),
(420,750,o),
(224,750,cs),
(64,750,l),
(64,430,l),
(15,430,l),
(15,340,l)
);
},
{
closed = 1;
nodes = (
(208,340,l),
(298,340,l),
(298,430,l),
(208,430,l),
(208,633,l),
(226,633,ls),
(324,633,o),
(370,546,o),
(370,376,cs),
(370,227,o),
(335,120,o),
(230,120,cs),
(208,120,l)
);
}
);
width = 559;
}
);
metricRight = D;
unicode = 208;
},
{
color = 3;
glyphname = E;
kernLeft = H;
kernRight = E;
lastChange = "2023-02-13 21:24:50 +0000";
layers = (
{
anchors = (
{
name = bottom;
pos = (255,0);
},
{
name = ogonek;
pos = (449,0);
},
{
name = top;
pos = (259,750);
}
);
background = {
anchors = (
{
name = bottom;
pos = (232,0);
},
{
name = ogonek;
pos = (449,0);
},
{
name = top;
pos = (232,750);
},
{
name = topleft;
pos = (0,750);
}
);
shapes = (
{
closed = 1;
nodes = (
(449,0,l),
(463,122,l),
(204,122,l),
(204,326,l),
(382,326,l),
(397,446,l),
(204,446,l),
(204,628,l),
(443,628,l),
(458,750,l),
(60,750,l),
(60,0,l)
);
}
);
};
layerId = "849A9C4C-BF7C-40C5-8614-1FD725A2A379";
shapes = (
{
closed = 1;
nodes = (
(449,0,l),
(463,122,l),
(204,122,l),
(204,326,l),
(382,326,l),
(397,446,l),
(204,446,l),
(204,628,l),
(443,628,l),
(458,750,l),
(60,750,l),
(60,0,l)
);
}
);
width = 488;
}
);
metricLeft = H;
unicode = 69;
},
{
color = 4;
glyphname = Schwa;
kernLeft = O;
kernRight = O;
lastChange = "2023-02-10 10:52:59 +0000";
layers = (
{
background = {
shapes = (
{
closed = 1;
nodes = (
(1359,-16,o),
(1403,190,o),
(1403,383,cs),
(1403,628,o),
(1336,764,o),
(1167,764,cs),
(1043,764,o),
(970,688,o),
(947,553,c),
(1081,523,l),
(1089,590,o),
(1114,641,o),
(1167,641,cs),
(1250,641,o),
(1256,505,o),
(1256,403,c),
(944,403,l),
(942,382,o),
(941,360,o),
(941,338,cs),
(941,139,o),
(987,-16,o),
(1173,-16,cs)
);
},
{
closed = 1;
nodes = (
(1102,109,o),
(1087,183,o),
(1089,296,c),
(1254,296,l),
(1252,187,o),
(1232,109,o),
(1173,109,cs)
);
},
{
closed = 1;
nodes = (
(460,-14,o),
(531,138,o),
(531,375,cs),
(531,612,o),
(460,764,o),
(286,764,cs),
(113,764,o),
(41,612,o),
(41,375,cs),
(41,138,o),
(113,-14,o),
(286,-14,cs)
);
},
{
closed = 1;
nodes = (
(204,115,o),
(196,238,o),
(196,375,cs),
(196,512,o),
(204,635,o),
(286,635,cs),
(369,635,o),
(376,512,o),
(376,375,cs),
(376,238,o),
(369,115,o),
(286,115,cs)
);
}
);
};
layerId = "849A9C4C-BF7C-40C5-8614-1FD725A2A379";
shapes = (
{
closed = 1;
nodes = (
(484,-13,o),
(531,190,o),
(531,383,cs),
(531,628,o),
(460,764,o),
(281,764,cs),
(149,764,o),
(72,688,o),
(47,553,c),
(186,523,l),
(195,590,o),
(223,641,o),
(281,641,cs),
(373,641,o),
(380,505,o),
(380,403,c),
(44,403,l),
(42,382,o),
(41,360,o),
(41,338,cs),
(41,139,o),
(90,-13,o),
(287,-13,cs)
);
},
{
closed = 1;
nodes = (
(211,112,o),
(193,195,o),
(195,296,c),
(378,296,l),
(376,195,o),
(359,112,o),
(285,112,cs)
);
}
);
width = 566;
}
);
metricRight = O;
unicode = 399;
},
{
color = 3;
glyphname = F;
kernLeft = H;
kernRight = F;
lastChange = "2023-02-14 14:26:42 +0000";
layers = (
{
background = {
anchors = (
{
name = bottom;
pos = (220,0);
},
{
name = top;
pos = (220,750);
}
);
shapes = (
{
closed = 1;
nodes = (
(204,0,l),
(204,313,l),
(379,313,l),
(394,435,l),
(204,435,l),
(204,628,l),
(435,628,l),
(450,750,l),
(60,750,l),
(60,0,l)
);
}
);
};
layerId = "849A9C4C-BF7C-40C5-8614-1FD725A2A379";
shapes = (
{
closed = 1;
nodes = (
(204,0,l),
(204,313,l),
(379,313,l),
(394,435,l),
(204,435,l),
(204,628,l),
(435,628,l),
(450,750,l),
(60,750,l),
(60,0,l)
);
}
);
width = 460;
}
);
metricLeft = H;
unicode = 70;
},
{
color = 3;
glyphname = G;
kernLeft = O;
kernRight = G;
lastChange = "2023-02-13 10:38:01 +0000";
layers = (
{
anchors = (
{
name = bottom;
pos = (273,0);
},
{
name = top;
pos = (284,750);
}
);
background = {
anchors = (
{
name = bottom;
pos = (273,0);
},
{
name = top;
pos = (284,753);
}
);
shapes = (
{
closed = 1;
nodes = (
(341,-14,o),
(397,30,o),
(423,80,c),
(442,-17,l),
(510,-8,l),
(510,374,l),
(299,374,l),
(285,262,l),
(378,262,l),
(378,228,ls),
(378,178,o),
(355,107,o),
(288,107,cs),
(197,107,o),
(183,238,o),
(183,361,cs),
(183,509,o),
(200,641,o),
(285,641,cs),
(348,641,o),
(366,569,o),
(372,493,c),
(504,521,l),
(496,662,o),
(427,764,o),
(290,764,cs),
(109,764,o),
(35,609,o),
(35,363,cs),
(35,114,o),
(124,-14,o),
(268,-14,cs)
);
}
);
};
layerId = "849A9C4C-BF7C-40C5-8614-1FD725A2A379";
shapes = (
{
closed = 1;
nodes = (
(341,-14,o),
(397,30,o),
(423,80,c),
(442,-9,l),
(510,0,l),
(510,374,l),
(299,374,l),
(285,262,l),
(378,262,l),
(378,228,ls),
(378,178,o),
(355,107,o),
(288,107,cs),
(197,107,o),
(183,238,o),
(183,361,cs),
(183,509,o),
(200,641,o),
(285,641,cs),
(348,641,o),
(366,569,o),
(372,493,c),
(504,521,l),
(496,662,o),
(427,764,o),
(290,764,cs),
(109,764,o),
(35,609,o),
(35,363,cs),
(35,114,o),
(124,-14,o),
(268,-14,cs)
);
}
);
width = 550;
}
);
metricLeft = C;
unicode = 71;
},
{
color = 3;
glyphname = H;
kernLeft = H;
kernRight = H;
lastChange = "2023-02-10 10:52:13 +0000";
layers = (
{
anchors = (
{
name = bottom;
pos = (286,0);
},
{
name = center;
pos = (286,560);
},
{
name = top;
pos = (286,750);
}
);
background = {
anchors = (
{
name = bottom;
pos = (282,0);
},
{
name = center;
pos = (282,375);
},
{
name = top;
pos = (282,750);
},
{
name = topleft;
pos = (5,750);
}
);
shapes = (
{
closed = 1;
nodes = (
(207,0,l),
(207,304,l),
(365,304,l),
(365,0,l),
(512,0,l),
(512,750,l),
(365,750,l),
(365,426,l),
(207,426,l),
(207,750,l),
(60,750,l),
(60,0,l)
);
}
);
};
layerId = "849A9C4C-BF7C-40C5-8614-1FD725A2A379";
shapes = (
{
closed = 1;
nodes = (
(204,0,l),
(204,304,l),
(368,304,l),
(368,0,l),
(512,0,l),
(512,750,l),
(368,750,l),
(368,426,l),
(204,426,l),
(204,750,l),
(60,750,l),
(60,0,l)
);
}
);
width = 572;
}
);
unicode = 72;
},
{
glyphname = Hbar;
kernLeft = H;
kernRight = H;
lastChange = "2023-02-10 10:52:13 +0000";
layers = (
{
background = {
shapes = (
{
closed = 1;
nodes = (
(562,567,l),
(573,656,l),
(15,656,l),
(15,567,l)
);
},
{
pos = (2,0);
ref = H;
}
);
};
layerId = "849A9C4C-BF7C-40C5-8614-1FD725A2A379";
shapes = (
{
closed = 1;
nodes = (
(562,567,l),
(573,656,l),
(15,656,l),
(15,567,l)
);
},
{
pos = (2,0);
ref = H;
}
);
width = 598;
}
);
unicode = 294;
},
{
color = 3;
glyphname = I;
kernLeft = H;
kernRight = H;
lastChange = "2023-02-10 10:52:13 +0000";
layers = (
{
anchors = (
{
name = bottom;
pos = (134,0);
},
{
name = ogonek;
pos = (207,0);
},
{
name = top;
pos = (134,750);
}
);
background = {
anchors = (
{
name = bottom;
pos = (134,0);
},
{
name = ogonek;
pos = (282,5);
},
{
name = top;
pos = (134,750);
},
{
name = topleft;
pos = (0,750);
}
);
shapes = (
{
closed = 1;
nodes = (
(207,0,l),
(207,750,l),
(60,750,l),
(60,0,l)
);
}
);
};
layerId = "849A9C4C-BF7C-40C5-8614-1FD725A2A379";
shapes = (
{
closed = 1;
nodes = (
(207,0,l),
(207,750,l),
(60,750,l),
(60,0,l)
);
}
);
width = 267;
}
);
metricLeft = H;
metricRight = H;
unicode = 73;
},
{
color = 4;
glyphname = IJ;
kernLeft = H;
kernRight = H;
lastChange = "2023-02-10 10:52:13 +0000";
layers = (
{
anchors = (
{
name = top;
pos = (137,750);
},
{
name = top_ij;
pos = (420,750);
}
);
background = {
shapes = (
{
closed = 1;
nodes = (
(209,247,l),
(209,750,l),
(62,750,l),
(62,247,l)
);
},
{
closed = 1;
nodes = (
(412,-14,o),
(495,83,o),
(495,235,cs),
(495,750,l),
(348,750,l),
(348,262,ls),
(348,169,o),
(313,117,o),
(227,117,cs),
(171,117,o),
(119,130,o),
(76,150,c),
(49,23,l),
(108,-3,o),
(161,-14,o),
(242,-14,cs)
);
}
);
};
layerId = "849A9C4C-BF7C-40C5-8614-1FD725A2A379";
shapes = (
{
closed = 1;
nodes = (
(209,247,l),
(209,750,l),
(65,750,l),
(65,247,l)
);
},
{
closed = 1;
nodes = (
(412,-14,o),
(492,83,o),
(492,235,cs),
(492,750,l),
(348,750,l),
(348,252,ls),
(348,159,o),
(313,112,o),
(227,112,cs),
(181,112,o),
(129,130,o),
(86,160,c),
(39,35,l),
(108,-3,o),
(171,-14,o),
(242,-14,cs)
);
}
);
width = 547;
}
);
metricRight = U;
unicode = 306;
},
{
color = 3;
glyphname = J;
kernLeft = J;
kernRight = H;
lastChange = "2023-02-13 11:21:38 +0000";
layers = (
{
anchors = (
{
name = bottom;
pos = (177,0);
},
{
name = top;
pos = (208,750);
}
);
background = {
anchors = (
{
name = bottom;
pos = (177,0);
},
{
name = top;
pos = (208,750);
}
);
shapes = (
{
closed = 1;
nodes = (
(222,-14,o),
(277,60,o),
(277,176,cs),
(277,750,l),
(131,750,l),
(131,192,ls),
(131,140,o),
(122,110,o),
(74,110,cs),
(52,110,o),
(37,114,o),
(18,124,c),
(3,5,l),
(37,-10,o),
(65,-14,o),
(105,-14,cs)
);
}
);
};
layerId = "849A9C4C-BF7C-40C5-8614-1FD725A2A379";
shapes = (
{
closed = 1;
nodes = (
(222,-14,o),
(278,60,o),
(278,176,cs),
(278,750,l),
(131,750,l),
(131,192,ls),
(131,140,o),
(122,110,o),
(74,110,cs),
(52,110,o),
(37,114,o),
(18,124,c),
(3,5,l),
(37,-10,o),
(65,-14,o),
(105,-14,cs)
);
}
);
width = 333;
}
);
metricRight = U;
unicode = 74;
},
{
color = 4;
glyphname = K;
kernLeft = H;
kernRight = K;
lastChange = "2023-02-13 21:21:34 +0000";
layers = (
{
anchors = (
{
name = bottom;
pos = (281,0);
},
{
name = top;
pos = (271,750);
}
);
background = {
shapes = (
{
closed = 1;
nodes = (
(514,716,l),
(392,765,l),
(204,392,l),
(204,750,l),
(60,750,l),
(60,0,l),
(204,0,l),
(204,198,l),
(263,312,l),
(301,300,l)
);
},
{
closed = 1;
nodes = (
(392,-16,l),
(527,33,l),
(338,444,l),
(241,328,l)
);
}
);
};
layerId = "849A9C4C-BF7C-40C5-8614-1FD725A2A379";
shapes = (
{
closed = 1;
nodes = (
(204,0,l),
(204,198,l),
(255,296,l),
(392,-16,l),
(527,33,l),
(355,406,l),
(514,716,l),
(392,765,l),
(204,392,l),
(204,750,l),
(60,750,l),
(60,0,l)
);
}
);
width = 531;
}
);
metricLeft = H;
unicode = 75;
},
{
color = 3;
glyphname = L;
kernLeft = H;
kernRight = L;
lastChange = "2023-02-14 14:18:12 +0000";
layers = (
{
anchors = (
{
name = bottom;
pos = (265,0);
},
{
name = center;
pos = (356,417);
},
{
name = top;
pos = (134,750);
},
{
name = topright;
pos = (326,750);
}
);
background = {
anchors = (
{
name = bottom;
pos = (265,0);
},
{
name = center;
pos = (356,417);
},
{
name = top;
pos = (115,750);
},
{
name = topright;
pos = (280,521);
}
);
shapes = (
{
closed = 1;
nodes = (
(435,0,l),
(450,123,l),
(207,123,l),
(207,750,l),
(61,750,l),
(61,0,l)
);
}
);
};
layerId = "849A9C4C-BF7C-40C5-8614-1FD725A2A379";
shapes = (
{
closed = 1;
nodes = (
(435,0,l),
(450,125,l),
(207,125,l),
(207,750,l),
(60,750,l),
(60,0,l)
);
}
);
width = 460;
}
);
metricLeft = H;
unicode = 76;
},
{
color = 4;
glyphname = Lslash;
kernLeft = H;
kernRight = L;
lastChange = "2023-02-10 11:10:51 +0000";
layers = (
{
background = {
shapes = (
{
closed = 1;
nodes = (
(364,461,l),
(317,532,l),
(-19,306,l),
(28,235,l)
);
},
{
closed = 1;
nodes = (
(445,0,l),
(460,125,l),
(217,125,l),
(217,750,l),
(70,750,l),
(70,0,l)
);
}
);
};
layerId = "849A9C4C-BF7C-40C5-8614-1FD725A2A379";
shapes = (
{
closed = 1;
nodes = (
(70,263,l),
(70,0,l),
(445,0,l),
(460,125,l),
(217,125,l),
(217,362,l),
(364,461,l),
(317,532,l),
(217,465,l),
(217,750,l),
(70,750,l),
(70,366,l),
(-19,306,l),
(28,235,l)
);
}
);
width = 470;
}
);
metricRight = L;
unicode = 321;
},
{
color = 4;
glyphname = M;
kernLeft = H;
kernRight = H;
lastChange = "2023-02-10 10:52:13 +0000";
layers = (
{
anchors = (
{
name = bottom;
pos = (392,0);
},
{
name = top;
pos = (392,750);
}
);
background = {
anchors = (
{
name = bottom;
pos = (392,0);
},
{
name = top;
pos = (392,750);
}
);
shapes = (
{
closed = 1;
nodes = (
(702,0,l),
(702,750,l),
(512,750,l),
(388,243,l),
(254,762,l),
(60,739,l),
(60,0,l),
(187,1,l),
(187,516,l),
(186,565,l),
(332,-4,l),
(432,8,l),
(569,566,l),
(567,520,l),
(567,0,l)
);
}
);
};
guides = (
{
angle = 104.5306;
pos = (332,-8);
}
);
layerId = "849A9C4C-BF7C-40C5-8614-1FD725A2A379";
shapes = (
{
closed = 1;
nodes = (
(702,0,l),
(702,762,l),
(510,739,l),
(388,245,l),
(254,762,l),
(60,739,l),
(60,0,l),
(187,0,l),
(187,552,l),
(332,-8,l),
(432,6,l),
(567,566,l),
(567,0,l)
);
}
);
width = 762;
}
);
metricLeft = H;
metricRight = H;
unicode = 77;
},
{
color = 3;
glyphname = N;
kernLeft = H;
kernRight = H;
lastChange = "2023-02-10 10:52:13 +0000";
layers = (
{
anchors = (
{
name = bottom;
pos = (297,0);
},
{
name = top;
pos = (297,750);
}
);
background = {
anchors = (
{
name = bottom;
pos = (1093,0);
},
{
name = top;
pos = (1093,750);
}
);
shapes = (
{
closed = 1;
nodes = (
(1333,7,l),
(1333,752,l),
(1203,752,l),
(1203,326,l),
(1203,303,l),
(993,760,l),
(860,744,l),
(860,0,l),
(990,0,l),
(990,442,l),
(990,470,l),
(1210,-9,l)
);
},
{
closed = 1;
nodes = (
(702,0,l),
(702,762,l),
(510,739,l),
(388,245,l),
(254,762,l),
(60,739,l),
(60,0,l),
(187,0,l),
(187,552,l),
(332,-8,l),
(432,6,l),
(567,566,l),
(567,0,l)
);
}
);
};
layerId = "849A9C4C-BF7C-40C5-8614-1FD725A2A379";
shapes = (
{
closed = 1;
nodes = (
(533,5,l),
(533,750,l),
(403,750,l),
(403,301,l),
(193,755,l),
(60,739,l),
(60,0,l),
(190,0,l),
(190,465,l),
(407,-11,l)
);
}
);
width = 593;
}
);
metricLeft = H;
metricRight = H;
unicode = 78;
},
{
glyphname = Nhookleft;
kernLeft = H;
kernRight = H;
lastChange = "2023-02-10 11:11:21 +0000";
layers = (
{
background = {
shapes = (
{
closed = 1;
nodes = (
(533,5,l),
(533,750,l),
(403,750,l),
(403,301,l),
(193,755,l),
(60,739,l),
(60,0,l),
(190,0,l),
(190,465,l),
(407,-11,l)
);
}
);
};
layerId = "849A9C4C-BF7C-40C5-8614-1FD725A2A379";
shapes = (
{
closed = 1;
nodes = (
(403,301,l),
(193,755,l),
(60,739,l),
(60,33,ls),
(60,-25,o),
(49,-52,o),
(8,-52,cs),
(-6,-52,o),
(-16,-50,o),
(-27,-46,c),
(-40,-151,l),
(-12,-161,o),
(16,-166,o),
(49,-166,cs),
(144,-166,o),
(190,-87,o),
(190,13,c),
(190,465,l),
(407,-11,l),
(533,5,l),
(533,750,l),
(403,750,l)
);
}
);
width = 593;
}
);
metricRight = N;
metricWidth = N;
unicode = 413;
},
{
color = 4;
glyphname = Eng;
kernLeft = H;
kernRight = H;
lastChange = "2023-02-15 14:41:11 +0000";
layers = (
{
anchors = (
{
name = bottom;
pos = (294,0);
},
{
name = top;
pos = (294,750);
}
);
background = {
anchors = (
{
name = bottom;
pos = (1294,0);
},
{
name = top;
pos = (1294,750);
}
);
shapes = (
{
closed = 1;
nodes = (
(1406,326,l),
(1408,296,l),
(1197,758,l),
(1060,741,l),
(1060,0,l),
(1190,0,l),
(1190,442,l),
(1188,474,l),
(1406,20,l),
(1406,-28,o),
(1389,-52,o),
(1354,-52,cs),
(1340,-52,o),
(1330,-50,o),
(1319,-46,c),
(1306,-151,l),
(1334,-161,o),
(1362,-166,o),
(1400,-166,cs),
(1496,-166,o),
(1536,-90,o),
(1536,23,cs),
(1536,750,l),
(1406,750,l)
);
},
{
closed = 1;
nodes = (
(533,5,l),
(533,750,l),
(403,750,l),
(403,301,l),
(193,755,l),
(60,739,l),
(60,0,l),
(190,0,l),
(190,465,l),
(407,-11,l)
);
}
);
};
layerId = "849A9C4C-BF7C-40C5-8614-1FD725A2A379";
shapes = (
{
closed = 1;
nodes = (
(403,321,l),
(193,755,l),
(60,739,l),
(60,0,l),
(190,0,l),
(190,465,l),
(404,16,l),
(401,-30,o),
(389,-52,o),
(352,-52,cs),
(338,-52,o),
(328,-50,o),
(317,-46,c),
(294,-154,l),
(325,-164,o),
(353,-168,o),
(383,-168,cs),
(476,-168,o),
(534,-96,o),
(534,0,cs),
(534,750,l),
(403,750,l)
);
}
);
width = 594;
}
);
metricLeft = H;
metricRight = H;
unicode = 330;
},
{
color = 3;
glyphname = O;
kernLeft = O;
kernRight = O;
lastChange = "2023-02-13 14:09:31 +0000";
layers = (
{
anchors = (
{
name = bottom;
pos = (280,0);
},
{
name = center;
pos = (281,375);
},
{
name = ogonek;
pos = (363,0);
},
{
name = top;
pos = (280,750);
},
{
name = topright;
pos = (440,650);
}
);
background = {
anchors = (
{
name = bottom;
pos = (280,0);
},
{
name = center;
pos = (281,375);
},
{
name = ogonek;
pos = (451,5);
},
{
name = top;
pos = (280,752);
},
{
name = topleft;
pos = (16,750);
},
{
name = topright;
pos = (498,463);
}
);
shapes = (
{
closed = 1;
nodes = (
(454,-14,o),
(525,138,o),
(525,375,cs),
(525,612,o),
(454,764,o),
(280,764,cs),
(107,764,o),
(35,612,o),
(35,375,cs),
(35,138,o),
(107,-14,o),
(280,-14,cs)
);
},
{
closed = 1;
nodes = (
(198,115,o),
(190,238,o),
(190,375,cs),
(190,512,o),
(198,635,o),
(280,635,cs),
(363,635,o),
(370,512,o),
(370,375,cs),
(370,238,o),
(363,115,o),
(280,115,cs)
);
}
);
};
layerId = "849A9C4C-BF7C-40C5-8614-1FD725A2A379";
shapes = (
{
closed = 1;
nodes = (
(454,-14,o),
(525,138,o),
(525,375,cs),
(525,612,o),
(454,764,o),
(280,764,cs),
(107,764,o),
(35,612,o),
(35,375,cs),
(35,138,o),
(107,-14,o),
(280,-14,cs)
);
},
{
closed = 1;
nodes = (
(198,115,o),
(190,238,o),
(190,375,cs),
(190,512,o),
(198,635,o),
(280,635,cs),
(363,635,o),
(370,512,o),
(370,375,cs),
(370,238,o),
(363,115,o),
(280,115,cs)
);
}
);
width = 560;
}
);
unicode = 79;
},
{
color = 3;
glyphname = Oslash;
kernLeft = O;
kernRight = O;
lastChange = "2023-02-10 10:52:59 +0000";
layers = (
{
anchors = (
{
name = center;
pos = (281,375);
},
{
name = top;
pos = (280,750);
},
{
name = topright;
pos = (498,463);
}
);
background = {
shapes = (
{
closed = 1;
nodes = (
(570,678,l),
(508,730,l),
(420,621,l),
(425,617,l),
(89,189,l),
(87,191,l),
(-10,69,l),
(53,17,l),
(149,139,l),
(143,144,l),
(479,570,l),
(482,568,l)
);
},
{
closed = 1;
nodes = (
(454,-14,o),
(525,138,o),
(525,375,cs),
(525,612,o),
(454,764,o),
(280,764,cs),
(107,764,o),
(35,612,o),
(35,375,cs),
(35,138,o),
(107,-14,o),
(280,-14,cs)
);
},
{
closed = 1;
nodes = (
(198,115,o),
(185,238,o),
(185,375,cs),
(185,512,o),
(198,635,o),
(280,635,cs),
(363,635,o),
(375,512,o),
(375,375,cs),
(375,238,o),
(363,115,o),
(280,115,cs)
);
}
);
};
layerId = "849A9C4C-BF7C-40C5-8614-1FD725A2A379";
shapes = (
{
closed = 1;
nodes = (
(454,-14,o),
(525,138,o),
(525,375,cs),
(525,457,o),
(516,529,o),
(498,588,c),
(570,678,l),
(508,730,l),
(460,671,l),
(421,731,o),
(362,764,o),
(280,764,cs),
(107,764,o),
(35,612,o),
(35,375,cs),
(35,292,o),
(44,220,o),
(63,160,c),
(-10,69,l),
(53,17,l),
(101,78,l),
(141,19,o),
(199,-14,o),
(280,-14,cs)
);
},
{
closed = 1;
nodes = (
(185,512,o),
(198,635,o),
(280,635,cs),
(327,635,o),
(351,596,o),
(363,538,c),
(186,313,l),
(185,333,o),
(185,354,o),
(185,375,cs)
);
},
{
closed = 1;
nodes = (
(374,437,l),
(375,417,o),
(375,396,o),
(375,375,cs),
(375,238,o),
(363,115,o),
(280,115,cs),
(234,115,o),
(210,154,o),
(197,213,c)
);
}
);
width = 560;
}
);
unicode = 216;
},
{
color = 3;
glyphname = OE;
kernLeft = O;
kernRight = E;
lastChange = "2023-02-13 21:33:01 +0000";
layers = (
{
anchors = (
{
name = bottom;
pos = (440,0);
},
{
name = top;
pos = (440,750);
}
);
background = {
shapes = (
{
closed = 1;
nodes = (
(368,0,l),
(744,0,l),
(758,122,l),
(515,122,l),
(515,315,l),
(675,315,l),
(690,433,l),
(515,433,l),
(515,628,l),
(736,628,l),
(752,750,l),
(368,750,l),
(296,750,ls),
(123,750,o),
(35,620,o),
(35,375,cs),
(35,146,o),
(127,0,o),
(300,0,cs)
);
},
{
closed = 1;
nodes = (
(221,120,o),
(189,220,o),
(189,375,cs),
(189,536,o),
(221,633,o),
(318,633,cs),
(368,633,l),
(368,120,l),
(318,120,ls)
);
}
);
};
layerId = "849A9C4C-BF7C-40C5-8614-1FD725A2A379";
shapes = (
{
closed = 1;
nodes = (
(741,0,l),
(755,122,l),
(512,122,l),
(512,315,l),
(672,315,l),
(687,433,l),
(512,433,l),
(512,628,l),
(733,628,l),
(749,750,l),
(296,750,ls),
(123,750,o),
(35,620,o),
(35,375,cs),
(35,146,o),
(127,0,o),
(300,0,cs)
);
},
{
closed = 1;
nodes = (
(221,120,o),
(189,220,o),
(189,375,cs),
(189,536,o),
(221,633,o),
(318,633,cs),
(368,633,l),
(368,120,l),
(318,120,ls)
);
}
);
width = 780;
}
);
metricLeft = O;
metricRight = E;
unicode = 338;
},
{
color = 3;
glyphname = P;
kernLeft = H;
kernRight = P;
lastChange = "2023-02-14 14:18:04 +0000";
layers = (
{
anchors = (
{
name = bottom;
pos = (257,0);
},
{
name = top;
pos = (257,750);
}
);
background = {
shapes = (
{
closed = 1;
nodes = (
(228,273,ls),
(394,273,o),
(498,347,o),
(498,512,cs),
(498,684,o),
(394,750,o),
(228,750,cs),
(60,750,l),
(60,0,l),
(204,0,l),
(204,631,l),
(239,631,ls),
(312,631,o),
(352,599,o),
(352,512,cs),
(352,428,o),
(312,391,o),
(239,391,cs),
(198,391,l),
(197,273,l)
);
}
);
};
layerId = "849A9C4C-BF7C-40C5-8614-1FD725A2A379";
shapes = (
{
closed = 1;
nodes = (
(204,0,l),
(204,273,l),
(228,273,ls),
(394,273,o),
(498,347,o),
(498,512,cs),
(498,684,o),
(394,750,o),
(228,750,cs),
(60,750,l),
(60,0,l)
);
},
{
closed = 1;
nodes = (
(204,631,l),
(239,631,ls),
(312,631,o),
(352,599,o),
(352,512,cs),
(352,428,o),
(312,391,o),
(239,391,cs),
(204,391,l)
);
}
);
width = 518;
}
);
metricLeft = H;
unicode = 80;
},
{
color = 4;
glyphname = Thorn;
kernLeft = H;
kernRight = Thorn;
lastChange = "2023-02-13 21:13:57 +0000";
layers = (
{
background = {
shapes = (
{
closed = 1;
nodes = (
(204,-122,l),
(204,151,l),
(228,151,ls),
(394,151,o),
(498,225,o),
(498,390,cs),
(498,562,o),
(394,628,o),
(228,628,cs),
(60,628,l),
(60,-122,l)
);
},
{
closed = 1;
nodes = (
(204,509,l),
(239,509,ls),
(312,509,o),
(352,477,o),
(352,390,cs),
(352,306,o),
(312,269,o),
(239,269,cs),
(204,269,l)
);
}
);
};
layerId = "849A9C4C-BF7C-40C5-8614-1FD725A2A379";
shapes = (
{
closed = 1;
nodes = (
(187,509,l),
(239,509,ls),
(312,509,o),
(352,477,o),
(352,390,cs),
(352,306,o),
(312,269,o),
(239,269,cs),
(187,269,l),
(187,151,l),
(228,151,ls),
(394,151,o),
(498,225,o),
(498,390,cs),
(498,562,o),
(394,628,o),
(228,628,cs),
(187,628,l)
);
},
{
closed = 1;
nodes = (
(204,752,l),
(60,752,l),
(60,-2,l),
(204,-2,l)
);
}
);
width = 518;
}
);
metricLeft = H;
metricRight = P;
unicode = 222;
},
{
color = 3;
glyphname = Q;
kernLeft = O;
kernRight = O;
lastChange = "2023-02-10 10:52:59 +0000";
layers = (
{
background = {
shapes = (
{
closed = 1;
nodes = (
(519,-68,l),
(446,-22,o),
(396,16,o),
(342,71,c),
(288,44,l),
(306,-51,o),
(373,-118,o),
(448,-153,c)
);
},
{
closed = 1;
nodes = (
(454,-14,o),
(525,138,o),
(525,375,cs),
(525,612,o),
(454,764,o),
(280,764,cs),
(107,764,o),
(35,612,o),
(35,375,cs),
(35,138,o),
(107,-14,o),
(280,-14,cs)
);
},
{
closed = 1;
nodes = (
(198,112,o),
(190,238,o),
(190,375,cs),
(190,512,o),
(198,635,o),
(280,635,cs),
(363,635,o),
(370,512,o),
(370,375,cs),
(370,238,o),
(363,112,o),
(280,112,cs)
);
}
);
};
layerId = "849A9C4C-BF7C-40C5-8614-1FD725A2A379";
shapes = (
{
closed = 1;
nodes = (
(519,-68,l),
(472,-38,o),
(434,-12,o),
(399,18,c),
(487,74,o),
(525,202,o),
(525,375,cs),
(525,612,o),
(454,764,o),
(280,764,cs),
(107,764,o),
(35,612,o),
(35,375,cs),
(35,138,o),
(107,-14,o),
(280,-14,cs),
(289,-14,o),
(297,-14,o),
(306,-13,c),
(335,-78,o),
(389,-125,o),
(448,-153,c)
);
},
{
closed = 1;
nodes = (
(190,512,o),
(198,635,o),
(280,635,cs),
(363,635,o),
(370,512,o),
(370,375,cs),
(370,238,o),
(363,112,o),
(280,112,cs),
(198,112,o),
(190,238,o),
(190,375,cs)
);
}
);
width = 560;
}
);
metricLeft = O;
metricWidth = O;
unicode = 81;
},
{
color = 4;
glyphname = R;
kernLeft = H;
kernRight = R;
lastChange = "2023-02-13 21:18:59 +0000";
layers = (
{
anchors = (
{
name = bottom;
pos = (273,0);
},
{
name = top;
pos = (273,750);
}
);
background = {
shapes = (
{
closed = 0;
nodes = (
(372,352,l),
(256,301,l)
);
}
);
};
layerId = "849A9C4C-BF7C-40C5-8614-1FD725A2A379";
shapes = (
{
closed = 1;
nodes = (
(204,0,l),
(204,278,l),
(267,278,l),
(401,-16,l),
(536,33,l),
(393,311,l),
(460,347,o),
(498,412,o),
(498,512,cs),
(498,684,o),
(394,750,o),
(228,750,cs),
(60,750,l),
(60,0,l)
);
},
{
closed = 1;
nodes = (
(204,631,l),
(239,631,ls),
(312,631,o),
(352,599,o),
(352,512,cs),
(352,428,o),
(312,391,o),
(239,391,cs),
(204,391,l)
);
}
);
width = 542;
}
);
metricLeft = H;
unicode = 82;
},
{
color = 4;
glyphname = S;
kernLeft = S;
kernRight = S;
lastChange = "2023-02-10 16:01:25 +0000";
layers = (
{
anchors = (
{
name = bottom;
pos = (262,0);
},
{
name = top;
pos = (263,750);
}
);
background = {
anchors = (
{
name = bottom;
pos = (262,-10);
},
{
name = top;
pos = (263,752);
}
);
shapes = (
{
closed = 1;
nodes = (
(395,-16,o),
(489,69,o),
(489,203,cs),
(489,295,o),
(441,360,o),
(357,410,cs),
(267,464,ls),
(222,491,o),
(189,516,o),
(189,568,cs),
(189,613,o),
(221,646,o),
(263,646,cs),
(324,646,o),
(351,601,o),
(354,520,c),
(482,548,l),
(476,699,o),
(396,764,o),
(263,764,cs),
(135,764,o),
(47,673,o),
(47,554,cs),
(47,456,o),
(94,391,o),
(172,345,cs),
(263,292,ls),
(307,266,o),
(344,242,o),
(344,187,cs),
(344,136,o),
(314,102,o),
(263,102,cs),
(196,102,o),
(169,153,o),
(165,226,c),
(36,212,l),
(41,55,o),
(131,-16,o),
(262,-16,cs)
);
}
);
};
layerId = "849A9C4C-BF7C-40C5-8614-1FD725A2A379";
shapes = (
{
closed = 1;
nodes = (
(395,-15,o),
(489,60,o),
(489,203,cs),
(489,295,o),
(441,360,o),
(357,410,cs),
(267,464,ls),
(222,491,o),
(191,516,o),
(191,565,cs),
(191,613,o),
(221,641,o),
(263,641,cs),
(324,641,o),
(351,601,o),
(353,520,c),
(482,548,l),
(476,699,o),
(396,764,o),
(263,764,cs),
(135,764,o),
(47,681,o),
(47,554,cs),
(47,456,o),
(94,391,o),
(172,345,cs),
(263,292,ls),
(307,266,o),
(342,242,o),
(342,187,cs),
(342,137,o),
(314,109,o),
(263,109,cs),
(196,109,o),
(169,154,o),
(167,226,c),
(36,212,l),
(41,56,o),
(131,-15,o),
(262,-15,cs)
);
}
);
width = 513;
}
);
unicode = 83;
},
{
color = 4;
glyphname = Germandbls;
kernLeft = H;
kernRight = GERM;
lastChange = "2023-02-13 10:38:27 +0000";
layers = (
{
background = {
shapes = (
{
closed = 1;
nodes = (
(552,750,l),
(337,750,ls),
(184,750,o),
(60,677,o),
(60,476,cs),
(60,0,l),
(204,0,l),
(204,461,ls),
(204,584,o),
(256,635,o),
(354,635,c),
(552,628,l)
);
},
{
closed = 1;
nodes = (
(552,695,l),
(382,695,o),
(293,623,o),
(293,515,cs),
(293,432,o),
(338,381,o),
(405,338,cs),
(487,286,ls),
(527,260,o),
(558,237,o),
(558,183,cs),
(558,134,o),
(530,106,o),
(479,106,cs),
(412,106,o),
(385,151,o),
(383,211,c),
(252,197,l),
(257,56,o),
(347,-15,o),
(478,-15,cs),
(611,-15,o),
(705,60,o),
(705,203,cs),
(705,295,o),
(662,351,o),
(586,401,cs),
(505,454,ls),
(465,480,o),
(437,505,o),
(437,543,cs),
(437,600,o),
(474,628,o),
(552,628,c)
);
}
);
};
layerId = "849A9C4C-BF7C-40C5-8614-1FD725A2A379";
shapes = (
{
closed = 1;
nodes = (
(552,750,l),
(337,750,ls),
(184,750,o),
(60,677,o),
(60,476,cs),
(60,0,l),
(204,0,l),
(204,461,ls),
(204,580,o),
(243,632,o),
(355,632,c),
(311,601,o),
(293,553,o),
(293,510,cs),
(293,432,o),
(341,381,o),
(408,338,cs),
(490,286,ls),
(530,260,o),
(558,237,o),
(558,183,cs),
(558,134,o),
(530,106,o),
(479,106,cs),
(412,106,o),
(385,151,o),
(383,211,c),
(252,197,l),
(257,65,o),
(345,-15,o),
(476,-15,cs),
(609,-15,o),
(702,60,o),
(702,203,cs),
(702,295,o),
(657,351,o),
(581,401,cs),
(500,454,ls),
(460,480,o),
(437,505,o),
(437,543,cs),
(437,600,o),
(474,628,o),
(562,628,c)
);
}
);
width = 726;
}
);
metricLeft = H;
metricRight = S;
unicode = 7838;
},
{
color = 3;
glyphname = T;
kernLeft = T;
kernRight = T;
lastChange = "2023-02-14 14:27:18 +0000";
layers = (
{
anchors = (
{
name = bottom;
pos = (234,0);
},
{
name = center;
pos = (234,375);
},
{
name = top;
pos = (234,750);
}
);
background = {
anchors = (
{
name = bottom;
pos = (231,0);
},
{
name = center;
pos = (231,375);
},
{
name = top;
pos = (231,750);
}
);
shapes = (
{
closed = 1;
nodes = (
(304,0,l),
(304,628,l),
(440,628,l),
(454,750,l),
(13,750,l),
(13,628,l),
(160,628,l),
(160,0,l)
);
}
);
};
layerId = "849A9C4C-BF7C-40C5-8614-1FD725A2A379";
shapes = (
{
closed = 1;
nodes = (
(307,0,l),
(307,628,l),
(443,628,l),
(457,750,l),
(13,750,l),
(13,628,l),
(160,628,l),
(160,0,l)
);
}
);
width = 467;
}
);
unicode = 84;
},
{
glyphname = Tbar;
kernLeft = T;
kernRight = T;
lastChange = "2023-02-10 11:33:33 +0000";
layers = (
{
background = {
shapes = (
{
closed = 1;
nodes = (
(366,277,l),
(377,371,l),
(95,371,l),
(95,277,l)
);
},
{
ref = T;
}
);
};
layerId = "849A9C4C-BF7C-40C5-8614-1FD725A2A379";
shapes = (
{
ref = T;
},
{
pos = (-16,82);
ref = strokeshortcomb;
}
);
width = 467;
}
);
metricLeft = T;
metricRight = T;
unicode = 358;
},
{
color = 3;
glyphname = U;
kernLeft = U;
kernRight = U;
lastChange = "2023-02-10 15:55:51 +0000";
layers = (
{
anchors = (
{
name = bottom;
pos = (286,0);
},
{
name = ogonek;
pos = (368,0);
},
{
name = top;
pos = (286,750);
},
{
name = topright;
pos = (507,650);
}
);
background = {
anchors = (
{
name = bottom;
pos = (279,0);
},
{
name = ogonek;
pos = (448,5);
},
{
name = top;
pos = (281,750);
},
{
name = topright;
pos = (505,480);
}
);
shapes = (
{
closed = 1;
nodes = (
(437,-14,o),
(507,97,o),
(507,243,cs),
(507,750,l),
(370,750,l),
(370,230,ls),
(370,157,o),
(342,109,o),
(286,109,cs),
(230,109,o),
(202,157,o),
(202,230,cs),
(202,750,l),
(55,750,l),
(55,243,ls),
(55,76,o),
(125,-14,o),
(284,-14,cs)
);
}
);
};
layerId = "849A9C4C-BF7C-40C5-8614-1FD725A2A379";
shapes = (
{
closed = 1;
nodes = (
(437,-14,o),
(507,97,o),
(507,243,cs),
(507,750,l),
(370,750,l),
(370,230,ls),
(370,157,o),
(346,109,o),
(286,109,cs),
(225,109,o),
(202,157,o),
(202,230,cs),
(202,750,l),
(55,750,l),
(55,243,ls),
(55,76,o),
(125,-14,o),
(284,-14,cs)
);
}
);
width = 562;
}
);
unicode = 85;
},
{
color = 3;
glyphname = V;
kernLeft = V;
kernRight = V;
lastChange = "2023-02-13 21:33:30 +0000";
layers = (
{
anchors = (
{
name = bottom;
pos = (255,0);
},
{
name = top;
pos = (256,750);
}
);
background = {
shapes = (
{
closed = 1;
nodes = (
(339,0,l),
(500,750,l),
(358,750,l),
(256,231,l),
(162,762,l),
(8,739,l),
(167,0,l)
);
}
);
};
layerId = "849A9C4C-BF7C-40C5-8614-1FD725A2A379";
shapes = (
{
closed = 1;
nodes = (
(342,0,l),
(503,750,l),
(365,750,l),
(256,191,l),
(152,762,l),
(8,742,l),
(167,0,l)
);
}
);
width = 511;
}
);
unicode = 86;
},
{
color = 4;
glyphname = W;
kernLeft = V;
kernRight = V;
lastChange = "2023-02-13 14:07:54 +0000";
layers = (
{
anchors = (
{
name = bottom;
pos = (381,0);
},
{
name = top;
pos = (389,750);
}
);
background = {
shapes = (
{
closed = 1;
nodes = (
(309,0,l),
(383,499,l),
(453,0,l),
(615,0,l),
(751,750,l),
(612,750,l),
(536,232,l),
(463,750,l),
(314,750,l),
(235,220,l),
(167,762,l),
(7,740,l),
(143,0,l)
);
}
);
};
layerId = "849A9C4C-BF7C-40C5-8614-1FD725A2A379";
shapes = (
{
closed = 1;
nodes = (
(309,0,l),
(383,519,l),
(453,0,l),
(615,0,l),
(749,750,l),
(622,750,l),
(536,212,l),
(455,750,l),
(322,750,l),
(235,200,l),
(157,762,l),
(13,742,l),
(143,0,l)
);
}
);
width = 762;
}
);
metricRight = "=|";
unicode = 87;
},
{
color = 3;
glyphname = X;
kernLeft = X;
kernRight = X;
lastChange = "2023-02-13 21:23:51 +0000";
layers = (
{
anchors = (
{
name = bottom;
pos = (260,0);
},
{
name = top;
pos = (260,750);
}
);
background = {
shapes = (
{
closed = 1;
nodes = (
(474,750,l),
(341,750,l),
(216,417,l),
(177,417,l),
(10,0,l),
(146,0,l),
(262,315,l),
(304,315,l)
);
},
{
closed = 1;
nodes = (
(164,762,l),
(19,725,l),
(175,327,l),
(204,327,l),
(336,-22,l),
(478,18,l),
(308,438,l),
(274,438,l)
);
}
);
};
layerId = "849A9C4C-BF7C-40C5-8614-1FD725A2A379";
shapes = (
{
closed = 1;
nodes = (
(146,0,l),
(236,243,l),
(336,-22,l),
(478,18,l),
(330,383,l),
(474,750,l),
(341,750,l),
(250,508,l),
(164,762,l),
(19,725,l),
(158,370,l),
(10,0,l)
);
}
);
width = 488;
}
);
unicode = 88;
},
{
color = 3;
glyphname = Y;
kernLeft = Y;
kernRight = Y;
lastChange = "2023-02-13 21:33:41 +0000";
layers = (
{
anchors = (
{
name = bottom;
pos = (242,0);
},
{
name = top;
pos = (242,750);
},
{
name = topleft;
pos = (3,750);
}
);
background = {
anchors = (
{
name = bottom;
pos = (244,0);
},
{
name = top;
pos = (244,750);
},
{
name = topleft;
pos = (3,750);
}
);
shapes = (
{
closed = 1;
nodes = (
(315,0,l),
(315,266,l),
(481,750,l),
(343,752,l),
(255,439,l),
(246,398,l),
(237,439,l),
(142,761,l),
(2,739,l),
(168,248,l),
(168,0,l)
);
}
);
};
layerId = "849A9C4C-BF7C-40C5-8614-1FD725A2A379";
shapes = (
{
closed = 1;
nodes = (
(315,0,l),
(315,266,l),
(481,750,l),
(343,750,l),
(246,410,l),
(142,761,l),
(2,739,l),
(168,248,l),
(168,0,l)
);
}
);
width = 483;
}
);
unicode = 89;
},
{
color = 3;
glyphname = Z;
kernLeft = Z;
kernRight = Z;
lastChange = "2023-02-13 21:24:01 +0000";
layers = (
{
anchors = (
{
name = bottom;
pos = (225,0);
},
{
name = top;
pos = (243,750);
}
);
background = {
anchors = (
{
name = bottom;
pos = (225,0);
},
{
name = top;
pos = (243,750);
}
);
shapes = (
{
closed = 1;
nodes = (
(430,0,l),
(445,122,l),
(181,122,l),
(442,651,l),
(430,750,l),
(35,750,l),
(34,632,l),
(281,632,l),
(20,103,l),
(32,0,l)
);
}
);
};
layerId = "849A9C4C-BF7C-40C5-8614-1FD725A2A379";
shapes = (
{
closed = 1;
nodes = (
(430,0,l),
(445,122,l),
(181,122,l),
(442,651,l),
(442,750,l),
(50,750,l),
(35,628,l),
(279,628,l),
(20,103,l),
(20,0,l)
);
}
);
width = 465;
}
);
unicode = 90;
},
{
color = 0;
export = 0;
glyphname = C.001;
lastChange = "2023-02-02 16:23:56 +0000";
layers = (
{
anchors = (
{
name = bottom;
pos = (269,0);
},
{
name = top;
pos = (261,750);
}
);
background = {
anchors = (
{
name = bottom;
pos = (269,0);
},
{
name = top;
pos = (261,750);
}
);
shapes = (
{
closed = 1;
nodes = (
(401,-14,o),
(465,70,o),
(497,182,c),
(375,208,l),
(361,159,o),
(340,111,o),
(282,111,cs),
(192,111,o),
(171,231,o),
(171,378,cs),
(171,507,o),
(192,639,o),
(283,639,cs),
(336,639,o),
(361,591,o),
(372,535,c),
(501,563,l),
(473,685,o),
(407,764,o),
(277,764,cs),
(101,764,o),
(20,585,o),
(20,379,cs),
(20,158,o),
(93,-14,o),
(277,-14,cs)
);
}
);
};
layerId = "849A9C4C-BF7C-40C5-8614-1FD725A2A379";
shapes = (
{
closed = 1;
nodes = (
(401,-14,o),
(465,70,o),
(497,182,c),
(375,208,l),
(361,159,o),
(340,111,o),
(282,111,cs),
(192,111,o),
(171,231,o),
(171,378,cs),
(171,507,o),
(192,639,o),
(283,639,cs),
(336,639,o),
(361,591,o),
(372,535,c),
(501,563,l),
(473,685,o),
(407,764,o),
(277,764,cs),
(101,764,o),
(20,585,o),
(20,379,cs),
(20,158,o),
(93,-14,o),
(277,-14,cs)
);
}
);
width = 522;
}
);
},
{
color = 0;
export = 0;
glyphname = H.001;
lastChange = "2023-02-02 16:23:56 +0000";
layers = (
{
anchors = (
{
name = bottom;
pos = (297,0);
},
{
name = center;
pos = (297,375);
},
{
name = top;
pos = (297,750);
},
{
name = topleft;
pos = (20,750);
}
);
background = {
anchors = (
{
name = bottom;
pos = (297,0);
},
{
name = center;
pos = (297,375);
},
{
name = top;
pos = (297,750);
},
{
name = topleft;
pos = (20,750);
}
);
shapes = (
{
closed = 1;
nodes = (
(216,0,l),
(217,309,l),
(377,309,l),
(377,0,l),
(524,0,l),
(523,342,o),
(522,609,o),
(524,756,c),
(475,750,o),
(425,746,o),
(377,744,c),
(377,429,l),
(217,429,l),
(217,756,l),
(170,750,o),
(121,746,o),
(70,744,c),
(70,496,o),
(69,248,o),
(69,0,c)
);
}
);
};
layerId = "849A9C4C-BF7C-40C5-8614-1FD725A2A379";
shapes = (
{
closed = 1;
nodes = (
(216,0,l),
(217,309,l),
(377,309,l),
(377,0,l),
(524,0,l),
(523,342,o),
(522,609,o),
(524,756,c),
(475,750,o),
(425,746,o),
(377,744,c),
(377,429,l),
(217,429,l),
(217,756,l),
(170,750,o),
(121,746,o),
(70,744,c),
(70,496,o),
(69,248,o),
(69,0,c)
);
}
);
width = 594;
}
);
},
{
color = 0;
export = 0;
glyphname = M.001;
lastChange = "2023-02-02 16:23:56 +0000";
layers = (
{
anchors = (
{
name = bottom;
pos = (397,0);
},
{
name = top;
pos = (397,750);
}
);
background = {
anchors = (
{
name = bottom;
pos = (397,0);
},
{
name = top;
pos = (397,750);
}
);
shapes = (
{
closed = 1;
nodes = (
(724,0,l),
(724,751,l),
(528,750,l),
(402,285,l),
(274,756,l),
(70,731,l),
(70,0,l),
(202,1,l),
(202,566,l),
(347,0,l),
(437,0,l),
(575,563,l),
(575,0,l)
);
}
);
};
layerId = "849A9C4C-BF7C-40C5-8614-1FD725A2A379";
shapes = (
{
closed = 1;
nodes = (
(724,0,l),
(724,751,l),
(528,750,l),
(402,285,l),
(274,756,l),
(70,731,l),
(70,0,l),
(202,1,l),
(202,566,l),
(347,0,l),
(437,0,l),
(575,563,l),
(575,0,l)
);
}
);
width = 794;
}
);
},
{
color = 0;
export = 0;
glyphname = M.002;
lastChange = "2023-02-02 16:23:56 +0000";
layers = (
{
anchors = (
{
name = bottom;
pos = (400,0);
},
{
name = top;
pos = (400,750);
}
);
background = {
anchors = (
{
name = bottom;
pos = (400,0);
},
{
name = top;
pos = (400,750);
}
);
shapes = (
{
closed = 1;
nodes = (
(724,0,l),
(724,750,l),
(519,750,l),
(406,304,l),
(267,759,l),
(70,735,l),
(70,0,l),
(190,1,l),
(190,507,l),
(182,554,l),
(343,-3,l),
(442,9,l),
(584,554,l),
(577,509,l),
(577,0,l)
);
}
);
};
layerId = "849A9C4C-BF7C-40C5-8614-1FD725A2A379";
shapes = (
{
closed = 1;
nodes = (
(724,0,l),
(724,750,l),
(519,750,l),
(406,304,l),
(267,759,l),
(70,735,l),
(70,0,l),
(190,1,l),
(190,507,l),
(182,554,l),
(343,-3,l),
(442,9,l),
(584,554,l),
(577,509,l),
(577,0,l)
);
}
);
width = 794;
}
);
},
{
color = 0;
export = 0;
glyphname = O.001;
lastChange = "2023-02-02 16:23:56 +0000";
layers = (
{
anchors = (
{
name = bottom;
pos = (305,0);
},
{
name = center;
pos = (305,375);
},
{
name = ogonek;
pos = (475,5);
},
{
name = top;
pos = (305,750);
},
{
name = topleft;
pos = (40,750);
},
{
name = topright;
pos = (522,463);
}
);
background = {
anchors = (
{
name = bottom;
pos = (305,0);
},
{
name = center;
pos = (305,375);
},
{
name = ogonek;
pos = (475,5);
},
{
name = top;
pos = (305,750);
},
{
name = topleft;
pos = (40,750);
},
{
name = topright;
pos = (522,463);
}
);
shapes = (
{
closed = 1;
nodes = (
(468,-14,o),
(559,138,o),
(559,375,cs),
(559,612,o),
(468,764,o),
(300,764,cs),
(133,764,o),
(42,612,o),
(42,375,cs),
(42,138,o),
(133,-14,o),
(300,-14,cs)
);
},
{
closed = 1;
nodes = (
(222,114,o),
(194,190,o),
(194,375,cs),
(194,559,o),
(222,636,o),
(300,636,cs),
(379,636,o),
(407,560,o),
(407,375,cs),
(407,190,o),
(379,114,o),
(300,114,cs)
);
}
);
};
layerId = "849A9C4C-BF7C-40C5-8614-1FD725A2A379";
shapes = (
{
closed = 1;
nodes = (
(468,-14,o),
(559,138,o),
(559,375,cs),
(559,612,o),
(468,764,o),
(300,764,cs),
(133,764,o),
(42,612,o),
(42,375,cs),
(42,138,o),
(133,-14,o),
(300,-14,cs)
);
},
{
closed = 1;
nodes = (
(222,114,o),
(194,190,o),
(194,375,cs),
(194,559,o),
(222,636,o),
(300,636,cs),
(379,636,o),
(407,560,o),
(407,375,cs),
(407,190,o),
(379,114,o),
(300,114,cs)
);
}
);
width = 599;
}
);
},
{
color = 0;
export = 0;
glyphname = Q.001;
lastChange = "2023-02-02 16:23:56 +0000";
layers = (
{
anchors = (
{
name = bottom;
pos = (275,0);
},
{
name = top;
pos = (275,750);
}
);
background = {
anchors = (
{
name = bottom;
pos = (275,0);
},
{
name = top;
pos = (275,750);
}
);
shapes = (
{
closed = 1;
nodes = (
(428,-97,l),
(381,-66,o),
(346,-20,o),
(345,52,c),
(246,31,l),
(246,-54,o),
(271,-127,o),
(338,-176,c)
);
},
{
ref = O;
}
);
};
layerId = "849A9C4C-BF7C-40C5-8614-1FD725A2A379";
shapes = (
{
closed = 1;
nodes = (
(428,-97,l),
(381,-66,o),
(346,-20,o),
(345,52,c),
(246,31,l),
(246,-54,o),
(271,-127,o),
(338,-176,c)
);
},
{
ref = O;
}
);
width = 549;
}
);
},
{
color = 0;
export = 0;
glyphname = B.ori;
lastChange = "2023-02-02 16:23:56 +0000";
layers = (
{
anchors = (
{
name = bottom;
pos = (276,0);
},
{
name = top;
pos = (276,750);
}
);
background = {
anchors = (
{
name = bottom;
pos = (276,0);
},
{
name = top;
pos = (276,750);
}
);
shapes = (
{
closed = 1;
nodes = (
(190,0,ls),
(348,0,o),
(521,35,o),
(521,210,cs),
(521,329,o),
(470,372,o),
(417,399,c),
(467,424,o),
(498,484,o),
(498,557,cs),
(498,664,o),
(431,750,o),
(238,750,cs),
(70,750,l),
(70,0,l)
);
},
{
closed = 1;
nodes = (
(217,338,l),
(249,338,ls),
(318,338,o),
(380,326,o),
(380,230,cs),
(380,186,o),
(351,117,o),
(244,117,cs),
(217,117,l)
);
},
{
closed = 1;
nodes = (
(212,633,l),
(241,633,ls),
(306,633,o),
(362,617,o),
(362,542,cs),
(362,457,o),
(315,445,o),
(247,445,cs),
(212,445,l)
);
}
);
};
layerId = "849A9C4C-BF7C-40C5-8614-1FD725A2A379";
shapes = (
{
closed = 1;
nodes = (
(190,0,ls),
(348,0,o),
(521,35,o),
(521,210,cs),
(521,329,o),
(470,372,o),
(417,399,c),
(467,424,o),
(498,484,o),
(498,557,cs),
(498,664,o),
(431,750,o),
(238,750,cs),
(70,750,l),
(70,0,l)
);
},
{
closed = 1;
nodes = (
(217,338,l),
(249,338,ls),
(318,338,o),
(380,326,o),
(380,230,cs),
(380,186,o),
(351,117,o),
(244,117,cs),
(217,117,l)
);
},
{
closed = 1;
nodes = (
(212,633,l),
(241,633,ls),
(306,633,o),
(362,617,o),
(362,542,cs),
(362,457,o),
(315,445,o),
(247,445,cs),
(212,445,l)
);
}
);
width = 551;
}
);
},
{
color = 0;
export = 0;
glyphname = C.ori;
lastChange = "2023-02-02 16:23:56 +0000";
layers = (
{
anchors = (
{
name = bottom;
pos = (269,0);
},
{
name = top;
pos = (261,750);
}
);
background = {
anchors = (
{
name = bottom;
pos = (269,0);
},
{
name = top;
pos = (261,750);
}
);
shapes = (
{
closed = 1;
nodes = (
(418,-14,o),
(487,116,o),
(487,255,c),
(362,267,l),
(357,202,o),
(344,104,o),
(283,104,cs),
(199,104,o),
(186,249,o),
(186,391,cs),
(186,501,o),
(199,646,o),
(269,646,cs),
(341,646,o),
(344,501,o),
(344,486,c),
(486,493,l),
(486,625,o),
(409,764,o),
(277,764,cs),
(102,764,o),
(40,559,o),
(40,391,cs),
(40,201,o),
(85,-14,o),
(274,-14,cs)
);
}
);
};
layerId = "849A9C4C-BF7C-40C5-8614-1FD725A2A379";
shapes = (
{
closed = 1;
nodes = (
(418,-14,o),
(487,116,o),
(487,255,c),
(362,267,l),
(357,202,o),
(344,104,o),
(283,104,cs),
(199,104,o),
(186,249,o),
(186,391,cs),
(186,501,o),
(199,646,o),
(269,646,cs),
(341,646,o),
(344,501,o),
(344,486,c),
(486,493,l),
(486,625,o),
(409,764,o),
(277,764,cs),
(102,764,o),
(40,559,o),
(40,391,cs),
(40,201,o),
(85,-14,o),
(274,-14,cs)
);
}
);
width = 522;
}
);
},
{
color = 0;
export = 0;
glyphname = E.ori;
lastChange = "2023-02-02 16:23:56 +0000";
layers = (
{
anchors = (
{
name = bottom;
pos = (242,0);
},
{
name = ogonek;
pos = (459,0);
},
{
name = top;
pos = (242,750);
},
{
name = topleft;
pos = (10,750);
}
);
background = {
anchors = (
{
name = bottom;
pos = (242,0);
},
{
name = ogonek;
pos = (459,0);
},
{
name = top;
pos = (242,750);
},
{
name = topleft;
pos = (10,750);
}
);
shapes = (
{
closed = 1;
nodes = (
(459,117,l),
(217,117,l),
(217,328,l),
(374,328,l),
(375,454,l),
(217,454,l),
(217,633,l),
(439,633,l),
(451,750,l),
(70,750,l),
(70,0,l),
(447,0,l)
);
}
);
};
layerId = "849A9C4C-BF7C-40C5-8614-1FD725A2A379";
shapes = (
{
closed = 1;
nodes = (
(459,117,l),
(217,117,l),
(217,328,l),
(374,328,l),
(375,454,l),
(217,454,l),
(217,633,l),
(439,633,l),
(451,750,l),
(70,750,l),
(70,0,l),
(447,0,l)
);
}
);
width = 483;
}
);
},
{
color = 0;
export = 0;
glyphname = F.ori;
lastChange = "2023-02-02 16:23:56 +0000";
layers = (
{
anchors = (
{
name = bottom;
pos = (230,0);
},
{
name = top;
pos = (230,750);
}
);
background = {
anchors = (
{
name = bottom;
pos = (230,0);
},
{
name = top;
pos = (230,750);
}
);
shapes = (
{
closed = 1;
nodes = (
(217,312,l),
(374,312,l),
(374,436,l),
(217,436,l),
(217,632,l),
(439,632,l),
(451,750,l),
(70,750,l),
(70,-6,l),
(217,6,l)
);
}
);
};
layerId = "849A9C4C-BF7C-40C5-8614-1FD725A2A379";
shapes = (
{
closed = 1;
nodes = (
(217,312,l),
(374,312,l),
(374,436,l),
(217,436,l),
(217,632,l),
(439,632,l),
(451,750,l),
(70,750,l),
(70,-6,l),
(217,6,l)
);
}
);
width = 460;
}
);
},
{
color = 0;
export = 0;
glyphname = G.ori;
lastChange = "2023-02-02 16:23:56 +0000";
layers = (
{
anchors = (
{
name = bottom;
pos = (276,0);
},
{
name = top;
pos = (276,750);
}
);
background = {
anchors = (
{
name = bottom;
pos = (276,0);
},
{
name = top;
pos = (276,750);
}
);
shapes = (
{
closed = 1;
nodes = (
(379,-14,o),
(402,91,o),
(413,139,c),
(437,40,o),
(446,6,o),
(447,0,c),
(503,6,l),
(503,375,l),
(300,375,l),
(288,263,l),
(362,263,l),
(362,179,o),
(334,104,o),
(282,104,cs),
(186,104,o),
(186,263,o),
(186,370,cs),
(186,484,o),
(203,646,o),
(281,646,cs),
(345,646,o),
(358,573,o),
(361,496,c),
(500,505,l),
(500,653,o),
(435,764,o),
(283,764,cs),
(103,764,o),
(40,551,o),
(40,378,cs),
(40,173,o),
(96,-14,o),
(254,-14,cs)
);
}
);
};
layerId = "849A9C4C-BF7C-40C5-8614-1FD725A2A379";
shapes = (
{
closed = 1;
nodes = (
(379,-14,o),
(402,91,o),
(413,139,c),
(437,40,o),
(446,6,o),
(447,0,c),
(503,6,l),
(503,375,l),
(300,375,l),
(288,263,l),
(362,263,l),
(362,179,o),
(334,104,o),
(282,104,cs),
(186,104,o),
(186,263,o),
(186,370,cs),
(186,484,o),
(203,646,o),
(281,646,cs),
(345,646,o),
(358,573,o),
(361,496,c),
(500,505,l),
(500,653,o),
(435,764,o),
(283,764,cs),
(103,764,o),
(40,551,o),
(40,378,cs),
(40,173,o),
(96,-14,o),
(254,-14,cs)
);
}
);
width = 553;
}
);
},
{
color = 0;
export = 0;
glyphname = Hbar.ori;
lastChange = "2023-02-02 16:23:56 +0000";
layers = (
{
background = {
shapes = (
{
closed = 1;
nodes = (
(71,-6,l),
(217,6,l),
(217,312,l),
(358,312,l),
(358,-6,l),
(504,6,l),
(504,646,l),
(504,750,l),
(358,738,l),
(358,646,l),
(358,446,l),
(217,446,l),
(217,646,l),
(217,750,l),
(71,738,l),
(71,646,l)
);
},
{
closed = 1;
nodes = (
(556,567,l),
(556,656,l),
(13,656,l),
(13,567,l)
);
}
);
};
layerId = "849A9C4C-BF7C-40C5-8614-1FD725A2A379";
shapes = (
{
closed = 1;
nodes = (
(71,-6,l),
(217,6,l),
(217,312,l),
(358,312,l),
(358,-6,l),
(504,6,l),
(504,646,l),
(504,750,l),
(358,738,l),
(358,646,l),
(358,446,l),
(217,446,l),
(217,646,l),
(217,750,l),
(71,738,l),
(71,646,l)
);
},
{
closed = 1;
nodes = (
(556,567,l),
(556,656,l),
(13,656,l),
(13,567,l)
);
}
);
width = 576;
}
);
},
{
color = 0;
export = 0;
glyphname = K.ori;
lastChange = "2023-02-02 16:23:56 +0000";
layers = (
{
anchors = (
{
name = bottom;
pos = (281,0);
},
{
name = top;
pos = (281,750);
}
);
background = {
anchors = (
{
name = bottom;
pos = (281,0);
},
{
name = top;
pos = (281,750);
}
);
shapes = (
{
closed = 1;
nodes = (
(553,21,l),
(390,440,l),
(551,750,l),
(395,750,l),
(217,422,l),
(217,750,l),
(70,738,l),
(70,0,l),
(217,0,l),
(217,237,l),
(274,336,l),
(404,-13,l)
);
}
);
};
layerId = "849A9C4C-BF7C-40C5-8614-1FD725A2A379";
shapes = (
{
closed = 1;
nodes = (
(553,21,l),
(390,440,l),
(551,750,l),
(395,750,l),
(217,422,l),
(217,750,l),
(70,738,l),
(70,0,l),
(217,0,l),
(217,237,l),
(274,336,l),
(404,-13,l)
);
}
);
width = 563;
}
);
},
{
color = 0;
export = 0;
glyphname = M.ori;
lastChange = "2023-02-02 16:23:56 +0000";
layers = (
{
anchors = (
{
name = bottom;
pos = (397,0);
},
{
name = top;
pos = (397,750);
}
);
background = {
anchors = (
{
name = bottom;
pos = (397,0);
},
{
name = top;
pos = (397,750);
}
);
shapes = (
{
closed = 1;
nodes = (
(724,6,l),
(724,744,l),
(528,732,l),
(409,285,l),
(285,749,l),
(70,743,l),
(70,0,l),
(191,6,l),
(191,559,l),
(342,0,l),
(432,0,l),
(572,557,l),
(572,-6,l)
);
}
);
};
layerId = "849A9C4C-BF7C-40C5-8614-1FD725A2A379";
shapes = (
{
closed = 1;
nodes = (
(724,6,l),
(724,744,l),
(528,732,l),
(409,285,l),
(285,749,l),
(70,743,l),
(70,0,l),
(191,6,l),
(191,559,l),
(342,0,l),
(432,0,l),
(572,557,l),
(572,-6,l)
);
}
);
width = 794;
}
);
},
{
color = 0;
export = 0;
glyphname = O.ori;
lastChange = "2023-02-02 16:23:56 +0000";
layers = (
{
anchors = (
{
name = bottom;
pos = (275,0);
},
{
name = center;
pos = (275,375);
},
{
name = ogonek;
pos = (445,5);
},
{
name = top;
pos = (275,750);
},
{
name = topleft;
pos = (10,750);
},
{
name = topright;
pos = (492,463);
}
);
background = {
anchors = (
{
name = bottom;
pos = (275,0);
},
{
name = center;
pos = (275,375);
},
{
name = ogonek;
pos = (445,5);
},
{
name = top;
pos = (275,750);
},
{
name = topleft;
pos = (10,750);
},
{
name = topright;
pos = (492,463);
}
);
shapes = (
{
closed = 1;
nodes = (
(463,-14,o),
(507,192,o),
(507,383,cs),
(507,623,o),
(438,764,o),
(274,764,cs),
(104,764,o),
(42,613,o),
(42,379,cs),
(42,180,o),
(87,-14,o),
(272,-14,cs)
);
},
{
closed = 1;
nodes = (
(197,104,o),
(188,223,o),
(188,385,cs),
(188,490,o),
(192,646,o),
(274,646,cs),
(356,646,o),
(361,490,o),
(361,384,cs),
(361,222,o),
(351,104,o),
(274,104,cs)
);
}
);
};
layerId = "849A9C4C-BF7C-40C5-8614-1FD725A2A379";
shapes = (
{
closed = 1;
nodes = (
(463,-14,o),
(507,192,o),
(507,383,cs),
(507,623,o),
(438,764,o),
(274,764,cs),
(104,764,o),
(42,613,o),
(42,379,cs),
(42,180,o),
(87,-14,o),
(272,-14,cs)
);
},
{
closed = 1;
nodes = (
(197,104,o),
(188,223,o),
(188,385,cs),
(188,490,o),
(192,646,o),
(274,646,cs),
(356,646,o),
(361,490,o),
(361,384,cs),
(361,222,o),
(351,104,o),
(274,104,cs)
);
}
);
width = 549;
}
);
},
{
color = 0;
export = 0;
glyphname = P.ori;
lastChange = "2023-02-02 16:23:56 +0000";
layers = (
{
anchors = (
{
name = bottom;
pos = (267,0);
},
{
name = top;
pos = (267,750);
}
);
background = {
anchors = (
{
name = bottom;
pos = (267,0);
},
{
name = top;
pos = (267,750);
}
);
shapes = (
{
closed = 1;
nodes = (
(217,6,l),
(217,295,l),
(350,295,o),
(514,314,o),
(514,525,cs),
(514,718,o),
(407,750,o),
(219,750,cs),
(70,750,l),
(70,-6,l)
);
},
{
closed = 1;
nodes = (
(218,633,l),
(239,633,ls),
(321,633,o),
(368,616,o),
(368,526,cs),
(368,434,o),
(311,414,o),
(243,414,cs),
(218,414,l)
);
}
);
};
layerId = "849A9C4C-BF7C-40C5-8614-1FD725A2A379";
shapes = (
{
closed = 1;
nodes = (
(217,6,l),
(217,295,l),
(350,295,o),
(514,314,o),
(514,525,cs),
(514,718,o),
(407,750,o),
(219,750,cs),
(70,750,l),
(70,-6,l)
);
},
{
closed = 1;
nodes = (
(218,633,l),
(239,633,ls),
(321,633,o),
(368,616,o),
(368,526,cs),
(368,434,o),
(311,414,o),
(243,414,cs),
(218,414,l)
);
}
);
width = 533;
}
);
},
{
color = 0;
export = 0;
glyphname = Thorn.ori;
lastChange = "2023-02-02 16:23:56 +0000";
layers = (
{
background = {
shapes = (
{
closed = 1;
nodes = (
(215,-33,l),
(215,129,l),
(348,129,o),
(512,148,o),
(512,350,cs),
(512,551,o),
(356,568,o),
(216,570,c),
(216,750,l),
(68,750,l),
(68,-45,l)
);
},
{
closed = 1;
nodes = (
(216,458,l),
(237,458,ls),
(319,458,o),
(366,440,o),
(366,351,cs),
(366,259,o),
(309,238,o),
(241,238,cs),
(216,238,l)
);
}
);
};
layerId = "849A9C4C-BF7C-40C5-8614-1FD725A2A379";
shapes = (
{
closed = 1;
nodes = (
(215,-33,l),
(215,129,l),
(348,129,o),
(512,148,o),
(512,350,cs),
(512,551,o),
(356,568,o),
(216,570,c),
(216,750,l),
(68,750,l),
(68,-45,l)
);
},
{
closed = 1;
nodes = (
(216,458,l),
(237,458,ls),
(319,458,o),
(366,440,o),
(366,351,cs),
(366,259,o),
(309,238,o),
(241,238,cs),
(216,238,l)
);
}
);
width = 528;
}
);
},
{
color = 0;
export = 0;
glyphname = R.ori;
lastChange = "2023-02-02 16:23:56 +0000";
layers = (
{
anchors = (
{
name = bottom;
pos = (283,0);
},
{
name = top;
pos = (283,750);
}
);
background = {
anchors = (
{
name = bottom;
pos = (283,0);
},
{
name = top;
pos = (283,750);
}
);
shapes = (
{
closed = 1;
nodes = (
(551,26,l),
(483,188,ls),
(450,268,o),
(416,350,o),
(416,351,c),
(480,388,o),
(523,443,o),
(523,541,cs),
(523,688,o),
(413,750,o),
(248,750,c),
(70,750,l),
(70,-6,l),
(216,6,l),
(216,329,l),
(273,329,l),
(407,-13,l)
);
},
{
closed = 1;
nodes = (
(216,633,l),
(285,633,ls),
(337,633,o),
(377,610,o),
(377,540,cs),
(377,452,o),
(325,437,o),
(266,437,cs),
(216,437,l)
);
}
);
};
layerId = "849A9C4C-BF7C-40C5-8614-1FD725A2A379";
shapes = (
{
closed = 1;
nodes = (
(551,26,l),
(483,188,ls),
(450,268,o),
(416,350,o),
(416,351,c),
(480,388,o),
(523,443,o),
(523,541,cs),
(523,688,o),
(413,750,o),
(248,750,c),
(70,750,l),
(70,-6,l),
(216,6,l),
(216,329,l),
(273,329,l),
(407,-13,l)
);
},
{
closed = 1;
nodes = (
(216,633,l),
(285,633,ls),
(337,633,o),
(377,610,o),
(377,540,cs),
(377,452,o),
(325,437,o),
(266,437,cs),
(216,437,l)
);
}
);
width = 565;
}
);
},
{
color = 0;
export = 0;
glyphname = S.ori;
lastChange = "2023-02-02 16:23:56 +0000";
layers = (
{
anchors = (
{
name = bottom;
pos = (267,0);
},
{
name = top;
pos = (267,750);
}
);
background = {
anchors = (
{
name = bottom;
pos = (267,0);
},
{
name = top;
pos = (267,750);
}
);
shapes = (
{
closed = 1;
nodes = (
(313,-14,o),
(353,-4,o),
(390,16,cs),
(462,56,o),
(507,131,o),
(507,226,c),
(502,309,o),
(455,375,o),
(366,426,cs),
(245,497,ls),
(220,512,o),
(199,539,o),
(199,571,cs),
(199,615,o),
(223,646,o),
(267,646,cs),
(303,646,o),
(327,630,o),
(344,593,cs),
(353,574,o),
(358,562,o),
(361,557,c),
(485,613,l),
(450,713,o),
(377,764,o),
(274,764,cs),
(230,764,o),
(191,755,o),
(156,736,cs),
(86,699,o),
(42,628,o),
(42,541,cs),
(42,460,o),
(91,393,o),
(167,350,cs),
(298,272,l),
(327,253,o),
(348,221,o),
(348,184,cs),
(348,144,o),
(316,104,o),
(281,104,cs),
(228,104,o),
(198,143,o),
(159,210,cs),
(147,230,l),
(23,172,l),
(62,59,o),
(147,-14,o),
(268,-14,cs)
);
}
);
};
layerId = "849A9C4C-BF7C-40C5-8614-1FD725A2A379";
shapes = (
{
closed = 1;
nodes = (
(313,-14,o),
(353,-4,o),
(390,16,cs),
(462,56,o),
(507,131,o),
(507,226,c),
(502,309,o),
(455,375,o),
(366,426,cs),
(245,497,ls),
(220,512,o),
(199,539,o),
(199,571,cs),
(199,615,o),
(223,646,o),
(267,646,cs),
(303,646,o),
(327,630,o),
(344,593,cs),
(353,574,o),
(358,562,o),
(361,557,c),
(485,613,l),
(450,713,o),
(377,764,o),
(274,764,cs),
(230,764,o),
(191,755,o),
(156,736,cs),
(86,699,o),
(42,628,o),
(42,541,cs),
(42,460,o),
(91,393,o),
(167,350,cs),
(298,272,l),
(327,253,o),
(348,221,o),
(348,184,cs),
(348,144,o),
(316,104,o),
(281,104,cs),
(228,104,o),
(198,143,o),
(159,210,cs),
(147,230,l),
(23,172,l),
(62,59,o),
(147,-14,o),
(268,-14,cs)
);
}
);
width = 533;
}
);
},
{
color = 0;
export = 0;
glyphname = V.ori;
lastChange = "2023-02-02 16:23:56 +0000";
layers = (
{
anchors = (
{
name = bottom;
pos = (267,0);
},
{
name = top;
pos = (267,750);
}
);
background = {
anchors = (
{
name = bottom;
pos = (267,0);
},
{
name = top;
pos = (267,750);
}
);
shapes = (
{
closed = 1;
nodes = (
(346,0,l),
(526,750,l),
(385,744,l),
(281,232,l),
(182,750,l),
(8,744,l),
(185,0,l)
);
}
);
};
layerId = "849A9C4C-BF7C-40C5-8614-1FD725A2A379";
shapes = (
{
closed = 1;
nodes = (
(346,0,l),
(526,750,l),
(385,744,l),
(281,232,l),
(182,750,l),
(8,744,l),
(185,0,l)
);
}
);
width = 533;
}
);
},
{
color = 0;
export = 0;
glyphname = W.ori;
lastChange = "2023-02-02 16:23:56 +0000";
layers = (
{
anchors = (
{
name = bottom;
pos = (387,0);
},
{
name = top;
pos = (387,750);
}
);
background = {
anchors = (
{
name = bottom;
pos = (387,0);
},
{
name = top;
pos = (387,750);
}
);
shapes = (
{
closed = 1;
nodes = (
(300,0,l),
(381,458,l),
(460,0,l),
(605,0,l),
(766,750,l),
(631,744,l),
(536,296,l),
(457,750,l),
(337,744,l),
(252,301,l),
(173,750,l),
(13,744,l),
(166,0,l)
);
}
);
};
layerId = "849A9C4C-BF7C-40C5-8614-1FD725A2A379";
shapes = (
{
closed = 1;
nodes = (
(300,0,l),
(381,458,l),
(460,0,l),
(605,0,l),
(766,750,l),
(631,744,l),
(536,296,l),
(457,750,l),
(337,744,l),
(252,301,l),
(173,750,l),
(13,744,l),
(166,0,l)
);
}
);
width = 774;
}
);
},
{
color = 3;
glyphname = a;
kernLeft = a;
kernRight = n;
lastChange = "2023-02-13 12:35:00 +0000";
layers = (
{
anchors = (
{
name = bottom;
pos = (237,0);
},
{
name = ogonek;
pos = (442,0);
},
{
name = top;
pos = (234,560);
}
);
background = {
anchors = (
{
name = bottom;
pos = (237,0);
},
{
name = ogonek;
pos = (506,-4);
},
{
name = top;
pos = (234,563);
}
);
shapes = (
{
closed = 1;
nodes = (
(140,336,o),
(34,280,o),
(34,148,cs),
(34,48,o),
(86,-12,o),
(166,-12,cs),
(239,-12,o),
(281,35,o),
(298,92,c),
(282,160,l),
(282,124,o),
(260,99,o),
(227,99,cs),
(191,99,o),
(173,126,o),
(173,168,cs),
(173,222,o),
(213,261,o),
(282,261,cs),
(294,261,l),
(294,336,l),
(282,336,ls)
);
},
{
closed = 1;
nodes = (
(291,54,o),
(296,28,o),
(306,0,c),
(442,0,l),
(427,45,o),
(422,94,o),
(422,148,cs),
(422,372,ls),
(422,498,o),
(363,570,o),
(232,570,cs),
(139,570,o),
(65,521,o),
(48,414,c),
(172,387,l),
(177,428,o),
(193,463,o),
(228,463,cs),
(269,463,o),
(282,428,o),
(282,387,cs),
(282,86,l),
(291,86,l)
);
}
);
};
layerId = "849A9C4C-BF7C-40C5-8614-1FD725A2A379";
shapes = (
{
closed = 1;
nodes = (
(140,336,o),
(34,280,o),
(34,148,cs),
(34,48,o),
(86,-12,o),
(166,-12,cs),
(231,-12,o),
(271,25,o),
(291,73,c),
(292,47,o),
(297,24,o),
(306,0,c),
(442,0,l),
(427,45,o),
(422,94,o),
(422,148,cs),
(422,372,ls),
(422,498,o),
(363,570,o),
(232,570,cs),
(139,570,o),
(65,521,o),
(48,414,c),
(172,387,l),
(177,428,o),
(193,463,o),
(228,463,cs),
(269,463,o),
(282,428,o),
(282,387,cs),
(282,336,l)
);
},
{
closed = 1;
nodes = (
(173,222,o),
(213,261,o),
(282,261,c),
(282,160,ls),
(282,124,o),
(260,99,o),
(227,99,cs),
(191,99,o),
(173,126,o),
(173,168,cs)
);
}
);
width = 467;
}
);
unicode = 97;
},
{
glyphname = aringacute;
kernLeft = a;
kernRight = n;
lastChange = "2023-02-10 12:04:56 +0000";
layers = (
{
anchors = (
{
name = _top;
pos = (292,728);
},
{
name = top;
pos = (372,1040);
}
);
background = {
anchors = (
{
name = _top;
pos = (292,728);
},
{
name = top;
pos = (372,1040);
}
);
shapes = (
{
closed = 1;
nodes = (
(490,919,l),
(387,1014,l),
(277,815,l),
(309,788,l)
);
},
{
ref = aring;
}
);
};
layerId = "849A9C4C-BF7C-40C5-8614-1FD725A2A379";
shapes = (
{
ref = a;
},
{
pos = (-16,0);
ref = ringcomb;
},
{
pos = (-16,315);
ref = acutecomb;
}
);
width = 467;
}
);
unicode = 507;
},
{
color = 3;
glyphname = ae;
kernLeft = a;
kernRight = o;
lastChange = "2023-02-13 12:35:10 +0000";
layers = (
{
anchors = (
{
name = bottom;
pos = (361,0);
},
{
name = top;
pos = (361,560);
}
);
background = {
shapes = (
{
closed = 1;
nodes = (
(140,336,o),
(34,280,o),
(34,148,cs),
(34,48,o),
(86,-12,o),
(166,-12,cs),
(231,-12,o),
(271,25,o),
(291,73,c),
(292,47,o),
(297,24,o),
(306,0,c),
(442,0,l),
(427,45,o),
(422,94,o),
(422,148,cs),
(422,372,ls),
(422,498,o),
(363,570,o),
(232,570,cs),
(139,570,o),
(65,521,o),
(48,414,c),
(172,387,l),
(177,428,o),
(193,463,o),
(228,463,cs),
(269,463,o),
(282,428,o),
(282,387,cs),
(282,336,l)
);
},
{
closed = 1;
nodes = (
(173,222,o),
(213,261,o),
(282,261,c),
(282,160,ls),
(282,124,o),
(260,99,o),
(227,99,cs),
(191,99,o),
(173,126,o),
(173,168,cs)
);
}
);
};
layerId = "849A9C4C-BF7C-40C5-8614-1FD725A2A379";
shapes = (
{
closed = 1;
nodes = (
(276,-13,o),
(336,50,o),
(346,134,c),
(318,134,l),
(353,24,o),
(407,-13,o),
(497,-13,cs),
(597,-13,o),
(661,61,o),
(678,154,c),
(558,179,l),
(552,138,o),
(536,93,o),
(494,93,cs),
(423,93,o),
(419,194,o),
(419,279,c),
(397,245,l),
(679,245,l),
(681,274,o),
(682,305,o),
(682,332,cs),
(682,466,o),
(624,570,o),
(494,570,cs),
(423,570,o),
(367,535,o),
(360,494,c),
(374,494,l),
(364,545,o),
(309,570,o),
(248,570,cs),
(174,570,o),
(79,538,o),
(63,418,c),
(187,391,l),
(193,433,o),
(211,463,o),
(244,463,cs),
(284,463,o),
(294,421,o),
(294,383,cs),
(294,336,l),
(140,336,o),
(34,285,o),
(34,147,cs),
(34,45,o),
(99,-13,o),
(191,-13,cs)
);
},
{
closed = 1;
nodes = (
(194,98,o),
(173,120,o),
(173,164,cs),
(173,231,o),
(225,261,o),
(292,261,c),
(292,172,ls),
(292,117,o),
(261,98,o),
(228,98,cs)
);
},
{
closed = 1;
nodes = (
(418,393,o),
(440,466,o),
(490,466,cs),
(544,466,o),
(556,398,o),
(553,290,c),
(575,324,l),
(397,324,l),
(419,290,l)
);
}
);
width = 712;
}
);
metricLeft = a;
metricRight = e;
unicode = 230;
},
{
color = 3;
glyphname = b;
kernLeft = h;
kernRight = o;
lastChange = "2023-02-15 14:40:42 +0000";
layers = (
{
anchors = (
{
name = bottom;
pos = (248,0);
},
{
name = top;
pos = (248,560);
}
);
background = {
shapes = (
{
closed = 1;
nodes = (
(190,760,l),
(50,743,l),
(50,0,l),
(178,0,l),
(178,84,l),
(190,138,l)
);
},
{
closed = 1;
nodes = (
(206,91,o),
(190,153,o),
(190,237,c),
(167,149,l),
(167,69,o),
(201,-13,o),
(296,-13,cs),
(418,-13,o),
(470,115,o),
(470,279,cs),
(470,459,o),
(418,570,o),
(303,570,cs),
(213,570,o),
(167,503,o),
(167,412,c),
(190,322,l),
(190,408,o),
(206,466,o),
(257,466,cs),
(307,466,o),
(327,390,o),
(327,278,cs),
(327,167,o),
(307,91,o),
(254,91,cs)
);
}
);
};
layerId = "849A9C4C-BF7C-40C5-8614-1FD725A2A379";
shapes = (
{
closed = 1;
nodes = (
(413,-13,o),
(470,115,o),
(470,279,cs),
(470,459,o),
(413,570,o),
(303,570,cs),
(250,570,o),
(212,547,o),
(190,509,c),
(190,760,l),
(50,743,l),
(50,0,l),
(178,0,l),
(178,75,l),
(195,25,o),
(231,-13,o),
(296,-13,cs)
);
},
{
closed = 1;
nodes = (
(206,91,o),
(190,153,o),
(190,237,cs),
(190,322,ls),
(190,408,o),
(206,466,o),
(257,466,cs),
(307,466,o),
(327,390,o),
(327,278,cs),
(327,167,o),
(307,91,o),
(254,91,cs)
);
}
);
width = 500;
}
);
metricLeft = l;
metricRight = o;
unicode = 98;
},
{
color = 3;
glyphname = c;
kernLeft = o;
kernRight = c;
lastChange = "2023-02-13 13:37:44 +0000";
layers = (
{
anchors = (
{
name = bottom;
pos = (241,0);
},
{
name = top;
pos = (235,560);
}
);
background = {
anchors = (
{
name = bottom;
pos = (241,0);
},
{
name = top;
pos = (235,563);
}
);
shapes = (
{
closed = 1;
nodes = (
(353,-13,o),
(422,76,o),
(434,182,c),
(306,196,l),
(304,154,o),
(290,90,o),
(242,90,cs),
(191,90,o),
(173,163,o),
(173,278,cs),
(173,378,o),
(185,467,o),
(242,467,cs),
(288,467,o),
(300,405,o),
(304,353,c),
(434,379,l),
(425,497,o),
(353,570,o),
(242,570,cs),
(111,570,o),
(30,457,o),
(30,278,cs),
(30,101,o),
(100,-13,o),
(242,-13,cs)
);
}
);
};
layerId = "849A9C4C-BF7C-40C5-8614-1FD725A2A379";
shapes = (
{
closed = 1;
nodes = (
(353,-13,o),
(422,76,o),
(434,182,c),
(306,196,l),
(304,154,o),
(290,90,o),
(242,90,cs),
(191,90,o),
(173,163,o),
(173,278,cs),
(173,378,o),
(185,467,o),
(242,467,cs),
(288,467,o),
(300,405,o),
(304,353,c),
(434,379,l),
(425,497,o),
(353,570,o),
(242,570,cs),
(111,570,o),
(30,457,o),
(30,278,cs),
(30,101,o),
(100,-13,o),
(242,-13,cs)
);
}
);
width = 452;
}
);
metricLeft = o;
unicode = 99;
},
{
color = 3;
glyphname = d;
kernLeft = o;
kernRight = l;
lastChange = "2023-02-09 13:52:02 +0000";
layers = (
{
anchors = (
{
name = bottom;
pos = (251,0);
},
{
name = center;
pos = (350,644);
},
{
name = top;
pos = (251,560);
},
{
name = topright;
pos = (500,750);
}
);
background = {
shapes = (
{
closed = 1;
nodes = (
(310,138,l),
(322,137,l),
(322,-8,l),
(450,8,l),
(450,760,l),
(310,743,l)
);
},
{
closed = 1;
nodes = (
(294,466,o),
(310,404,o),
(310,320,c),
(333,408,l),
(333,488,o),
(299,570,o),
(204,570,cs),
(82,570,o),
(30,442,o),
(30,278,cs),
(30,98,o),
(82,-13,o),
(197,-13,cs),
(287,-13,o),
(333,54,o),
(333,145,c),
(310,235,l),
(310,149,o),
(294,91,o),
(243,91,cs),
(193,91,o),
(173,167,o),
(173,279,cs),
(173,390,o),
(193,466,o),
(246,466,cs)
);
}
);
};
layerId = "849A9C4C-BF7C-40C5-8614-1FD725A2A379";
shapes = (
{
closed = 1;
nodes = (
(310,509,l),
(290,545,o),
(256,570,o),
(204,570,cs),
(87,570,o),
(30,442,o),
(30,278,cs),
(30,98,o),
(87,-13,o),
(197,-13,cs),
(262,-13,o),
(303,21,o),
(322,75,c),
(322,0,l),
(450,0,l),
(450,760,l),
(310,743,l)
);
},
{
closed = 1;
nodes = (
(173,390,o),
(193,466,o),
(246,466,cs),
(294,466,o),
(310,404,o),
(310,320,cs),
(310,235,ls),
(310,149,o),
(294,91,o),
(243,91,cs),
(193,91,o),
(173,167,o),
(173,279,cs)
);
}
);
width = 500;
}
);
metricLeft = o;
metricRight = l;
unicode = 100;
},
{
color = 4;
glyphname = eth;
kernLeft = o;
kernRight = o;
lastChange = "2023-02-15 14:40:42 +0000";
layers = (
{
background = {
shapes = (
{
closed = 1;
nodes = (
(331,399,l),
(331,478,o),
(285,571,o),
(204,571,cs),
(75,571,o),
(30,419,o),
(30,275,cs),
(30,95,o),
(105,-13,o),
(244,-13,cs),
(403,-13,o),
(458,138,o),
(458,319,cs),
(458,503,o),
(401,648,o),
(274,776,c),
(145,730,l),
(268,615,o),
(316,490,o),
(316,388,cs),
(316,298,l),
(316,189,o),
(302,90,o),
(242,90,cs),
(183,90,o),
(173,183,o),
(173,290,cs),
(173,362,o),
(182,467,o),
(242,467,cs),
(288,467,o),
(316,421,o),
(316,299,c)
);
},
{
closed = 1;
nodes = (
(121,585,l),
(447,711,l),
(422,776,l),
(96,651,l)
);
}
);
};
layerId = "849A9C4C-BF7C-40C5-8614-1FD725A2A379";
shapes = (
{
closed = 1;
nodes = (
(403,-13,o),
(458,138,o),
(458,319,cs),
(458,457,o),
(426,573,o),
(357,676,c),
(447,711,l),
(422,776,l),
(313,734,l),
(301,748,o),
(288,762,o),
(274,776,c),
(145,730,l),
(160,716,o),
(175,701,o),
(188,686,c),
(96,651,l),
(121,585,l),
(234,629,l),
(257,595,o),
(275,561,o),
(288,529,c),
(267,554,o),
(239,571,o),
(204,571,cs),
(75,571,o),
(30,419,o),
(30,275,cs),
(30,95,o),
(105,-13,o),
(244,-13,cs)
);
},
{
closed = 1;
nodes = (
(183,90,o),
(173,183,o),
(173,290,cs),
(173,362,o),
(182,467,o),
(242,467,cs),
(288,467,o),
(316,421,o),
(316,299,cs),
(316,298,ls),
(316,189,o),
(302,90,o),
(242,90,cs)
);
}
);
width = 488;
}
);
metricLeft = o;
metricRight = o;
unicode = 240;
},
{
color = 3;
glyphname = e;
kernLeft = o;
kernRight = o;
lastChange = "2023-02-09 13:51:27 +0000";
layers = (
{
anchors = (
{
name = bottom;
pos = (245,0);
},
{
name = ogonek;
pos = (312,0);
},
{
name = top;
pos = (229,560);
}
);
background = {
anchors = (
{
name = bottom;
pos = (245,0);
},
{
name = ogonek;
pos = (399,5);
},
{
name = top;
pos = (229,563);
}
);
shapes = (
{
closed = 1;
nodes = (
(340,-13,o),
(411,50,o),
(430,154,c),
(310,179,l),
(304,132,o),
(288,90,o),
(243,90,cs),
(174,90,o),
(171,198,o),
(171,279,c),
(149,245,l),
(431,245,l),
(433,279,o),
(434,304,o),
(434,336,cs),
(434,469,o),
(376,570,o),
(240,570,cs),
(108,570,o),
(30,448,o),
(30,276,cs),
(30,113,o),
(90,-13,o),
(241,-13,cs)
);
},
{
closed = 1;
nodes = (
(171,367,o),
(180,469,o),
(243,469,cs),
(293,469,o),
(305,400,o),
(305,342,cs),
(305,290,l),
(327,324,l),
(149,324,l),
(171,290,l)
);
}
);
};
layerId = "849A9C4C-BF7C-40C5-8614-1FD725A2A379";
shapes = (
{
closed = 1;
nodes = (
(340,-13,o),
(411,50,o),
(430,154,c),
(310,179,l),
(304,132,o),
(288,90,o),
(243,90,cs),
(174,90,o),
(171,198,o),
(171,279,c),
(149,245,l),
(431,245,l),
(433,279,o),
(434,304,o),
(434,336,cs),
(434,469,o),
(376,570,o),
(240,570,cs),
(108,570,o),
(30,448,o),
(30,276,cs),
(30,113,o),
(90,-13,o),
(241,-13,cs)
);
},
{
closed = 1;
nodes = (
(171,367,o),
(180,469,o),
(243,469,cs),
(293,469,o),
(305,400,o),
(305,342,cs),
(305,290,l),
(327,324,l),
(149,324,l),
(171,290,l)
);
}
);
width = 464;
}
);
metricLeft = o;
unicode = 101;
},
{
glyphname = eogonek;
kernLeft = o;
kernRight = o;
lastChange = "2023-02-09 13:51:27 +0000";
layers = (
{
background = {
shapes = (
{
closed = 1;
nodes = (
(229,-15,o),
(188,-55,o),
(188,-106,cs),
(188,-171,o),
(234,-210,o),
(299,-210,cs),
(356,-210,o),
(391,-181,o),
(421,-137,c),
(383,-103,l),
(373,-115,o),
(359,-128,o),
(335,-128,cs),
(303,-128,o),
(285,-103,o),
(285,-71,cs),
(285,-36,o),
(301,-11,o),
(330,4,cs),
(399,38,o),
(424,97,o),
(433,152,c),
(315,177,l),
(307,132,o),
(290,90,o),
(250,90,cs),
(195,90,o),
(177,162,o),
(175,248,c),
(435,248,l),
(437,284,o),
(438,307,o),
(438,336,cs),
(438,469,o),
(380,570,o),
(244,570,cs),
(112,570,o),
(34,448,o),
(34,276,cs),
(34,23,o),
(169,-13,o),
(261,-11,c),
(261,-5,l)
);
},
{
closed = 1;
nodes = (
(180,412,o),
(205,464,o),
(246,464,cs),
(290,464,o),
(311,416,o),
(311,352,cs),
(311,330,l),
(177,330,l)
);
}
);
};
layerId = "849A9C4C-BF7C-40C5-8614-1FD725A2A379";
shapes = (
{
ref = e;
},
{
pos = (62,0);
ref = ogonekcomb;
}
);
width = 464;
}
);
unicode = 281;
},
{
color = 4;
glyphname = schwa;
kernLeft = o;
kernRight = o;
lastChange = "2023-02-09 14:01:14 +0000";
layers = (
{
anchors = (
{
name = bottom;
pos = (237,-5);
},
{
name = ogonek;
pos = (74,553);
},
{
name = top;
pos = (237,555);
}
);
background = {
shapes = (
{
closed = 1;
nodes = (
(129,571,o),
(54,503,o),
(35,402,c),
(158,379,l),
(164,422,o),
(184,467,o),
(233,467,cs),
(283,467,o),
(304,383,o),
(304,296,c),
(37,296,l),
(34,277,o),
(33,248,o),
(33,215,cs),
(33,89,o),
(95,-12,o),
(228,-12,cs),
(361,-12,o),
(439,107,o),
(439,280,cs),
(439,462,o),
(371,571,o),
(228,571,cs)
);
},
{
closed = 1;
nodes = (
(303,150,o),
(281,92,o),
(230,92,cs),
(184,92,o),
(156,142,o),
(156,206,cs),
(156,209,o),
(156,214,o),
(157,220,c),
(302,220,l)
);
}
);
};
layerId = "849A9C4C-BF7C-40C5-8614-1FD725A2A379";
shapes = (
{
closed = 1;
nodes = (
(124,570,o),
(51,497,o),
(34,403,c),
(154,378,l),
(160,425,o),
(176,464,o),
(221,464,cs),
(290,464,o),
(293,359,o),
(293,278,c),
(315,312,l),
(40,312,l),
(33,278,o),
(30,253,o),
(30,221,cs),
(30,88,o),
(88,-13,o),
(224,-13,cs),
(356,-13,o),
(434,109,o),
(434,281,cs),
(434,444,o),
(374,570,o),
(223,570,cs)
);
},
{
closed = 1;
nodes = (
(293,190,o),
(284,88,o),
(221,88,cs),
(171,88,o),
(159,157,o),
(159,215,cs),
(159,267,l),
(137,233,l),
(315,233,l),
(293,267,l)
);
}
);
width = 464;
}
);
metricLeft = "=|e";
metricRight = o;
unicode = 601;
},
{
color = 4;
glyphname = f;
kernLeft = f;
kernRight = f;
lastChange = "2023-02-14 14:21:37 +0000";
layers = (
{
anchors = (
{
name = bottom;
pos = (150,0);
},
{
name = top;
pos = (150,750);
}
);
background = {
shapes = (
{
closed = 1;
nodes = (
(313,458,l),
(326,563,l),
(15,563,l),
(15,458,l)
);
},
{
closed = 1;
nodes = (
(220,0,l),
(220,563,l),
(220,573,ls),
(220,632,o),
(233,662,o),
(274,662,cs),
(292,662,o),
(307,660,o),
(326,655,c),
(333,753,l),
(298,764,o),
(264,771,o),
(221,771,cs),
(127,771,o),
(80,699,o),
(80,596,cs),
(80,0,l)
);
}
);
};
layerId = "849A9C4C-BF7C-40C5-8614-1FD725A2A379";
shapes = (
{
closed = 1;
nodes = (
(220,0,l),
(220,455,l),
(313,455,l),
(326,560,l),
(220,560,l),
(220,583,ls),
(220,627,o),
(245,655,o),
(283,655,cs),
(308,655,o),
(327,645,o),
(347,625,c),
(414,708,l),
(383,746,o),
(330,762,o),
(282,762,cs),
(158,762,o),
(80,680,o),
(80,560,c),
(15,560,l),
(15,455,l),
(80,455,l),
(80,0,l)
);
}
);
width = 340;
}
);
unicode = 102;
},
{
color = 4;
glyphname = g;
kernLeft = g;
kernRight = g;
lastChange = "2023-02-13 13:37:58 +0000";
layers = (
{
anchors = (
{
name = bottom;
pos = (268,0);
},
{
name = top;
pos = (249,560);
}
);
background = {
shapes = (
{
closed = 1;
nodes = (
(372,-182,o),
(485,-128,o),
(485,-8,cs),
(485,82,o),
(423,133,o),
(337,140,cs),
(225,149,ls),
(190,152,o),
(171,168,o),
(171,194,cs),
(171,216,o),
(194,233,o),
(225,234,c),
(177,261,l),
(120,250,o),
(52,213,o),
(52,140,cs),
(52,72,o),
(96,34,o),
(175,28,cs),
(303,19,ls),
(333,17,o),
(359,4,o),
(359,-24,cs),
(359,-66,o),
(316,-81,o),
(259,-81,cs),
(190,-81,o),
(142,-61,o),
(142,-15,cs),
(142,24,o),
(168,51,o),
(206,52,c),
(151,62,l),
(81,57,o),
(25,17,o),
(25,-51,cs),
(25,-141,o),
(102,-182,o),
(239,-182,cs)
);
},
{
closed = 1;
nodes = (
(356,215,o),
(454,275,o),
(454,389,cs),
(454,501,o),
(356,570,o),
(248,570,cs),
(142,570,o),
(42,501,o),
(42,389,cs),
(42,275,o),
(142,215,o),
(248,215,cs)
);
},
{
closed = 1;
nodes = (
(208,297,o),
(186,333,o),
(186,390,cs),
(186,447,o),
(208,489,o),
(248,489,cs),
(290,489,o),
(310,447,o),
(310,389,cs),
(310,331,o),
(289,297,o),
(248,297,cs)
);
},
{
closed = 1;
nodes = (
(420,531,o),
(460,555,o),
(502,566,c),
(465,680,l),
(399,660,o),
(355,581,o),
(354,500,c),
(395,500,l)
);
}
);
};
layerId = "849A9C4C-BF7C-40C5-8614-1FD725A2A379";
shapes = (
{
closed = 1;
nodes = (
(372,-182,o),
(485,-128,o),
(485,-8,cs),
(485,82,o),
(423,133,o),
(337,140,cs),
(225,149,ls),
(190,152,o),
(171,168,o),
(171,194,cs),
(171,205,o),
(177,215,o),
(187,222,c),
(206,217,o),
(227,215,o),
(248,215,cs),
(356,215,o),
(454,275,o),
(454,389,cs),
(454,439,o),
(435,480,o),
(404,510,c),
(429,536,o),
(465,556,o),
(502,566,c),
(465,680,l),
(411,664,o),
(372,608,o),
(359,543,c),
(326,561,o),
(288,570,o),
(248,570,cs),
(142,570,o),
(42,501,o),
(42,389,cs),
(42,322,o),
(77,273,o),
(127,245,c),
(87,226,o),
(52,192,o),
(52,140,cs),
(52,99,o),
(68,69,o),
(98,50,c),
(55,33,o),
(25,-2,o),
(25,-51,cs),
(25,-141,o),
(102,-182,o),
(239,-182,cs)
);
},
{
closed = 1;
nodes = (
(142,3,o),
(148,18,o),
(157,30,c),
(163,29,o),
(169,28,o),
(175,28,cs),
(303,19,ls),
(333,17,o),
(359,4,o),
(359,-24,cs),
(359,-66,o),
(316,-81,o),
(259,-81,cs),
(190,-81,o),
(142,-61,o),
(142,-15,cs)
);
},
{
closed = 1;
nodes = (
(186,447,o),
(208,489,o),
(248,489,cs),
(290,489,o),
(310,447,o),
(310,389,cs),
(310,331,o),
(289,297,o),
(248,297,cs),
(208,297,o),
(186,333,o),
(186,390,cs)
);
}
);
width = 497;
}
);
unicode = 103;
},
{
glyphname = gcommaaccent;
kernLeft = g;
kernRight = g;
lastChange = "2023-02-09 13:53:04 +0000";
layers = (
{
background = {
shapes = (
{
closed = 1;
nodes = (
(219,914,o),
(181,859,o),
(181,795,cs),
(181,646,l),
(317,646,l),
(317,797,l),
(250,797,l),
(250,834,o),
(267,860,o),
(298,872,c),
(272,935,l)
);
},
{
ref = g;
}
);
};
layerId = "849A9C4C-BF7C-40C5-8614-1FD725A2A379";
shapes = (
{
ref = g;
},
{
pos = (-1,0);
ref = commaturnedabovecomb;
}
);
width = 497;
}
);
unicode = 291;
},
{
color = 3;
glyphname = h;
kernLeft = h;
kernRight = n;
lastChange = "2023-02-09 13:53:37 +0000";
layers = (
{
anchors = (
{
name = bottom;
pos = (259,0);
},
{
name = center;
pos = (150,644);
},
{
name = top;
pos = (118,750);
}
);
background = {
shapes = (
{
closed = 1;
nodes = (
(190,0,l),
(190,760,l),
(50,743,l),
(50,0,l)
);
},
{
closed = 1;
nodes = (
(190,287,l),
(190,382,o),
(222,454,o),
(269,454,cs),
(318,454,o),
(324,408,o),
(324,348,cs),
(324,0,l),
(464,0,l),
(464,404,ls),
(464,521,o),
(413,573,o),
(334,573,cs),
(257,573,o),
(196,526,o),
(180,418,c)
);
}
);
};
layerId = "849A9C4C-BF7C-40C5-8614-1FD725A2A379";
shapes = (
{
closed = 1;
nodes = (
(190,0,l),
(190,287,ls),
(190,382,o),
(222,454,o),
(269,454,cs),
(318,454,o),
(324,408,o),
(324,348,cs),
(324,0,l),
(464,0,l),
(464,404,ls),
(464,521,o),
(413,573,o),
(334,573,cs),
(268,573,o),
(214,539,o),
(190,462,c),
(190,760,l),
(50,743,l),
(50,0,l)
);
}
);
width = 509;
}
);
metricLeft = n;
metricRight = n;
unicode = 104;
},
{
glyphname = hbar;
kernLeft = h;
kernRight = n;
lastChange = "2023-02-09 14:02:52 +0000";
layers = (
{
background = {
shapes = (
{
closed = 1;
nodes = (
(302,603,l),
(312,693,l),
(-16,693,l),
(-16,603,l)
);
},
{
pos = (1,0);
ref = h;
}
);
};
layerId = "849A9C4C-BF7C-40C5-8614-1FD725A2A379";
shapes = (
{
ref = h;
},
{
pos = (-100,351);
ref = strokeshortcomb;
}
);
width = 509;
}
);
unicode = 295;
},
{
color = 3;
glyphname = i;
kernLeft = h;
kernRight = l;
lastChange = "2023-02-09 13:55:18 +0000";
layers = (
{
anchors = (
{
name = bottom;
pos = (117,0);
},
{
name = ogonek;
pos = (190,0);
},
{
name = top;
pos = (120,560);
}
);
background = {
anchors = (
{
name = bottom;
pos = (117,0);
},
{
name = ogonek;
pos = (270,5);
},
{
name = top;
pos = (120,563);
}
);
shapes = (
{
closed = 1;
nodes = (
(192,632,l),
(192,760,l),
(48,760,l),
(48,632,l)
);
},
{
pos = (-11,0);
ref = idotless;
}
);
};
layerId = "849A9C4C-BF7C-40C5-8614-1FD725A2A379";
shapes = (
{
closed = 1;
nodes = (
(192,632,l),
(192,760,l),
(48,760,l),
(48,632,l)
);
},
{
closed = 1;
nodes = (
(190,0,l),
(190,567,l),
(50,550,l),
(50,0,l)
);
}
);
width = 240;
}
);
unicode = 105;
},
{
color = 3;
glyphname = idotless;
kernLeft = n;
kernRight = u;
lastChange = "2023-02-13 16:02:43 +0000";
layers = (
{
anchors = (
{
name = bottom;
pos = (120,0);
},
{
name = ogonek;
pos = (190,0);
},
{
name = top;
pos = (120,560);
}
);
background = {
anchors = (
{
name = bottom;
pos = (120,0);
},
{
name = ogonek;
pos = (120,5);
},
{
name = top;
pos = (120,561);
}
);
shapes = (
{
closed = 1;
nodes = (
(190,0,l),
(190,567,l),
(50,550,l),
(50,0,l)
);
}
);
};
layerId = "849A9C4C-BF7C-40C5-8614-1FD725A2A379";
shapes = (
{
closed = 1;
nodes = (
(190,0,l),
(190,567,l),
(50,550,l),
(50,0,l)
);
}
);
width = 240;
}
);
metricLeft = n;
metricRight = "=|n";
unicode = 305;
userData = {
com.fontlab.hintData = {
vhints = (
{
position = 124;
width = 288;
}
);
};
};
},
{
color = 3;
glyphname = j;
kernLeft = h;
kernRight = l;
lastChange = "2023-02-14 14:19:40 +0000";
layers = (
{
background = {
shapes = (
{
pos = (294,-141);
ref = t;
scale = (-1,1);
}
);
};
layerId = "849A9C4C-BF7C-40C5-8614-1FD725A2A379";
shapes = (
{
closed = 1;
nodes = (
(146,-180,o),
(202,-105,o),
(202,-7,cs),
(202,566,l),
(62,549,l),
(62,21,ls),
(62,-37,o),
(51,-64,o),
(10,-64,cs),
(-4,-64,o),
(-14,-62,o),
(-25,-58,c),
(-38,-166,l),
(-7,-176,o),
(21,-180,o),
(51,-180,cs)
);
},
{
closed = 1;
nodes = (
(204,632,l),
(204,761,l),
(59,761,l),
(59,632,l)
);
}
);
width = 252;
}
);
unicode = 106;
},
{
color = 3;
glyphname = jdotless;
kernLeft = n;
kernRight = u;
lastChange = "2023-02-09 13:57:33 +0000";
layers = (
{
anchors = (
{
name = top;
pos = (132,560);
}
);
background = {
anchors = (
{
name = bottom;
pos = (150,0);
},
{
name = top;
pos = (150,563);
}
);
shapes = (
{
closed = 1;
nodes = (
(164,-168,o),
(220,-93,o),
(220,5,cs),
(220,566,l),
(80,553,l),
(80,34,ls),
(80,-29,o),
(69,-56,o),
(26,-56,cs),
(14,-56,o),
(4,-54,o),
(-7,-50,c),
(-20,-154,l),
(11,-164,o),
(39,-168,o),
(73,-168,cs)
);
}
);
};
layerId = "849A9C4C-BF7C-40C5-8614-1FD725A2A379";
shapes = (
{
closed = 1;
nodes = (
(146,-180,o),
(202,-105,o),
(202,-7,cs),
(202,566,l),
(62,549,l),
(62,21,ls),
(62,-37,o),
(51,-64,o),
(10,-64,cs),
(-4,-64,o),
(-14,-62,o),
(-25,-58,c),
(-38,-166,l),
(-7,-176,o),
(21,-180,o),
(51,-180,cs)
);
}
);
width = 252;
}
);
unicode = 567;
},
{
color = 3;
glyphname = k;
kernLeft = h;
kernRight = k;
lastChange = "2023-02-13 13:40:19 +0000";
layers = (
{
anchors = (
{
name = bottom;
pos = (249,0);
},
{
name = top;
pos = (257,750);
}
);
background = {
shapes = (
{
closed = 1;
nodes = (
(220,265,l),
(350,-16,l),
(474,25,l),
(319,373,l)
);
},
{
closed = 1;
nodes = (
(190,0,l),
(190,760,l),
(50,743,l),
(50,0,l)
);
},
{
closed = 1;
nodes = (
(322,560,l),
(190,350,l),
(190,164,l),
(288,314,l),
(301,306,l),
(463,560,l)
);
}
);
};
layerId = "849A9C4C-BF7C-40C5-8614-1FD725A2A379";
shapes = (
{
closed = 1;
nodes = (
(190,0,l),
(190,164,l),
(235,233,l),
(350,-16,l),
(474,25,l),
(329,350,l),
(463,560,l),
(322,560,l),
(190,350,l),
(190,760,l),
(50,743,l),
(50,0,l)
);
}
);
width = 474;
}
);
metricLeft = l;
unicode = 107;
},
{
color = 3;
glyphname = kgreenlandic;
kernLeft = n;
kernRight = k;
lastChange = "2023-02-13 13:38:10 +0000";
layers = (
{
background = {
shapes = (
{
closed = 1;
nodes = (
(461,536,l),
(348,581,l),
(190,292,l),
(190,563,l),
(50,563,l),
(50,0,l),
(190,0,l),
(190,131,l),
(255,241,l),
(289,221,l)
);
},
{
closed = 1;
nodes = (
(356,-16,l),
(482,29,l),
(328,356,l),
(221,281,l)
);
}
);
};
layerId = "849A9C4C-BF7C-40C5-8614-1FD725A2A379";
shapes = (
{
closed = 1;
nodes = (
(190,0,l),
(190,164,l),
(235,233,l),
(350,-16,l),
(474,25,l),
(329,350,l),
(463,560,l),
(322,560,l),
(190,350,l),
(190,568,l),
(50,551,l),
(50,0,l)
);
}
);
width = 474;
}
);
metricLeft = n;
metricRight = k;
unicode = 312;
},
{
color = 3;
glyphname = l;
kernLeft = h;
kernRight = l;
lastChange = "2023-02-14 12:15:07 +0000";
layers = (
{
anchors = (
{
name = bottom;
pos = (119,0);
},
{
name = center;
pos = (119,281);
},
{
name = top;
pos = (120,750);
},
{
name = topright;
pos = (240,750);
}
);
background = {
anchors = (
{
name = bottom;
pos = (119,0);
},
{
name = center;
pos = (119,281);
},
{
name = top;
pos = (119,753);
},
{
name = topright;
pos = (241,538);
}
);
shapes = (
{
closed = 1;
nodes = (
(190,0,l),
(190,768,l),
(50,751,l),
(50,0,l)
);
}
);
};
layerId = "849A9C4C-BF7C-40C5-8614-1FD725A2A379";
shapes = (
{
closed = 1;
nodes = (
(190,0,l),
(190,760,l),
(50,743,l),
(50,0,l)
);
}
);
width = 240;
}
);
unicode = 108;
},
{
glyphname = ldot;
kernLeft = h;
kernRight = l;
lastChange = "2023-02-09 13:53:37 +0000";
layers = (
{
background = {
shapes = (
{
closed = 1;
nodes = (
(436,234,l),
(436,375,l),
(296,375,l),
(296,234,l)
);
},
{
ref = l;
},
{
pos = (-6,-25);
ref = periodcentered;
}
);
};
layerId = "849A9C4C-BF7C-40C5-8614-1FD725A2A379";
shapes = (
{
ref = l;
},
{
pos = (-6,-17);
ref = periodcentered.loclCAT;
}
);
width = 240;
}
);
unicode = 320;
},
{
color = 4;
glyphname = lslash;
kernLeft = lslash;
kernRight = lslash;
lastChange = "2023-02-13 16:05:44 +0000";
layers = (
{
layerId = "849A9C4C-BF7C-40C5-8614-1FD725A2A379";
shapes = (
{
closed = 1;
nodes = (
(240,0,l),
(240,760,l),
(100,743,l),
(100,0,l)
);
},
{
closed = 1;
nodes = (
(343,454,l),
(324,567,l),
(10,327,l),
(29,214,l)
);
}
);
width = 340;
}
);
unicode = 322;
},
{
color = 4;
glyphname = m;
kernLeft = n;
kernRight = n;
lastChange = "2023-02-09 13:56:47 +0000";
layers = (
{
anchors = (
{
name = bottom;
pos = (370,0);
},
{
name = top;
pos = (370,560);
}
);
background = {
shapes = (
{
closed = 1;
nodes = (
(440,334,l),
(440,401,o),
(469,447,o),
(508,447,cs),
(541,447,o),
(550,424,o),
(550,387,cs),
(550,0,l),
(690,0,l),
(690,410,ls),
(690,503,o),
(664,570,o),
(572,570,cs),
(497,570,o),
(448,513,o),
(427,431,c)
);
},
{
closed = 1;
nodes = (
(440,495,o),
(402,570,o),
(323,570,cs),
(252,570,o),
(205,517,o),
(184,437,c),
(190,323,l),
(190,401,o),
(219,447,o),
(262,447,cs),
(289,447,o),
(300,428,o),
(300,386,cs),
(300,0,l),
(440,0,l),
(440,421,l)
);
},
{
closed = 1;
nodes = (
(184,432,l),
(184,564,l),
(50,547,l),
(50,0,l),
(190,0,l),
(190,390,l)
);
}
);
};
layerId = "849A9C4C-BF7C-40C5-8614-1FD725A2A379";
shapes = (
{
closed = 1;
nodes = (
(190,0,l),
(190,323,ls),
(190,401,o),
(219,447,o),
(262,447,cs),
(289,447,o),
(300,428,o),
(300,386,cs),
(300,0,l),
(440,0,l),
(440,334,ls),
(440,401,o),
(469,447,o),
(508,447,cs),
(541,447,o),
(550,424,o),
(550,387,cs),
(550,0,l),
(690,0,l),
(690,410,ls),
(690,503,o),
(664,570,o),
(572,570,cs),
(506,570,o),
(461,526,o),
(436,461,c),
(425,520,o),
(388,570,o),
(323,570,cs),
(252,570,o),
(205,517,o),
(184,437,c),
(184,564,l),
(50,547,l),
(50,0,l)
);
}
);
width = 735;
}
);
metricLeft = n;
metricRight = n;
unicode = 109;
},
{
color = 3;
glyphname = n;
kernLeft = n;
kernRight = n;
lastChange = "2023-02-13 13:35:56 +0000";
layers = (
{
anchors = (
{
name = bottom;
pos = (257,0);
},
{
name = top;
pos = (257,560);
}
);
background = {
anchors = (
{
name = bottom;
pos = (259,0);
},
{
name = top;
pos = (259,563);
}
);
shapes = (
{
closed = 1;
nodes = (
(184,390,l),
(184,564,l),
(50,547,l),
(50,0,l),
(190,0,l),
(190,390,l)
);
},
{
pos = (190,0);
ref = n_arch;
}
);
};
layerId = "849A9C4C-BF7C-40C5-8614-1FD725A2A379";
shapes = (
{
closed = 1;
nodes = (
(190,0,l),
(190,287,ls),
(190,382,o),
(222,454,o),
(269,454,cs),
(318,454,o),
(324,408,o),
(324,348,cs),
(324,0,l),
(464,0,l),
(464,404,ls),
(464,521,o),
(413,573,o),
(334,573,cs),
(262,573,o),
(205,532,o),
(184,440,c),
(184,564,l),
(50,547,l),
(50,0,l)
);
}
);
width = 509;
}
);
unicode = 110;
},
{
glyphname = napostrophe;
kernLeft = h;
kernRight = n;
lastChange = "2023-02-09 14:03:15 +0000";
layers = (
{
background = {
shapes = (
{
closed = 1;
nodes = (
(92,482,o),
(130,537,o),
(130,601,cs),
(130,750,l),
(-6,750,l),
(-6,599,l),
(61,599,l),
(61,562,o),
(44,536,o),
(13,524,c),
(39,461,l)
);
},
{
pos = (118,0);
ref = n;
}
);
};
layerId = "849A9C4C-BF7C-40C5-8614-1FD725A2A379";
shapes = (
{
pos = (0,150);
ref = apostrophemod;
},
{
ref = n;
}
);
width = 500;
}
);
unicode = 329;
},
{
color = 3;
glyphname = nhookleft;
kernLeft = n;
kernRight = n;
lastChange = "2023-02-09 13:56:47 +0000";
layers = (
{
anchors = (
{
name = top;
pos = (271,560);
}
);
background = {
anchors = (
{
name = bottom;
pos = (271,0);
},
{
name = top;
pos = (271,563);
}
);
shapes = (
{
closed = 1;
nodes = (
(146,-168,o),
(202,-93,o),
(202,5,cs),
(202,390,l),
(196,390,l),
(196,564,l),
(62,547,l),
(62,33,ls),
(62,-25,o),
(51,-52,o),
(10,-52,cs),
(-4,-52,o),
(-14,-50,o),
(-25,-46,c),
(-38,-154,l),
(-7,-164,o),
(21,-168,o),
(51,-168,cs)
);
},
{
pos = (202,0);
ref = n_arch;
}
);
};
layerId = "849A9C4C-BF7C-40C5-8614-1FD725A2A379";
shapes = (
{
closed = 1;
nodes = (
(146,-168,o),
(202,-93,o),
(202,5,cs),
(202,287,ls),
(202,382,o),
(234,454,o),
(281,454,cs),
(330,454,o),
(336,408,o),
(336,348,cs),
(336,0,l),
(476,0,l),
(476,404,ls),
(476,521,o),
(425,573,o),
(346,573,cs),
(274,573,o),
(217,532,o),
(196,440,c),
(196,564,l),
(62,547,l),
(62,33,ls),
(62,-25,o),
(51,-52,o),
(10,-52,cs),
(-4,-52,o),
(-14,-50,o),
(-25,-46,c),
(-38,-154,l),
(-7,-164,o),
(21,-168,o),
(51,-168,cs)
);
}
);
width = 521;
}
);
metricLeft = j;
metricRight = n;
unicode = 626;
},
{
color = 4;
glyphname = eng;
kernLeft = n;
kernRight = n;
lastChange = "2023-02-09 13:56:47 +0000";
layers = (
{
background = {
shapes = (
{
closed = 1;
nodes = (
(190,0,l),
(190,287,ls),
(190,382,o),
(222,454,o),
(269,454,cs),
(318,454,o),
(324,408,o),
(324,348,cs),
(324,0,l),
(464,0,l),
(464,404,ls),
(464,521,o),
(413,573,o),
(334,573,cs),
(262,573,o),
(205,532,o),
(184,440,c),
(184,564,l),
(50,547,l),
(50,0,l)
);
}
);
};
layerId = "849A9C4C-BF7C-40C5-8614-1FD725A2A379";
shapes = (
{
closed = 1;
nodes = (
(262,573,o),
(205,532,o),
(184,440,c),
(184,564,l),
(50,547,l),
(50,0,l),
(190,0,l),
(190,287,ls),
(190,382,o),
(222,454,o),
(269,454,cs),
(318,454,o),
(324,408,o),
(324,347,cs),
(324,33,ls),
(324,-25,o),
(313,-52,o),
(272,-52,cs),
(258,-52,o),
(248,-50,o),
(237,-46,c),
(214,-154,l),
(245,-164,o),
(273,-168,o),
(303,-168,cs),
(406,-168,o),
(464,-96,o),
(464,0,cs),
(464,404,ls),
(464,521,o),
(413,573,o),
(334,573,cs)
);
}
);
width = 509;
}
);
metricLeft = n;
metricRight = n;
unicode = 331;
},
{
color = 3;
glyphname = o;
kernLeft = o;
kernRight = o;
lastChange = "2023-02-13 13:35:41 +0000";
layers = (
{
anchors = (
{
name = bottom;
pos = (242,0);
},
{
name = center;
pos = (243,281);
},
{
name = ogonek;
pos = (316,0);
},
{
name = top;
pos = (242,560);
},
{
name = topright;
pos = (369,484);
}
);
background = {
anchors = (
{
name = bottom;
pos = (242,0);
},
{
name = center;
pos = (243,281);
},
{
name = ogonek;
pos = (420,5);
},
{
name = top;
pos = (242,563);
},
{
name = topright;
pos = (478,563);
}
);
shapes = (
{
closed = 1;
nodes = (
(377,-13,o),
(456,94,o),
(456,279,cs),
(456,456,o),
(377,570,o),
(242,570,cs),
(106,570,o),
(30,454,o),
(30,279,cs),
(30,95,o),
(107,-13,o),
(242,-13,cs)
);
},
{
closed = 1;
nodes = (
(183,90,o),
(173,183,o),
(173,279,cs),
(173,362,o),
(182,467,o),
(242,467,cs),
(302,467,o),
(313,361,o),
(313,279,cs),
(313,183,o),
(302,90,o),
(242,90,cs)
);
}
);
};
layerId = "849A9C4C-BF7C-40C5-8614-1FD725A2A379";
shapes = (
{
closed = 1;
nodes = (
(377,-13,o),
(456,94,o),
(456,279,cs),
(456,456,o),
(377,570,o),
(242,570,cs),
(106,570,o),
(30,454,o),
(30,279,cs),
(30,95,o),
(107,-13,o),
(242,-13,cs)
);
},
{
closed = 1;
nodes = (
(183,90,o),
(173,183,o),
(173,279,cs),
(173,362,o),
(182,467,o),
(242,467,cs),
(302,467,o),
(313,361,o),
(313,279,cs),
(313,183,o),
(302,90,o),
(242,90,cs)
);
}
);
width = 486;
}
);
unicode = 111;
},
{
color = 4;
glyphname = oslash;
kernLeft = o;
kernRight = o;
lastChange = "2023-02-09 13:51:27 +0000";
layers = (
{
anchors = (
{
name = bottom;
pos = (247,0);
},
{
name = center;
pos = (248,281);
},
{
name = ogonek;
pos = (425,5);
},
{
name = top;
pos = (247,560);
},
{
name = topright;
pos = (483,560);
}
);
background = {
shapes = (
{
closed = 1;
nodes = (
(483,517,l),
(421,569,l),
(349,479,l),
(354,475,l),
(95,147,l),
(93,149,l),
(12,47,l),
(75,-5,l),
(155,97,l),
(149,102,l),
(408,428,l),
(411,426,l)
);
},
{
closed = 1;
nodes = (
(385,-13,o),
(461,104,o),
(461,282,cs),
(461,442,o),
(385,570,o),
(247,570,cs),
(107,570,o),
(35,446,o),
(35,282,cs),
(35,108,o),
(112,-13,o),
(247,-13,cs)
);
},
{
closed = 1;
nodes = (
(188,90,o),
(178,183,o),
(178,279,cs),
(178,362,o),
(187,467,o),
(247,467,cs),
(307,467,o),
(318,361,o),
(318,279,cs),
(318,183,o),
(307,90,o),
(247,90,cs)
);
}
);
};
layerId = "849A9C4C-BF7C-40C5-8614-1FD725A2A379";
shapes = (
{
closed = 1;
nodes = (
(385,-13,o),
(461,104,o),
(461,282,cs),
(461,344,o),
(450,401,o),
(428,447,c),
(483,517,l),
(421,569,l),
(380,517,l),
(345,550,o),
(301,570,o),
(247,570,cs),
(107,570,o),
(35,446,o),
(35,282,cs),
(35,218,o),
(45,161,o),
(66,114,c),
(12,47,l),
(75,-5,l),
(112,43,l),
(147,7,o),
(192,-13,o),
(247,-13,cs)
);
},
{
closed = 1;
nodes = (
(178,362,o),
(187,467,o),
(247,467,cs),
(275,467,o),
(293,444,o),
(303,410,c),
(178,252,l),
(178,279,ls)
);
},
{
closed = 1;
nodes = (
(317,314,l),
(318,302,o),
(318,290,o),
(318,279,cs),
(318,183,o),
(307,90,o),
(247,90,cs),
(216,90,o),
(199,115,o),
(189,153,c)
);
}
);
width = 495;
}
);
unicode = 248;
},
{
color = 3;
glyphname = oe;
kernLeft = o;
kernRight = o;
lastChange = "2023-02-09 13:51:27 +0000";
layers = (
{
anchors = (
{
name = bottom;
pos = (372,0);
},
{
name = top;
pos = (372,560);
}
);
background = {
shapes = (
{
closed = 1;
nodes = (
(301,-13,o),
(346,16,o),
(379,57,c),
(415,9,o),
(457,-13,o),
(526,-13,cs),
(612,-13,o),
(687,39,o),
(710,151,c),
(592,177,l),
(585,139,o),
(570,93,o),
(528,93,cs),
(470,93,o),
(451,167,o),
(451,248,c),
(711,248,l),
(713,279,o),
(714,297,o),
(714,334,cs),
(714,414,o),
(690,570,o),
(522,570,cs),
(459,570,o),
(405,536,o),
(382,491,c),
(356,536,o),
(298,570,o),
(235,570,cs),
(103,570,o),
(30,451,o),
(30,280,cs),
(30,108,o),
(103,-13,o),
(237,-13,cs)
);
},
{
closed = 1;
nodes = (
(178,91,o),
(171,191,o),
(171,279,cs),
(171,359,o),
(178,465,o),
(240,465,cs),
(305,465,o),
(311,347,o),
(311,278,cs),
(311,210,o),
(308,91,o),
(240,91,cs)
);
},
{
closed = 1;
nodes = (
(455,405,o),
(479,464,o),
(522,464,cs),
(569,464,o),
(590,412,o),
(587,330,c),
(453,330,l)
);
}
);
};
layerId = "849A9C4C-BF7C-40C5-8614-1FD725A2A379";
shapes = (
{
closed = 1;
nodes = (
(301,-13,o),
(346,16,o),
(379,57,c),
(415,9,o),
(457,-13,o),
(526,-13,cs),
(612,-13,o),
(687,39,o),
(710,151,c),
(592,177,l),
(585,139,o),
(570,93,o),
(528,93,cs),
(470,93,o),
(451,167,o),
(451,248,c),
(711,248,l),
(713,279,o),
(714,297,o),
(714,334,cs),
(714,414,o),
(690,570,o),
(522,570,cs),
(459,570,o),
(405,536,o),
(382,491,c),
(356,536,o),
(298,570,o),
(235,570,cs),
(103,570,o),
(30,451,o),
(30,280,cs),
(30,108,o),
(103,-13,o),
(237,-13,cs)
);
},
{
closed = 1;
nodes = (
(178,91,o),
(171,191,o),
(171,279,cs),
(171,359,o),
(178,465,o),
(240,465,cs),
(305,465,o),
(311,347,o),
(311,278,cs),
(311,210,o),
(308,91,o),
(240,91,cs)
);
},
{
closed = 1;
nodes = (
(455,405,o),
(479,464,o),
(522,464,cs),
(569,464,o),
(590,412,o),
(587,330,c),
(453,330,l)
);
}
);
width = 744;
}
);
metricLeft = o;
metricRight = e;
unicode = 339;
},
{
color = 3;
glyphname = p;
kernLeft = n;
kernRight = o;
lastChange = "2023-02-09 14:00:09 +0000";
layers = (
{
anchors = (
{
name = top;
pos = (241,560);
}
);
background = {
shapes = (
{
closed = 1;
nodes = (
(190,-157,l),
(190,426,l),
(183,426,l),
(183,568,l),
(50,551,l),
(50,-175,l)
);
},
{
closed = 1;
nodes = (
(206,91,o),
(190,153,o),
(190,237,c),
(167,149,l),
(167,69,o),
(201,-13,o),
(296,-13,cs),
(413,-13,o),
(470,115,o),
(470,279,cs),
(470,459,o),
(413,570,o),
(303,570,cs),
(213,570,o),
(167,503,o),
(167,412,c),
(190,322,l),
(190,408,o),
(206,466,o),
(257,466,cs),
(307,466,o),
(327,390,o),
(327,278,cs),
(327,167,o),
(307,91,o),
(254,91,cs)
);
}
);
};
layerId = "849A9C4C-BF7C-40C5-8614-1FD725A2A379";
shapes = (
{
closed = 1;
nodes = (
(190,-157,l),
(190,48,l),
(210,12,o),
(244,-13,o),
(296,-13,cs),
(413,-13,o),
(470,115,o),
(470,279,cs),
(470,459,o),
(413,570,o),
(303,570,cs),
(244,570,o),
(204,541,o),
(183,495,c),
(183,568,l),
(50,551,l),
(50,-175,l)
);
},
{
closed = 1;
nodes = (
(190,322,ls),
(190,408,o),
(206,466,o),
(257,466,cs),
(307,466,o),
(327,390,o),
(327,278,cs),
(327,167,o),
(307,91,o),
(254,91,cs),
(206,91,o),
(190,153,o),
(190,237,cs)
);
}
);
width = 500;
}
);
metricLeft = l;
metricRight = o;
unicode = 112;
},
{
color = 3;
glyphname = thorn;
kernLeft = h;
kernRight = o;
lastChange = "2023-02-09 13:53:37 +0000";
layers = (
{
background = {
shapes = (
{
closed = 1;
nodes = (
(190,-158,l),
(190,759,l),
(50,741,l),
(50,-175,l)
);
},
{
closed = 1;
nodes = (
(206,91,o),
(190,153,o),
(190,237,c),
(167,149,l),
(167,69,o),
(201,-13,o),
(296,-13,cs),
(413,-13,o),
(470,115,o),
(470,279,cs),
(470,459,o),
(413,570,o),
(303,570,cs),
(213,570,o),
(167,503,o),
(167,412,c),
(190,322,l),
(190,408,o),
(206,466,o),
(257,466,cs),
(307,466,o),
(327,390,o),
(327,278,cs),
(327,167,o),
(307,91,o),
(254,91,cs)
);
}
);
};
layerId = "849A9C4C-BF7C-40C5-8614-1FD725A2A379";
shapes = (
{
closed = 1;
nodes = (
(190,-158,l),
(190,48,l),
(210,12,o),
(244,-13,o),
(296,-13,cs),
(413,-13,o),
(470,115,o),
(470,279,cs),
(470,459,o),
(413,570,o),
(303,570,cs),
(250,570,o),
(212,547,o),
(190,509,c),
(190,759,l),
(50,741,l),
(50,-175,l)
);
},
{
closed = 1;
nodes = (
(190,322,ls),
(190,408,o),
(206,466,o),
(257,466,cs),
(307,466,o),
(327,390,o),
(327,278,cs),
(327,167,o),
(307,91,o),
(254,91,cs),
(206,91,o),
(190,153,o),
(190,237,cs)
);
}
);
width = 500;
}
);
metricLeft = h;
metricRight = p;
unicode = 254;
},
{
color = 3;
glyphname = q;
kernLeft = o;
kernRight = u;
lastChange = "2023-02-09 13:57:33 +0000";
layers = (
{
anchors = (
{
name = bottom;
pos = (264,0);
},
{
name = top;
pos = (264,560);
}
);
background = {
shapes = (
{
closed = 1;
nodes = (
(450,563,l),
(320,563,l),
(320,423,l),
(310,423,l),
(310,-175,l),
(450,-158,l)
);
},
{
closed = 1;
nodes = (
(294,466,o),
(310,404,o),
(310,320,c),
(333,408,l),
(333,488,o),
(299,570,o),
(204,570,cs),
(87,570,o),
(30,442,o),
(30,278,cs),
(30,98,o),
(87,-13,o),
(197,-13,cs),
(287,-13,o),
(333,54,o),
(333,145,c),
(310,235,l),
(310,149,o),
(294,91,o),
(243,91,cs),
(193,91,o),
(173,167,o),
(173,279,cs),
(173,390,o),
(193,466,o),
(246,466,cs)
);
}
);
};
layerId = "849A9C4C-BF7C-40C5-8614-1FD725A2A379";
shapes = (
{
closed = 1;
nodes = (
(450,563,l),
(320,563,l),
(320,487,l),
(303,534,o),
(267,570,o),
(204,570,cs),
(87,570,o),
(30,442,o),
(30,278,cs),
(30,98,o),
(87,-13,o),
(197,-13,cs),
(250,-13,o),
(288,10,o),
(310,48,c),
(310,-175,l),
(450,-158,l)
);
},
{
closed = 1;
nodes = (
(173,390,o),
(193,466,o),
(246,466,cs),
(294,466,o),
(310,404,o),
(310,320,cs),
(310,235,ls),
(310,149,o),
(294,91,o),
(243,91,cs),
(193,91,o),
(173,167,o),
(173,279,cs)
);
}
);
width = 500;
}
);
metricLeft = o;
metricRight = l;
unicode = 113;
},
{
color = 3;
glyphname = r;
kernLeft = n;
kernRight = r;
lastChange = "2023-02-14 14:21:02 +0000";
layers = (
{
anchors = (
{
name = bottom;
pos = (120,0);
},
{
name = top;
pos = (212,560);
}
);
background = {
shapes = (
{
closed = 1;
nodes = (
(184,401,l),
(184,563,l),
(50,547,l),
(50,0,l),
(190,0,l),
(190,401,l)
);
},
{
closed = 1;
nodes = (
(190,360,o),
(235,429,o),
(290,429,cs),
(313,429,o),
(325,424,o),
(343,414,c),
(373,551,l),
(354,565,o),
(337,570,o),
(310,570,cs),
(246,570,o),
(189,496,o),
(180,395,c),
(190,271,l)
);
}
);
};
layerId = "849A9C4C-BF7C-40C5-8614-1FD725A2A379";
shapes = (
{
closed = 1;
nodes = (
(190,360,o),
(235,429,o),
(290,429,cs),
(313,429,o),
(325,424,o),
(343,414,c),
(373,551,l),
(354,565,o),
(337,570,o),
(310,570,cs),
(252,570,o),
(200,510,o),
(184,424,c),
(184,563,l),
(50,547,l),
(50,0,l),
(190,0,l),
(190,271,ls)
);
}
);
width = 365;
}
);
metricLeft = n;
unicode = 114;
},
{
color = 3;
glyphname = s;
kernLeft = s;
kernRight = s;
lastChange = "2023-02-13 13:38:35 +0000";
layers = (
{
anchors = (
{
name = bottom;
pos = (214,0);
},
{
name = top;
pos = (214,560);
}
);
background = {
shapes = (
{
closed = 1;
nodes = (
(319,-15,o),
(401,55,o),
(401,155,cs),
(401,222,o),
(371,266,o),
(295,309,cs),
(219,353,ls),
(181,375,o),
(160,386,o),
(160,419,cs),
(160,445,o),
(181,470,o),
(216,470,cs),
(250,470,o),
(273,443,o),
(275,393,c),
(386,417,l),
(380,526,o),
(306,573,o),
(213,573,cs),
(106,573,o),
(30,500,o),
(30,408,cs),
(30,345,o),
(61,297,o),
(126,258,cs),
(207,211,ls),
(250,186,o),
(270,175,o),
(270,138,cs),
(270,108,o),
(248,90,o),
(216,90,cs),
(167,90,o),
(141,125,o),
(137,172,c),
(24,160,l),
(28,41,o),
(104,-15,o),
(217,-15,cs)
);
}
);
};
layerId = "849A9C4C-BF7C-40C5-8614-1FD725A2A379";
shapes = (
{
closed = 1;
nodes = (
(319,-13,o),
(401,52,o),
(401,153,cs),
(401,222,o),
(371,265,o),
(295,309,cs),
(219,353,ls),
(183,374,o),
(163,388,o),
(163,421,cs),
(163,449,o),
(184,470,o),
(214,470,cs),
(250,470,o),
(273,443,o),
(275,393,c),
(390,417,l),
(382,526,o),
(306,573,o),
(213,573,cs),
(102,573,o),
(30,500,o),
(30,408,cs),
(30,345,o),
(60,296,o),
(126,258,cs),
(207,211,ls),
(257,182,o),
(269,169,o),
(269,140,cs),
(269,108,o),
(247,92,o),
(216,92,cs),
(167,92,o),
(141,125,o),
(137,172,c),
(20,160,l),
(28,45,o),
(104,-13,o),
(217,-13,cs)
);
}
);
width = 416;
}
);
unicode = 115;
},
{
color = 3;
glyphname = germandbls;
kernLeft = h;
kernRight = germ;
lastChange = "2023-02-13 13:38:39 +0000";
layers = (
{
background = {
shapes = (
{
pos = (184,0);
ref = s;
}
);
};
layerId = "849A9C4C-BF7C-40C5-8614-1FD725A2A379";
shapes = (
{
closed = 1;
nodes = (
(231,-8,l),
(249,-13,o),
(267,-15,o),
(289,-15,cs),
(425,-15,o),
(505,67,o),
(505,195,cs),
(505,291,o),
(462,348,o),
(386,384,c),
(447,422,o),
(474,489,o),
(474,560,cs),
(474,687,o),
(395,766,o),
(266,766,cs),
(129,766,o),
(50,685,o),
(50,551,cs),
(50,-97,l),
(190,-80,l),
(190,568,ls),
(190,618,o),
(215,651,o),
(263,651,cs),
(309,651,o),
(338,620,o),
(338,552,cs),
(338,489,o),
(309,435,o),
(239,428,c),
(239,336,l),
(333,326,o),
(369,279,o),
(369,205,cs),
(369,145,o),
(344,99,o),
(272,99,cs),
(260,99,o),
(250,100,o),
(236,103,c)
);
}
);
width = 532;
}
);
metricLeft = l;
unicode = 223;
},
{
color = 3;
glyphname = t;
kernLeft = t;
kernRight = t;
lastChange = "2023-02-13 13:41:57 +0000";
layers = (
{
anchors = (
{
name = bottom;
pos = (178,0);
},
{
name = center;
pos = (166,281);
},
{
name = top;
pos = (166,560);
},
{
name = topright;
pos = (268,840);
}
);
background = {
shapes = (
{
closed = 1;
nodes = (
(261,-10,o),
(288,-4,o),
(312,7,c),
(324,109,l),
(309,106,o),
(297,104,o),
(280,104,cs),
(241,104,o),
(218,127,o),
(218,178,cs),
(218,706,l),
(98,691,l),
(77,514,l),
(77,140,ls),
(77,38,o),
(137,-10,o),
(225,-10,cs)
);
},
{
closed = 1;
nodes = (
(315,455,l),
(328,560,l),
(10,560,l),
(10,455,l)
);
}
);
};
layerId = "849A9C4C-BF7C-40C5-8614-1FD725A2A379";
shapes = (
{
closed = 1;
nodes = (
(261,-10,o),
(288,-4,o),
(312,7,c),
(324,109,l),
(309,106,o),
(297,104,o),
(280,104,cs),
(241,104,o),
(218,127,o),
(218,178,cs),
(218,455,l),
(315,455,l),
(328,560,l),
(218,560,l),
(218,706,l),
(98,691,l),
(82,560,l),
(10,560,l),
(10,455,l),
(77,455,l),
(77,140,ls),
(77,38,o),
(137,-10,o),
(225,-10,cs)
);
}
);
width = 345;
}
);
unicode = 116;
},
{
glyphname = tbar;
kernLeft = t;
kernRight = t;
lastChange = "2023-02-09 14:01:27 +0000";
layers = (
{
background = {
shapes = (
{
closed = 1;
nodes = (
(327,274,l),
(339,368,l),
(11,368,l),
(11,274,l)
);
},
{
ref = t;
}
);
};
layerId = "849A9C4C-BF7C-40C5-8614-1FD725A2A379";
shapes = (
{
ref = t;
},
{
pos = (-84,-12);
ref = strokeshortcomb;
}
);
width = 345;
}
);
unicode = 359;
},
{
color = 4;
glyphname = u;
kernLeft = u;
kernRight = u;
lastChange = "2023-02-13 12:36:56 +0000";
layers = (
{
anchors = (
{
name = bottom;
pos = (248,0);
},
{
name = ogonek;
pos = (454,0);
},
{
name = top;
pos = (250,560);
},
{
name = topright;
pos = (454,484);
}
);
background = {
shapes = (
{
closed = 1;
nodes = (
(314,560,l),
(314,136,l),
(317,122,l),
(317,0,l),
(454,0,l),
(454,560,l)
);
},
{
closed = 1;
nodes = (
(314,273,l),
(314,178,o),
(283,106,o),
(238,106,cs),
(191,106,o),
(185,152,o),
(185,212,cs),
(185,560,l),
(45,560,l),
(45,156,ls),
(45,39,o),
(95,-13,o),
(173,-13,cs),
(248,-13,o),
(308,34,o),
(324,142,c)
);
}
);
};
layerId = "849A9C4C-BF7C-40C5-8614-1FD725A2A379";
shapes = (
{
closed = 1;
nodes = (
(314,547,l),
(314,273,ls),
(314,178,o),
(283,106,o),
(238,106,cs),
(191,106,o),
(185,152,o),
(185,212,cs),
(185,564,l),
(45,547,l),
(45,156,ls),
(45,39,o),
(95,-13,o),
(173,-13,cs),
(240,-13,o),
(294,24,o),
(317,108,c),
(317,0,l),
(454,0,l),
(454,564,l)
);
}
);
width = 504;
}
);
metricLeft = "=|n";
metricRight = l;
unicode = 117;
},
{
color = 3;
glyphname = v;
kernLeft = v;
kernRight = v;
lastChange = "2023-02-13 13:44:25 +0000";
layers = (
{
anchors = (
{
name = bottom;
pos = (222,0);
},
{
name = top;
pos = (225,560);
}
);
background = {
anchors = (
{
name = bottom;
pos = (222,0);
},
{
name = top;
pos = (225,563);
}
);
shapes = (
{
closed = 1;
nodes = (
(293,0,l),
(431,563,l),
(310,565,l),
(222,172,l),
(142,569,l),
(10,553,l),
(146,0,l)
);
}
);
};
layerId = "849A9C4C-BF7C-40C5-8614-1FD725A2A379";
shapes = (
{
closed = 1;
nodes = (
(293,0,l),
(431,560,l),
(310,560,l),
(222,172,l),
(142,569,l),
(10,552,l),
(146,0,l)
);
}
);
width = 441;
}
);
unicode = 118;
},
{
color = 3;
glyphname = w;
kernLeft = v;
kernRight = v;
lastChange = "2023-02-09 14:01:44 +0000";
layers = (
{
anchors = (
{
name = bottom;
pos = (322,0);
},
{
name = top;
pos = (328,560);
}
);
background = {
shapes = (
{
closed = 1;
nodes = (
(262,0,l),
(316,330,l),
(323,392,l),
(329,330,l),
(381,0,l),
(515,0,l),
(627,560,l),
(512,560,l),
(449,167,l),
(442,228,l),
(389,560,l),
(266,560,l),
(210,221,l),
(202,160,l),
(145,569,l),
(13,552,l),
(125,0,l)
);
}
);
};
layerId = "849A9C4C-BF7C-40C5-8614-1FD725A2A379";
shapes = (
{
closed = 1;
nodes = (
(262,0,l),
(323,372,l),
(381,0,l),
(515,0,l),
(627,560,l),
(512,560,l),
(450,173,l),
(389,560,l),
(266,560,l),
(201,164,l),
(145,569,l),
(13,552,l),
(125,0,l)
);
}
);
width = 640;
}
);
metricLeft = "=v+3";
metricRight = "=v+3";
unicode = 119;
},
{
color = 3;
glyphname = x;
kernLeft = x;
kernRight = x;
lastChange = "2023-02-13 13:44:31 +0000";
layers = (
{
anchors = (
{
name = bottom;
pos = (213,0);
},
{
name = top;
pos = (213,560);
}
);
background = {
shapes = (
{
closed = 1;
nodes = (
(202,332,l),
(160,332,l),
(10,0,l),
(143,0,l),
(231,235,l),
(275,235,l),
(421,560,l),
(287,560,l)
);
},
{
closed = 1;
nodes = (
(155,232,l),
(193,232,l),
(291,-15,l),
(424,21,l),
(269,348,l),
(230,348,l),
(148,576,l),
(15,540,l)
);
}
);
};
layerId = "849A9C4C-BF7C-40C5-8614-1FD725A2A379";
shapes = (
{
closed = 1;
nodes = (
(219,378,l),
(148,576,l),
(15,540,l),
(135,276,l),
(10,0,l),
(143,0,l),
(212,184,l),
(291,-15,l),
(424,21,l),
(298,287,l),
(421,560,l),
(287,560,l)
);
}
);
width = 434;
}
);
unicode = 120;
},
{
color = 4;
glyphname = y;
kernLeft = y;
kernRight = v;
lastChange = "2023-02-13 13:44:34 +0000";
layers = (
{
anchors = (
{
name = bottom;
pos = (359,49);
},
{
name = top;
pos = (213,560);
}
);
background = {
anchors = (
{
name = bottom;
pos = (1159,49);
},
{
name = top;
pos = (1013,563);
}
);
shapes = (
{
closed = 1;
nodes = (
(145,572,l),
(4,553,l),
(151,35,l),
(151,-13,o),
(117,-51,o),
(68,-51,cs),
(52,-51,o),
(39,-49,o),
(24,-42,c),
(0,-155,l),
(26,-165,o),
(45,-168,o),
(80,-168,cs),
(192,-168,o),
(254,-97,o),
(283,16,cs),
(423,564,l),
(293,566,l),
(232,241,ls),
(227,217,o),
(223,192,o),
(219,166,c),
(215,192,o),
(210,217,o),
(206,240,cs)
);
}
);
};
layerId = "849A9C4C-BF7C-40C5-8614-1FD725A2A379";
shapes = (
{
closed = 1;
nodes = (
(142,569,l),
(10,552,l),
(169,-32,l),
(169,77,l),
(160,8,ls),
(154,-40,o),
(129,-54,o),
(88,-54,cs),
(65,-54,o),
(45,-44,o),
(30,-33,c),
(7,-143,l),
(32,-161,o),
(71,-168,o),
(106,-168,cs),
(198,-168,o),
(260,-124,o),
(288,-11,cs),
(431,560,l),
(310,560,l),
(226,172,l)
);
}
);
width = 441;
}
);
metricRight = v;
unicode = 121;
},
{
color = 4;
glyphname = z;
kernLeft = z;
kernRight = z;
lastChange = "2023-02-13 12:37:11 +0000";
layers = (
{
anchors = (
{
name = bottom;
pos = (188,0);
},
{
name = top;
pos = (203,560);
}
);
background = {
anchors = (
{
name = bottom;
pos = (188,0);
},
{
name = top;
pos = (203,563);
}
);
shapes = (
{
closed = 1;
nodes = (
(369,0,l),
(382,111,l),
(174,111,l),
(375,479,l),
(365,563,l),
(20,563,l),
(20,453,l),
(219,453,l),
(10,88,l),
(21,0,l)
);
}
);
};
layerId = "849A9C4C-BF7C-40C5-8614-1FD725A2A379";
shapes = (
{
closed = 1;
nodes = (
(357,0,l),
(374,110,l),
(160,110,l),
(368,476,l),
(368,560,l),
(31,560,l),
(14,450,l),
(222,450,l),
(13,88,l),
(13,0,l)
);
}
);
width = 392;
}
);
unicode = 122;
},
{
color = 4;
glyphname = g.ss01;
kernLeft = o;
kernRight = u;
lastChange = "2023-02-09 13:57:33 +0000";
layers = (
{
anchors = (
{
name = top;
pos = (255,563);
}
);
background = {
shapes = (
{
closed = 1;
nodes = (
(353,-192,o),
(450,-110,o),
(450,28,c),
(450,553,l),
(320,553,l),
(320,415,l),
(310,415,l),
(310,25,ls),
(310,-39,o),
(277,-74,o),
(209,-74,cs),
(157,-74,o),
(117,-63,o),
(67,-37,c),
(41,-160,l),
(93,-183,o),
(141,-192,o),
(212,-192,cs)
);
},
{
closed = 1;
nodes = (
(294,466,o),
(310,404,o),
(310,320,c),
(333,408,l),
(333,488,o),
(299,570,o),
(204,570,cs),
(87,570,o),
(30,442,o),
(30,278,cs),
(30,98,o),
(87,-13,o),
(197,-13,cs),
(287,-13,o),
(333,54,o),
(333,145,c),
(310,235,l),
(310,149,o),
(294,91,o),
(243,91,cs),
(193,91,o),
(173,167,o),
(173,279,cs),
(173,390,o),
(193,466,o),
(246,466,cs)
);
}
);
};
layerId = "849A9C4C-BF7C-40C5-8614-1FD725A2A379";
shapes = (
{
closed = 1;
nodes = (
(353,-180,o),
(450,-98,o),
(450,40,cs),
(450,553,l),
(320,553,l),
(320,483,l),
(303,537,o),
(267,570,o),
(204,570,cs),
(87,570,o),
(30,451,o),
(30,298,cs),
(30,130,o),
(87,27,o),
(197,27,cs),
(250,27,o),
(288,49,o),
(310,94,c),
(310,37,ls),
(310,-27,o),
(277,-62,o),
(209,-62,cs),
(157,-62,o),
(117,-51,o),
(67,-25,c),
(41,-148,l),
(93,-171,o),
(141,-180,o),
(212,-180,cs)
);
},
{
closed = 1;
nodes = (
(173,398,o),
(193,466,o),
(246,466,cs),
(294,466,o),
(310,411,o),
(310,336,cs),
(310,260,ls),
(310,183,o),
(294,131,o),
(243,131,cs),
(193,131,o),
(173,199,o),
(173,299,cs)
);
}
);
width = 500;
}
);
metricLeft = o;
metricRight = u;
},
{
color = 0;
export = 0;
glyphname = germandbls.001;
kernLeft = straight;
kernRight = small;
lastChange = "2023-02-02 16:23:56 +0000";
layers = (
{
background = {
shapes = (
{
closed = 1;
nodes = (
(202,-80,l),
(202,525,ls),
(202,610,o),
(230,662,o),
(282,662,cs),
(330,662,o),
(355,622,o),
(355,568,cs),
(355,505,o),
(316,465,o),
(251,432,c),
(251,363,o),
(286,304,o),
(340,270,cs),
(364,255,ls),
(398,234,o),
(425,214,o),
(425,172,cs),
(425,126,o),
(394,99,o),
(357,99,cs),
(336,99,o),
(313,104,o),
(286,118,c),
(247,14,l),
(280,-5,o),
(322,-14,o),
(368,-14,cs),
(467,-14,o),
(560,61,o),
(560,171,cs),
(560,244,o),
(523,294,o),
(471,328,cs),
(450,342,ls),
(409,368,o),
(373,391,o),
(373,422,c),
(442,446,o),
(498,510,o),
(498,585,cs),
(498,706,o),
(406,766,o),
(278,766,cs),
(120,766,o),
(62,656,o),
(62,514,cs),
(62,-97,l)
);
}
);
};
layerId = "849A9C4C-BF7C-40C5-8614-1FD725A2A379";
shapes = (
{
closed = 1;
nodes = (
(202,-80,l),
(202,525,ls),
(202,610,o),
(230,662,o),
(282,662,cs),
(330,662,o),
(355,622,o),
(355,568,cs),
(355,505,o),
(316,465,o),
(251,432,c),
(251,363,o),
(286,304,o),
(340,270,cs),
(364,255,ls),
(398,234,o),
(425,214,o),
(425,172,cs),
(425,126,o),
(394,99,o),
(357,99,cs),
(336,99,o),
(313,104,o),
(286,118,c),
(247,14,l),
(280,-5,o),
(322,-14,o),
(368,-14,cs),
(467,-14,o),
(560,61,o),
(560,171,cs),
(560,244,o),
(523,294,o),
(471,328,cs),
(450,342,ls),
(409,368,o),
(373,391,o),
(373,422,c),
(442,446,o),
(498,510,o),
(498,585,cs),
(498,706,o),
(406,766,o),
(278,766,cs),
(120,766,o),
(62,656,o),
(62,514,cs),
(62,-97,l)
);
}
);
width = 571;
}
);
},
{
color = 4;
glyphname = f_f;
kernLeft = f;
kernRight = f;
lastChange = "2023-02-09 14:04:35 +0000";
layers = (
{
anchors = (
{
name = caret_1;
pos = (310,0);
}
);
background = {
shapes = (
{
closed = 1;
nodes = (
(220,0,l),
(220,583,ls),
(220,627,o),
(245,655,o),
(283,655,cs),
(308,655,o),
(327,645,o),
(347,625,c),
(414,708,l),
(383,746,o),
(330,762,o),
(282,762,cs),
(158,762,o),
(80,680,o),
(80,560,cs),
(80,0,l)
);
},
{
closed = 1;
nodes = (
(313,455,l),
(326,560,l),
(15,560,l),
(15,455,l)
);
},
{
closed = 1;
nodes = (
(540,0,l),
(540,583,ls),
(540,627,o),
(565,655,o),
(603,655,cs),
(628,655,o),
(647,645,o),
(667,625,c),
(734,708,l),
(703,746,o),
(650,762,o),
(602,762,cs),
(478,762,o),
(400,680,o),
(400,560,cs),
(400,0,l)
);
},
{
closed = 1;
nodes = (
(633,455,l),
(646,560,l),
(235,560,l),
(235,455,l)
);
}
);
};
layerId = "849A9C4C-BF7C-40C5-8614-1FD725A2A379";
shapes = (
{
closed = 1;
nodes = (
(220,0,l),
(220,455,l),
(400,455,l),
(400,0,l),
(540,0,l),
(540,455,l),
(633,455,l),
(646,560,l),
(540,560,l),
(540,583,ls),
(540,627,o),
(565,655,o),
(603,655,cs),
(628,655,o),
(647,645,o),
(667,625,c),
(734,708,l),
(703,746,o),
(650,762,o),
(602,762,cs),
(478,762,o),
(400,680,o),
(400,560,c),
(220,560,l),
(220,583,ls),
(220,627,o),
(245,655,o),
(283,655,cs),
(308,655,o),
(327,645,o),
(347,625,c),
(414,708,l),
(383,746,o),
(330,762,o),
(282,762,cs),
(158,762,o),
(80,680,o),
(80,560,c),
(15,560,l),
(15,455,l),
(80,455,l),
(80,0,l)
);
}
);
width = 660;
}
);
metricLeft = f;
metricRight = f;
},
{
color = 4;
glyphname = f_f_i;
kernLeft = f;
kernRight = u;
lastChange = "2023-02-09 14:04:43 +0000";
layers = (
{
anchors = (
{
name = caret_1;
pos = (303.333,0);
},
{
name = caret_2;
pos = (630,0);
}
);
background = {
anchors = (
{
name = bottom;
pos = (804,0);
},
{
name = caret_1;
pos = (312,0);
},
{
name = caret_2;
pos = (653,0);
},
{
name = ogonek;
pos = (958,5);
},
{
name = top;
pos = (808,563);
}
);
shapes = (
{
closed = 1;
nodes = (
(555,0,l),
(555,563,l),
(555,603,ls),
(555,662,o),
(568,690,o),
(609,690,cs),
(627,690,o),
(642,687,o),
(655,680,c),
(668,778,l),
(635,793,o),
(600,801,o),
(556,801,cs),
(462,801,o),
(415,729,o),
(415,626,cs),
(415,0,l)
);
},
{
closed = 1;
nodes = (
(877,632,l),
(877,761,l),
(733,761,l),
(733,632,l)
);
},
{
closed = 1;
nodes = (
(875,0,l),
(875,563,l),
(735,563,l),
(735,0,l)
);
},
{
closed = 1;
nodes = (
(33,563,l),
(20,458,l),
(870,458,l),
(870,563,l)
);
},
{
closed = 1;
nodes = (
(233,0,l),
(233,598,ls),
(233,652,o),
(252,680,o),
(294,680,cs),
(321,680,o),
(342,676,o),
(364,669,c),
(384,765,l),
(349,782,o),
(300,791,o),
(256,791,cs),
(140,791,o),
(93,719,o),
(93,616,cs),
(93,0,l)
);
}
);
};
layerId = "849A9C4C-BF7C-40C5-8614-1FD725A2A379";
shapes = (
{
closed = 1;
nodes = (
(220,0,l),
(220,455,l),
(400,455,l),
(400,0,l),
(540,0,l),
(540,455,l),
(720,455,l),
(720,0,l),
(860,0,l),
(860,560,l),
(540,560,l),
(540,583,ls),
(540,627,o),
(565,655,o),
(603,655,cs),
(628,655,o),
(647,645,o),
(667,625,c),
(734,708,l),
(703,746,o),
(650,762,o),
(602,762,cs),
(478,762,o),
(400,680,o),
(400,560,c),
(220,560,l),
(220,583,ls),
(220,627,o),
(245,655,o),
(283,655,cs),
(308,655,o),
(327,645,o),
(347,625,c),
(414,708,l),
(383,746,o),
(330,762,o),
(282,762,cs),
(158,762,o),
(80,680,o),
(80,560,c),
(15,560,l),
(15,455,l),
(80,455,l),
(80,0,l)
);
}
);
width = 910;
}
);
metricRight = u;
},
{
color = 6;
glyphname = f_f_l;
kernLeft = f;
kernRight = l;
lastChange = "2023-02-13 11:23:37 +0000";
layers = (
{
anchors = (
{
name = caret_1;
pos = (303.333,0);
},
{
name = caret_2;
pos = (630,0);
}
);
background = {
shapes = (
{
closed = 1;
nodes = (
(542,0,l),
(542,563,l),
(542,583,ls),
(542,635,o),
(558,663,o),
(600,663,cs),
(632,663,o),
(649,659,o),
(672,652,c),
(672,750,l),
(637,766,o),
(600,776,o),
(546,776,cs),
(449,776,o),
(402,704,o),
(402,601,cs),
(402,0,l)
);
},
{
closed = 1;
nodes = (
(220,0,l),
(220,598,ls),
(220,652,o),
(239,680,o),
(281,680,cs),
(308,680,o),
(329,676,o),
(351,669,c),
(371,765,l),
(336,782,o),
(287,791,o),
(243,791,cs),
(127,791,o),
(80,719,o),
(80,616,cs),
(80,0,l)
);
},
{
closed = 1;
nodes = (
(15,563,l),
(15,458,l),
(636,458,l),
(649,563,l)
);
},
{
pos = (653,0);
ref = l;
}
);
};
layerId = "849A9C4C-BF7C-40C5-8614-1FD725A2A379";
shapes = (
{
ref = f_f;
},
{
pos = (650,0);
ref = l;
}
);
width = 890;
}
);
metricLeft = f;
metricRight = l;
},
{
color = 4;
glyphname = fi;
kernLeft = f;
kernRight = u;
lastChange = "2023-02-09 14:04:43 +0000";
layers = (
{
anchors = (
{
name = caret_1;
pos = (303.333,0);
},
{
name = ogonek_2;
pos = (530,0);
},
{
name = top_1;
pos = (150,750);
}
);
background = {
anchors = (
{
name = bottom;
pos = (461,0);
},
{
name = caret_1;
pos = (281,0);
},
{
name = ogonek;
pos = (615,5);
},
{
name = top;
pos = (465,563);
}
);
shapes = (
{
closed = 1;
nodes = (
(544,632,l),
(544,761,l),
(400,761,l),
(400,632,l)
);
},
{
closed = 1;
nodes = (
(527,458,l),
(527,563,l),
(28,563,l),
(15,458,l)
);
},
{
closed = 1;
nodes = (
(542,0,l),
(542,563,l),
(402,563,l),
(402,0,l)
);
},
{
closed = 1;
nodes = (
(220,0,l),
(220,563,l),
(220,573,ls),
(220,632,o),
(233,662,o),
(274,662,cs),
(292,662,o),
(307,660,o),
(326,655,c),
(333,753,l),
(298,764,o),
(264,771,o),
(221,771,cs),
(127,771,o),
(80,699,o),
(80,596,cs),
(80,0,l)
);
}
);
};
layerId = "849A9C4C-BF7C-40C5-8614-1FD725A2A379";
shapes = (
{
closed = 1;
nodes = (
(220,0,l),
(220,455,l),
(380,455,l),
(380,0,l),
(520,0,l),
(520,560,l),
(220,560,l),
(220,583,ls),
(220,627,o),
(245,655,o),
(283,655,cs),
(308,655,o),
(327,645,o),
(347,625,c),
(414,708,l),
(383,746,o),
(330,762,o),
(282,762,cs),
(158,762,o),
(80,680,o),
(80,560,c),
(15,560,l),
(15,455,l),
(80,455,l),
(80,0,l)
);
}
);
width = 568;
}
);
metricLeft = f;
metricRight = i;
unicode = 64257;
},
{
color = 6;
glyphname = fl;
kernLeft = f;
kernRight = l;
lastChange = "2023-02-13 11:23:37 +0000";
layers = (
{
anchors = (
{
name = caret_1;
pos = (303.333,0);
}
);
background = {
anchors = (
{
name = bottom;
pos = (167,0);
},
{
name = center;
pos = (467,281);
},
{
name = top;
pos = (167,563);
},
{
name = topright;
pos = (589,563);
}
);
shapes = (
{
closed = 1;
nodes = (
(537,0,l),
(537,767,l),
(397,750,l),
(397,0,l)
);
},
{
closed = 1;
nodes = (
(224,0,l),
(224,578,ls),
(224,632,o),
(243,660,o),
(285,660,cs),
(309,660,o),
(328,657,o),
(350,650,c),
(350,750,l),
(312,765,o),
(278,771,o),
(236,771,cs),
(114,771,o),
(84,678,o),
(84,596,cs),
(84,0,l)
);
},
{
closed = 1;
nodes = (
(313,458,l),
(326,563,l),
(15,563,l),
(15,458,l)
);
}
);
};
layerId = "849A9C4C-BF7C-40C5-8614-1FD725A2A379";
shapes = (
{
ref = f;
},
{
pos = (330,0);
ref = l;
}
);
width = 570;
}
);
metricLeft = f;
metricRight = l;
unicode = 64258;
},
{
color = 0;
export = 0;
glyphname = d_bowl;
lastChange = "2023-02-02 16:23:56 +0000";
layers = (
{
background = {
shapes = (
{
closed = 1;
nodes = (
(345,-13,o),
(424,94,o),
(424,279,cs),
(424,456,o),
(345,570,o),
(210,570,cs),
(74,570,o),
(-2,454,o),
(-2,279,cs),
(-2,95,o),
(75,-13,o),
(210,-13,cs)
);
},
{
closed = 1;
nodes = (
(151,90,o),
(141,183,o),
(141,279,cs),
(141,362,o),
(150,467,o),
(210,467,cs),
(270,467,o),
(281,361,o),
(281,279,cs),
(281,183,o),
(270,90,o),
(210,90,cs)
);
}
);
};
layerId = "849A9C4C-BF7C-40C5-8614-1FD725A2A379";
shapes = (
{
closed = 1;
nodes = (
(262,466,o),
(278,404,o),
(278,320,c),
(301,408,l),
(301,488,o),
(267,570,o),
(172,570,cs),
(55,570,o),
(-2,442,o),
(-2,278,cs),
(-2,98,o),
(55,-13,o),
(165,-13,cs),
(255,-13,o),
(301,54,o),
(301,145,c),
(278,235,l),
(278,149,o),
(262,91,o),
(211,91,cs),
(161,91,o),
(141,167,o),
(141,279,cs),
(141,390,o),
(161,466,o),
(214,466,cs)
);
}
);
width = 278;
}
);
},
{
color = 0;
export = 0;
glyphname = n_arch;
lastChange = "2023-02-02 16:23:56 +0000";
layers = (
{
background = {
shapes = (
{
closed = 1;
nodes = (
(0,287,l),
(0,382,o),
(32,454,o),
(79,454,cs),
(128,454,o),
(134,408,o),
(134,348,cs),
(134,0,l),
(274,0,l),
(274,404,ls),
(274,521,o),
(223,573,o),
(144,573,cs),
(67,573,o),
(6,526,o),
(-10,418,c)
);
}
);
};
layerId = "849A9C4C-BF7C-40C5-8614-1FD725A2A379";
shapes = (
{
closed = 1;
nodes = (
(0,287,l),
(0,382,o),
(32,454,o),
(79,454,cs),
(128,454,o),
(134,408,o),
(134,348,cs),
(134,0,l),
(274,0,l),
(274,404,ls),
(274,521,o),
(223,573,o),
(144,573,cs),
(67,573,o),
(6,526,o),
(-10,418,c)
);
}
);
width = 274;
}
);
},
{
glyphname = ordfeminine;
kernLeft = ord;
kernRight = ord;
lastChange = "2023-02-09 14:04:55 +0000";
layers = (
{
background = {
anchors = (
{
name = bottom;
pos = (187.464,332);
},
{
name = ogonek;
pos = (386.454,328.996);
},
{
name = top;
pos = (194.222,754.762);
}
);
shapes = (
{
closed = 1;
nodes = (
(114,600,o),
(23,561,o),
(23,448,cs),
(23,372,o),
(65,324,o),
(131.145,324.491,cs),
(184,325,o),
(222,356,o),
(230,403,c),
(218,453,l),
(218.251,429.618,o),
(199,407,o),
(173,407,cs),
(148,407,o),
(130,425,o),
(130,463,cs),
(130,507,o),
(164,540,o),
(218,540,c),
(218,600,l)
);
},
{
closed = 1;
nodes = (
(225.009,372.549,o),
(228.013,353.025,o),
(235.522,332,c),
(346,332,l),
(334,366,o),
(331,395,o),
(331,436,cs),
(331,606,ls),
(331,706,o),
(287,768,o),
(185,768,cs),
(94,768,o),
(45,717,o),
(38,643,c),
(144,625,l),
(146,655,o),
(154,682,o),
(181,682,cs),
(212,682,o),
(218.251,649.634,o),
(218.251,617.345,cs),
(218.251,396.578,l),
(225.009,396.578,l)
);
}
);
};
layerId = "849A9C4C-BF7C-40C5-8614-1FD725A2A379";
shapes = (
{
closed = 1;
nodes = (
(114,600,o),
(23,561,o),
(23,448,cs),
(23,372,o),
(65,324,o),
(131,324,cs),
(184,324,o),
(222,356,o),
(230,403,c),
(218,453,l),
(218,430,o),
(199,407,o),
(173,407,cs),
(148,407,o),
(130,425,o),
(130,463,cs),
(130,507,o),
(164,540,o),
(218,540,c),
(218,600,l)
);
},
{
closed = 1;
nodes = (
(225,373,o),
(228,353,o),
(236,332,c),
(346,332,l),
(334,366,o),
(331,395,o),
(331,436,cs),
(331,606,ls),
(331,706,o),
(287,768,o),
(185,768,cs),
(94,768,o),
(45,717,o),
(38,643,c),
(144,625,l),
(146,655,o),
(154,682,o),
(181,682,cs),
(212,682,o),
(218,650,o),
(218,617,cs),
(218,397,l),
(225,397,l)
);
}
);
width = 378;
}
);
unicode = 170;
},
{
color = 4;
glyphname = ordmasculine;
kernLeft = ord;
kernRight = ord;
lastChange = "2023-02-09 14:04:55 +0000";
layers = (
{
background = {
anchors = (
{
name = bottom;
pos = (203,331);
},
{
name = center;
pos = (207,544);
},
{
name = ogonek;
pos = (339,335);
},
{
name = top;
pos = (207,759);
},
{
name = topright;
pos = (382,759);
}
);
shapes = (
{
closed = 1;
nodes = (
(314,325,o),
(384,407,o),
(384,547,cs),
(384,679,o),
(314,766,o),
(206,766,cs),
(98,766,o),
(30,677,o),
(30,547,cs),
(30,408,o),
(98,325,o),
(206,325,cs)
);
},
{
closed = 1;
nodes = (
(164,407,o),
(148,465,o),
(148,545,cs),
(148,615,o),
(164,679,o),
(206,679,cs),
(251,679,o),
(267,615,o),
(267,545,cs),
(267,465,o),
(251,407,o),
(206,407,cs)
);
}
);
};
layerId = "849A9C4C-BF7C-40C5-8614-1FD725A2A379";
shapes = (
{
closed = 1;
nodes = (
(318,325,o),
(384,406,o),
(384,546,cs),
(384,680,o),
(318,766,o),
(206,766,cs),
(93,766,o),
(30,678,o),
(30,546,cs),
(30,407,o),
(94,325,o),
(206,325,cs)
);
},
{
closed = 1;
nodes = (
(157,416,o),
(149,480,o),
(149,546,cs),
(149,603,o),
(156,675,o),
(206,675,cs),
(256,675,o),
(265,602,o),
(265,546,cs),
(265,480,o),
(256,416,o),
(206,416,cs)
);
}
);
width = 414;
}
);
unicode = 186;
},
{
color = 4;
glyphname = Delta;
lastChange = "2023-02-08 12:36:06 +0000";
layers = (
{
background = {
shapes = (
{
closed = 1;
nodes = (
(262,644,l),
(387,0,l),
(518,0,l),
(366,762,l),
(153,736,l),
(15,0,l),
(146,0,l)
);
},
{
closed = 1;
nodes = (
(128,0,l),
(425,0,l),
(425,122,l),
(128,122,l)
);
}
);
};
layerId = "849A9C4C-BF7C-40C5-8614-1FD725A2A379";
shapes = (
{
closed = 1;
nodes = (
(518,0,l),
(366,762,l),
(153,736,l),
(15,0,l)
);
},
{
closed = 1;
nodes = (
(262,644,l),
(363,122,l),
(168,122,l)
);
}
);
width = 533;
}
);
metricLeft = A;
metricRight = A;
unicode = 916;
},
{
glyphname = Omega;
lastChange = "2023-02-02 16:23:56 +0000";
layers = (
{
background = {
shapes = (
{
closed = 1;
nodes = (
(494,225,o),
(536,338,o),
(536,465,cs),
(536,622,o),
(460,764,o),
(292,764,cs),
(125,764,o),
(48,622,o),
(48,465,cs),
(48,338,o),
(91,226,o),
(150,120,c),
(40,120,l),
(55,0,l),
(249,0,l),
(260,92,l),
(212,225,o),
(203,346,o),
(203,444,cs),
(203,542,o),
(214,641,o),
(292,641,cs),
(371,641,o),
(381,542,o),
(381,444,cs),
(381,346,o),
(373,223,o),
(324,91,c),
(335,0,l),
(529,0,l),
(544,120,l),
(435,120,l)
);
}
);
};
layerId = "849A9C4C-BF7C-40C5-8614-1FD725A2A379";
shapes = (
{
closed = 1;
nodes = (
(494,225,o),
(536,338,o),
(536,465,cs),
(536,622,o),
(460,764,o),
(292,764,cs),
(125,764,o),
(48,622,o),
(48,465,cs),
(48,338,o),
(91,226,o),
(150,120,c),
(40,120,l),
(55,0,l),
(249,0,l),
(260,92,l),
(212,225,o),
(203,346,o),
(203,444,cs),
(203,542,o),
(214,641,o),
(292,641,cs),
(371,641,o),
(381,542,o),
(381,444,cs),
(381,346,o),
(373,223,o),
(324,91,c),
(335,0,l),
(529,0,l),
(544,120,l),
(435,120,l)
);
}
);
width = 584;
}
);
unicode = 937;
},
{
color = 4;
glyphname = mu;
lastChange = "2023-02-08 12:38:11 +0000";
layers = (
{
background = {
shapes = (
{
closed = 1;
nodes = (
(319,547,l),
(319,273,ls),
(319,178,o),
(288,106,o),
(243,106,cs),
(196,106,o),
(190,152,o),
(190,212,cs),
(190,564,l),
(50,547,l),
(50,156,ls),
(50,39,o),
(100,-13,o),
(178,-13,cs),
(245,-13,o),
(299,24,o),
(322,108,c),
(322,0,l),
(459,0,l),
(459,564,l)
);
}
);
};
layerId = "849A9C4C-BF7C-40C5-8614-1FD725A2A379";
shapes = (
{
closed = 1;
nodes = (
(190,-164,l),
(190,19,l),
(204,-1,o),
(225,-5,o),
(241,-5,cs),
(285,-5,o),
(310,31,o),
(322,68,c),
(322,0,l),
(459,0,l),
(459,564,l),
(319,547,l),
(319,273,ls),
(319,178,o),
(288,106,o),
(243,106,cs),
(196,106,o),
(190,149,o),
(190,212,cs),
(190,564,l),
(50,547,l),
(50,-181,l)
);
}
);
width = 509;
}
);
metricLeft = n;
metricRight = u;
unicode = 956;
},
{
color = 4;
glyphname = pi;
lastChange = "2023-02-08 12:39:52 +0000";
layers = (
{
background = {
shapes = (
{
closed = 1;
nodes = (
(42,445,l),
(552,445,l),
(566,563,l),
(42,563,l)
);
},
{
closed = 1;
nodes = (
(523,-9,o),
(537,-7,o),
(562,1,c),
(574,97,l),
(565,94,o),
(554,92,o),
(543,92,cs),
(504,92,o),
(479,115,o),
(479,163,cs),
(479,514,l),
(345,514,l),
(345,152,ls),
(345,45,o),
(410,-9,o),
(489,-9,cs)
);
},
{
closed = 1;
nodes = (
(243,0,l),
(243,515,l),
(107,515,l),
(107,0,l)
);
}
);
};
layerId = "849A9C4C-BF7C-40C5-8614-1FD725A2A379";
shapes = (
{
closed = 1;
nodes = (
(42,442,l),
(107,442,l),
(107,0,l),
(243,0,l),
(243,442,l),
(345,442,l),
(345,152,ls),
(345,45,o),
(410,-9,o),
(489,-9,cs),
(523,-9,o),
(537,-7,o),
(562,1,c),
(574,97,l),
(565,94,o),
(554,92,o),
(543,92,cs),
(504,92,o),
(479,115,o),
(479,163,cs),
(479,442,l),
(552,442,l),
(566,560,l),
(42,560,l)
);
}
);
width = 600;
}
);
unicode = 960;
},
{
glyphname = zero;
kernLeft = zero;
kernRight = zero;
lastChange = "2023-02-14 11:49:33 +0000";
layers = (
{
anchors = (
{
name = center;
pos = (272,383);
}
);
background = {
anchors = (
{
name = center;
pos = (272,383);
}
);
shapes = (
{
closed = 1;
nodes = (
(461,-14,o),
(500,193,o),
(500,375,cs),
(500,562,o),
(461,764,o),
(270,764,cs),
(79,764,o),
(40,561,o),
(40,375,cs),
(40,192,o),
(79,-14,o),
(270,-14,cs)
);
},
{
closed = 1;
nodes = (
(202,102,o),
(188,216,o),
(188,375,cs),
(188,530,o),
(202,648,o),
(270,648,cs),
(338,648,o),
(352,531,o),
(352,375,cs),
(352,217,o),
(338,102,o),
(270,102,cs)
);
}
);
};
layerId = "849A9C4C-BF7C-40C5-8614-1FD725A2A379";
shapes = (
{
closed = 1;
nodes = (
(461,-14,o),
(500,193,o),
(500,375,cs),
(500,562,o),
(461,764,o),
(270,764,cs),
(79,764,o),
(40,561,o),
(40,375,cs),
(40,192,o),
(79,-14,o),
(270,-14,cs)
);
},
{
closed = 1;
nodes = (
(202,102,o),
(188,216,o),
(188,375,cs),
(188,530,o),
(202,648,o),
(270,648,cs),
(338,648,o),
(352,531,o),
(352,375,cs),
(352,217,o),
(338,102,o),
(270,102,cs)
);
}
);
width = 540;
}
);
unicode = 48;
},
{
glyphname = one;
kernLeft = one;
kernRight = H;
lastChange = "2023-02-14 11:55:51 +0000";
layers = (
{
background = {
shapes = (
{
closed = 1;
nodes = (
(284,0,l),
(284,749,l),
(213,758,l),
(164,705,o),
(114,683,o),
(20,668,c),
(44,556,l),
(83,558,o),
(114,563,o),
(147,574,c),
(147,0,l)
);
}
);
};
layerId = "849A9C4C-BF7C-40C5-8614-1FD725A2A379";
shapes = (
{
closed = 1;
nodes = (
(284,0,l),
(284,749,l),
(213,758,l),
(164,705,o),
(114,683,o),
(20,668,c),
(44,556,l),
(83,558,o),
(114,563,o),
(147,574,c),
(147,0,l)
);
}
);
width = 344;
}
);
unicode = 49;
},
{
glyphname = two;
kernLeft = two;
kernRight = two;
lastChange = "2023-02-14 11:49:41 +0000";
layers = (
{
background = {
shapes = (
{
closed = 1;
nodes = (
(457,0,l),
(472,118,l),
(207,118,l),
(353,238,o),
(453,373,o),
(453,531,cs),
(453,666,o),
(386,764,o),
(250,764,cs),
(103,764,o),
(40,666,o),
(40,512,c),
(162,486,l),
(162,580,o),
(181,644,o),
(236,644,cs),
(291,644,o),
(306,581,o),
(306,515,cs),
(306,373,o),
(188,225,o),
(50,108,c),
(64,0,l)
);
}
);
};
layerId = "849A9C4C-BF7C-40C5-8614-1FD725A2A379";
shapes = (
{
closed = 1;
nodes = (
(457,0,l),
(472,118,l),
(207,118,l),
(353,238,o),
(453,373,o),
(453,531,cs),
(453,666,o),
(386,764,o),
(250,764,cs),
(103,764,o),
(40,666,o),
(40,512,c),
(162,486,l),
(162,580,o),
(181,644,o),
(236,644,cs),
(291,644,o),
(306,581,o),
(306,515,cs),
(306,373,o),
(188,225,o),
(50,108,c),
(64,0,l)
);
}
);
width = 492;
}
);
unicode = 50;
},
{
color = 4;
glyphname = three;
kernLeft = Three;
kernRight = B;
lastChange = "2023-02-15 14:41:21 +0000";
layers = (
{
background = {
shapes = (
{
closed = 1;
nodes = (
(386,-14,o),
(468,86,o),
(468,207,cs),
(468,304,o),
(410,376,o),
(290,395,c),
(288,368,l),
(412,387,o),
(458,463,o),
(458,555,cs),
(458,696,o),
(367,764,o),
(249,764,cs),
(128,764,o),
(54,692,o),
(44,558,c),
(162,531,l),
(166,598,o),
(192,647,o),
(243,647,cs),
(288,647,o),
(318,611,o),
(318,551,cs),
(318,467,o),
(270,419,o),
(184,419,c),
(184,331,l),
(266,330,o),
(331,292,o),
(331,210,cs),
(331,155,o),
(310,104,o),
(243,104,cs),
(188,104,o),
(158,152,o),
(156,217,c),
(37,192,l),
(40,63,o),
(127,-14,o),
(245,-14,cs)
);
}
);
};
layerId = "849A9C4C-BF7C-40C5-8614-1FD725A2A379";
shapes = (
{
closed = 1;
nodes = (
(386,-14,o),
(468,86,o),
(468,207,cs),
(468,304,o),
(410,376,o),
(288,395,c),
(288,368,l),
(412,387,o),
(458,463,o),
(458,555,cs),
(458,696,o),
(367,764,o),
(249,764,cs),
(128,764,o),
(54,692,o),
(44,558,c),
(162,531,l),
(166,598,o),
(192,647,o),
(243,647,cs),
(288,647,o),
(318,611,o),
(318,551,cs),
(318,467,o),
(270,419,o),
(184,419,c),
(184,331,l),
(266,330,o),
(331,292,o),
(331,210,cs),
(331,155,o),
(310,104,o),
(243,104,cs),
(188,104,o),
(158,152,o),
(156,217,c),
(37,192,l),
(40,63,o),
(127,-14,o),
(245,-14,cs)
);
}
);
width = 492;
}
);
unicode = 51;
},
{
glyphname = four;
kernLeft = four;
kernRight = four;
lastChange = "2023-02-14 11:39:25 +0000";
layers = (
{
background = {
shapes = (
{
closed = 1;
nodes = (
(419,0,l),
(419,163,l),
(501,163,l),
(513,275,l),
(418,275,l),
(418,750,l),
(279,750,l),
(213,599,o),
(124,424,o),
(20,252,c),
(34,163,l),
(282,163,l),
(282,0,l)
);
},
{
closed = 1;
nodes = (
(193,375,o),
(246,481,o),
(284,574,c),
(284,275,l),
(133,275,l)
);
}
);
};
layerId = "849A9C4C-BF7C-40C5-8614-1FD725A2A379";
shapes = (
{
closed = 1;
nodes = (
(419,0,l),
(419,163,l),
(501,163,l),
(513,275,l),
(418,275,l),
(418,750,l),
(279,750,l),
(213,599,o),
(124,424,o),
(20,252,c),
(34,163,l),
(282,163,l),
(282,0,l)
);
},
{
closed = 1;
nodes = (
(193,375,o),
(246,481,o),
(284,574,c),
(284,275,l),
(133,275,l)
);
}
);
width = 513;
}
);
unicode = 52;
},
{
glyphname = five;
kernLeft = five;
kernRight = five;
lastChange = "2023-02-14 11:28:39 +0000";
layers = (
{
background = {
shapes = (
{
closed = 1;
nodes = (
(405,-14,o),
(487,99,o),
(487,257,cs),
(487,393,o),
(411,489,o),
(302,489,cs),
(246,489,o),
(207,466,o),
(186,439,c),
(201,623,l),
(443,623,l),
(458,750,l),
(98,750,l),
(65,350,l),
(177,326,l),
(195,354,o),
(222,378,o),
(259,378,cs),
(322,378,o),
(345,316,o),
(345,246,cs),
(345,175,o),
(323,103,o),
(256,103,cs),
(204,103,o),
(172,154,o),
(171,216,c),
(50,190,l),
(56,52,o),
(149,-14,o),
(264,-14,cs)
);
}
);
};
layerId = "849A9C4C-BF7C-40C5-8614-1FD725A2A379";
shapes = (
{
closed = 1;
nodes = (
(405,-14,o),
(487,99,o),
(487,257,cs),
(487,393,o),
(411,489,o),
(302,489,cs),
(246,489,o),
(207,466,o),
(186,439,c),
(201,623,l),
(443,623,l),
(458,750,l),
(98,750,l),
(65,350,l),
(177,326,l),
(195,354,o),
(222,378,o),
(259,378,cs),
(322,378,o),
(345,316,o),
(345,246,cs),
(345,175,o),
(323,103,o),
(256,103,cs),
(204,103,o),
(172,154,o),
(171,216,c),
(50,190,l),
(56,52,o),
(149,-14,o),
(264,-14,cs)
);
}
);
width = 517;
}
);
unicode = 53;
},
{
glyphname = six;
kernLeft = zero;
kernRight = six;
lastChange = "2023-02-14 10:55:19 +0000";
layers = (
{
background = {
shapes = (
{
closed = 1;
nodes = (
(412,-14,o),
(493,101,o),
(493,245,cs),
(493,387,o),
(424,474,o),
(300,474,cs),
(250,474,o),
(206,446,o),
(179,401,c),
(179,534,o),
(201,649,o),
(275,649,cs),
(328,649,o),
(348,595,o),
(358,533,c),
(480,560,l),
(463,689,o),
(401,764,o),
(275,764,cs),
(99,764,o),
(40,602,o),
(40,369,cs),
(40,135,o),
(99,-14,o),
(278,-14,cs)
);
},
{
closed = 1;
nodes = (
(206,101,o),
(185,159,o),
(185,245,cs),
(185,313,o),
(212,366,o),
(270,366,cs),
(328,366,o),
(351,313,o),
(351,245,cs),
(351,159,o),
(327,101,o),
(277,101,cs)
);
}
);
};
layerId = "849A9C4C-BF7C-40C5-8614-1FD725A2A379";
shapes = (
{
closed = 1;
nodes = (
(412,-14,o),
(493,101,o),
(493,245,cs),
(493,387,o),
(424,474,o),
(300,474,cs),
(250,474,o),
(206,446,o),
(179,401,c),
(179,534,o),
(201,649,o),
(275,649,cs),
(328,649,o),
(348,595,o),
(358,533,c),
(480,560,l),
(463,689,o),
(401,764,o),
(275,764,cs),
(99,764,o),
(40,602,o),
(40,369,cs),
(40,135,o),
(99,-14,o),
(278,-14,cs)
);
},
{
closed = 1;
nodes = (
(206,101,o),
(185,159,o),
(185,245,cs),
(185,313,o),
(212,366,o),
(270,366,cs),
(328,366,o),
(351,313,o),
(351,245,cs),
(351,159,o),
(327,101,o),
(277,101,cs)
);
}
);
width = 528;
}
);
unicode = 54;
},
{
glyphname = seven;
kernLeft = seven;
kernRight = seven;
lastChange = "2023-02-14 11:56:00 +0000";
layers = (
{
background = {
shapes = (
{
closed = 1;
nodes = (
(268,0,l),
(269,260,o),
(324,466,o),
(453,648,c),
(431,750,l),
(20,750,l),
(20,634,l),
(323,634,l),
(205,466,o),
(126,271,o),
(119,0,c)
);
}
);
};
layerId = "849A9C4C-BF7C-40C5-8614-1FD725A2A379";
shapes = (
{
closed = 1;
nodes = (
(268,0,l),
(269,260,o),
(324,466,o),
(453,648,c),
(431,750,l),
(20,750,l),
(20,634,l),
(323,634,l),
(205,466,o),
(126,271,o),
(119,0,c)
);
}
);
width = 468;
}
);
unicode = 55;
},
{
color = 4;
glyphname = eight;
kernLeft = eight;
kernRight = eight;
lastChange = "2023-02-14 11:06:48 +0000";
layers = (
{
background = {
shapes = (
{
closed = 1;
nodes = (
(404,-14,o),
(501,75,o),
(501,196,cs),
(501,301,o),
(447,363,o),
(355,411,c),
(345,384,l),
(427,427,o),
(479,488,o),
(479,573,cs),
(479,689,o),
(392,764,o),
(276,764,cs),
(157,764,o),
(58,683,o),
(58,564,cs),
(58,475,o),
(99,409,o),
(180,369,c),
(190,397,l),
(109,359,o),
(39,292,o),
(39,203,cs),
(39,52,o),
(149,-14,o),
(267,-14,cs)
);
},
{
closed = 1;
nodes = (
(212,104,o),
(178,148,o),
(178,200,cs),
(178,261,o),
(211,306,o),
(264,340,c),
(224,340,l),
(306,307,o),
(358,261,o),
(358,196,cs),
(358,149,o),
(327,104,o),
(273,104,cs)
);
},
{
closed = 1;
nodes = (
(311,435,l),
(235,469,o),
(195,506,o),
(195,564,cs),
(195,616,o),
(230,650,o),
(275,650,cs),
(324,650,o),
(356,616,o),
(356,563,cs),
(356,516,o),
(336,479,o),
(273,435,c)
);
}
);
};
layerId = "849A9C4C-BF7C-40C5-8614-1FD725A2A379";
shapes = (
{
closed = 1;
nodes = (
(404,-14,o),
(501,75,o),
(501,196,cs),
(501,301,o),
(447,363,o),
(355,411,c),
(345,384,l),
(427,427,o),
(479,488,o),
(479,573,cs),
(479,689,o),
(392,764,o),
(276,764,cs),
(157,764,o),
(58,683,o),
(58,564,cs),
(58,475,o),
(99,409,o),
(180,369,c),
(190,397,l),
(109,359,o),
(39,292,o),
(39,203,cs),
(39,52,o),
(149,-14,o),
(267,-14,cs)
);
},
{
closed = 1;
nodes = (
(212,104,o),
(178,148,o),
(178,200,cs),
(178,261,o),
(211,306,o),
(264,340,c),
(224,340,l),
(306,307,o),
(358,261,o),
(358,196,cs),
(358,149,o),
(327,104,o),
(273,104,cs)
);
},
{
closed = 1;
nodes = (
(311,435,l),
(235,469,o),
(195,506,o),
(195,564,cs),
(195,616,o),
(230,650,o),
(275,650,cs),
(324,650,o),
(356,616,o),
(356,563,cs),
(356,516,o),
(336,479,o),
(273,435,c)
);
}
);
width = 539;
}
);
unicode = 56;
},
{
glyphname = nine;
kernLeft = nine;
kernRight = zero;
lastChange = "2023-02-14 11:27:17 +0000";
layers = (
{
background = {
shapes = (
{
closed = 1;
nodes = (
(108,765,o),
(35,658,o),
(35,507,cs),
(35,375,o),
(104,277,o),
(227,277,cs),
(286,277,o),
(330,300,o),
(356,346,c),
(356,238,o),
(347,103,o),
(261,103,cs),
(201,103,o),
(177,153,o),
(168,211,c),
(44,185,l),
(62,63,o),
(135,-13,o),
(253,-13,cs),
(451,-13,o),
(491,171,o),
(491,389,cs),
(491,637,o),
(421,765,o),
(254,765,cs)
);
},
{
closed = 1;
nodes = (
(320,650,o),
(345,588,o),
(345,515,cs),
(345,431,o),
(314,380,o),
(262,380,cs),
(204,380,o),
(176,431,o),
(176,515,cs),
(176,589,o),
(199,650,o),
(259,650,cs)
);
}
);
};
layerId = "849A9C4C-BF7C-40C5-8614-1FD725A2A379";
shapes = (
{
closed = 1;
nodes = (
(108,765,o),
(35,658,o),
(35,507,cs),
(35,375,o),
(104,277,o),
(227,277,cs),
(286,277,o),
(330,300,o),
(356,346,c),
(356,238,o),
(347,103,o),
(261,103,cs),
(201,103,o),
(177,153,o),
(168,211,c),
(44,185,l),
(62,63,o),
(135,-13,o),
(253,-13,cs),
(451,-13,o),
(491,171,o),
(491,389,cs),
(491,637,o),
(421,765,o),
(254,765,cs)
);
},
{
closed = 1;
nodes = (
(320,650,o),
(345,588,o),
(345,515,cs),
(345,431,o),
(314,380,o),
(262,380,cs),
(204,380,o),
(176,431,o),
(176,515,cs),
(176,589,o),
(199,650,o),
(259,650,cs)
);
}
);
width = 531;
}
);
unicode = 57;
},
{
glyphname = zero.zero;
kernLeft = zero;
kernRight = zero;
lastChange = "2023-02-10 11:49:50 +0000";
layers = (
{
anchors = (
{
name = center;
pos = (273,383);
}
);
background = {
shapes = (
{
closed = 1;
nodes = (
(188,136,l),
(203,151,l),
(417,611,l),
(436,627,l),
(359,630,l),
(340,605,l),
(125,144,l),
(101,121,l)
);
},
{
closed = 1;
nodes = (
(461,-14,o),
(500,193,o),
(500,375,cs),
(500,562,o),
(461,764,o),
(270,764,cs),
(79,764,o),
(40,561,o),
(40,375,cs),
(40,192,o),
(79,-14,o),
(270,-14,cs)
);
},
{
closed = 1;
nodes = (
(197,102,o),
(182,216,o),
(182,375,cs),
(182,530,o),
(197,648,o),
(270,648,cs),
(343,648,o),
(358,531,o),
(358,375,cs),
(358,217,o),
(343,102,o),
(270,102,cs)
);
}
);
};
layerId = "849A9C4C-BF7C-40C5-8614-1FD725A2A379";
shapes = (
{
closed = 1;
nodes = (
(461,-14,o),
(500,193,o),
(500,375,cs),
(500,562,o),
(461,764,o),
(270,764,cs),
(79,764,o),
(40,561,o),
(40,375,cs),
(40,192,o),
(79,-14,o),
(270,-14,cs)
);
},
{
closed = 1;
nodes = (
(182,530,o),
(197,648,o),
(270,648,cs),
(300,648,o),
(321,628,o),
(334,593,c),
(185,273,l),
(183,304,o),
(182,338,o),
(182,375,cs)
);
},
{
closed = 1;
nodes = (
(355,478,l),
(357,446,o),
(358,412,o),
(358,375,cs),
(358,217,o),
(343,102,o),
(270,102,cs),
(239,102,o),
(219,122,o),
(206,157,c)
);
}
);
width = 540;
}
);
metricLeft = zero;
metricRight = zero;
},
{
glyphname = zero.osf;
kernLeft = o;
kernRight = o;
lastChange = "2023-02-14 11:39:36 +0000";
layers = (
{
background = {
shapes = (
{
closed = 1;
nodes = (
(391,-13,o),
(462,105,o),
(462,281,cs),
(462,449,o),
(391,570,o),
(245,570,cs),
(97,570,o),
(30,447,o),
(30,281,cs),
(30,106,o),
(98,-13,o),
(245,-13,cs)
);
},
{
closed = 1;
nodes = (
(183,88,o),
(166,171,o),
(166,278,cs),
(166,376,o),
(182,463,o),
(245,463,cs),
(308,463,o),
(326,375,o),
(326,278,cs),
(326,171,o),
(308,88,o),
(245,88,cs)
);
}
);
};
layerId = "849A9C4C-BF7C-40C5-8614-1FD725A2A379";
shapes = (
{
closed = 1;
nodes = (
(391,-13,o),
(462,105,o),
(462,281,cs),
(462,449,o),
(391,570,o),
(245,570,cs),
(97,570,o),
(30,447,o),
(30,281,cs),
(30,106,o),
(98,-13,o),
(245,-13,cs)
);
},
{
closed = 1;
nodes = (
(183,88,o),
(166,171,o),
(166,278,cs),
(166,376,o),
(182,463,o),
(245,463,cs),
(308,463,o),
(326,375,o),
(326,278,cs),
(326,171,o),
(308,88,o),
(245,88,cs)
);
}
);
width = 492;
}
);
metricLeft = o;
metricRight = o;
},
{
glyphname = one.osf;
kernRight = u;
lastChange = "2023-02-14 11:50:06 +0000";
layers = (
{
background = {
shapes = (
{
closed = 1;
nodes = (
(288,0,l),
(288,563,l),
(216,572,l),
(173,529,o),
(111,500,o),
(30,491,c),
(53,381,l),
(91,382,o),
(123,388,o),
(154,399,c),
(154,0,l)
);
}
);
};
layerId = "849A9C4C-BF7C-40C5-8614-1FD725A2A379";
shapes = (
{
closed = 1;
nodes = (
(288,0,l),
(288,563,l),
(216,572,l),
(173,529,o),
(111,500,o),
(30,491,c),
(53,381,l),
(91,382,o),
(123,388,o),
(154,399,c),
(154,0,l)
);
}
);
width = 348;
}
);
},
{
glyphname = two.osf;
lastChange = "2023-02-14 11:50:08 +0000";
layers = (
{
background = {
shapes = (
{
closed = 1;
nodes = (
(440,0,l),
(455,118,l),
(239,118,l),
(347,184,o),
(432,274,o),
(432,391,cs),
(432,506,o),
(363,572,o),
(247,572,cs),
(123,572,o),
(53,488,o),
(50,373,c),
(166,349,l),
(168,400,o),
(182,462,o),
(234,462,cs),
(276,462,o),
(298,433,o),
(298,384,cs),
(298,284,o),
(174,165,o),
(59,86,c),
(68,0,l)
);
}
);
};
layerId = "849A9C4C-BF7C-40C5-8614-1FD725A2A379";
shapes = (
{
closed = 1;
nodes = (
(440,0,l),
(455,118,l),
(239,118,l),
(347,184,o),
(432,274,o),
(432,391,cs),
(432,506,o),
(363,572,o),
(247,572,cs),
(123,572,o),
(53,488,o),
(50,373,c),
(166,349,l),
(168,400,o),
(182,462,o),
(234,462,cs),
(276,462,o),
(298,433,o),
(298,384,cs),
(298,284,o),
(174,165,o),
(59,86,c),
(68,0,l)
);
}
);
width = 482;
}
);
},
{
color = 4;
glyphname = three.osf;
lastChange = "2023-02-14 11:50:11 +0000";
layers = (
{
background = {
shapes = (
{
closed = 1;
nodes = (
(50,2,l),
(63,-111,o),
(138,-174,o),
(249,-174,cs),
(376,-174,o),
(466,-80,o),
(466,41,cs),
(466,147,o),
(409,218,o),
(293,227,c),
(288,198,l),
(407,229,o),
(452,295,o),
(452,377,cs),
(452,494,o),
(387,572,o),
(253,572,cs),
(140,572,o),
(61,503,o),
(56,387,c),
(174,363,l),
(177,424,o),
(200,463,o),
(245,463,cs),
(292,463,o),
(313,428,o),
(313,377,cs),
(313,313,o),
(266,248,o),
(190,248,c),
(190,166,l),
(280,165,o),
(327,121,o),
(327,38,cs),
(327,-16,o),
(301,-64,o),
(253,-64,cs),
(198,-64,o),
(173,-28,o),
(168,28,c)
);
}
);
};
layerId = "849A9C4C-BF7C-40C5-8614-1FD725A2A379";
shapes = (
{
closed = 1;
nodes = (
(50,2,l),
(63,-111,o),
(138,-174,o),
(249,-174,cs),
(376,-174,o),
(466,-80,o),
(466,41,cs),
(466,147,o),
(409,218,o),
(293,227,c),
(288,198,l),
(407,229,o),
(452,295,o),
(452,377,cs),
(452,494,o),
(387,572,o),
(253,572,cs),
(140,572,o),
(61,503,o),
(56,387,c),
(174,363,l),
(177,424,o),
(200,463,o),
(245,463,cs),
(292,463,o),
(313,428,o),
(313,377,cs),
(313,313,o),
(266,248,o),
(190,248,c),
(190,166,l),
(280,165,o),
(327,121,o),
(327,38,cs),
(327,-16,o),
(301,-64,o),
(253,-64,cs),
(198,-64,o),
(173,-28,o),
(168,28,c)
);
}
);
width = 506;
}
);
},
{
glyphname = four.osf;
lastChange = "2023-02-14 11:50:19 +0000";
layers = (
{
background = {
shapes = (
{
closed = 1;
nodes = (
(310,243,l),
(310,106,l),
(183,106,l),
(265,234,o),
(339,395,o),
(346,564,c),
(214,564,l),
(201,383,o),
(133,238,o),
(40,84,c),
(50,0,l),
(310,0,l),
(310,-173,l),
(445,-157,l),
(445,0,l),
(517,0,l),
(527,106,l),
(444,106,l),
(444,260,l)
);
}
);
};
layerId = "849A9C4C-BF7C-40C5-8614-1FD725A2A379";
shapes = (
{
closed = 1;
nodes = (
(310,243,l),
(310,106,l),
(183,106,l),
(265,234,o),
(339,395,o),
(346,560,c),
(214,560,l),
(201,383,o),
(133,238,o),
(40,84,c),
(50,0,l),
(310,0,l),
(310,-173,l),
(445,-157,l),
(445,0,l),
(517,0,l),
(527,106,l),
(444,106,l),
(444,260,l)
);
}
);
width = 527;
}
);
},
{
glyphname = five.osf;
lastChange = "2023-02-14 11:39:59 +0000";
layers = (
{
background = {
shapes = (
{
closed = 1;
nodes = (
(374,-175,o),
(475,-86,o),
(475,80,cs),
(475,219,o),
(406,307,o),
(293,307,cs),
(243,307,o),
(209,290,o),
(181,260,c),
(195,441,l),
(425,441,l),
(440,563,l),
(91,563,l),
(61,177,l),
(175,144,l),
(188,179,o),
(217,205,o),
(255,205,cs),
(322,205,o),
(344,137,o),
(344,68,cs),
(344,-14,o),
(310,-66,o),
(256,-66,cs),
(202,-66,o),
(175,-34,o),
(167,26,c),
(50,1,l),
(61,-117,o),
(145,-175,o),
(251,-175,cs)
);
}
);
};
layerId = "849A9C4C-BF7C-40C5-8614-1FD725A2A379";
shapes = (
{
closed = 1;
nodes = (
(374,-175,o),
(475,-86,o),
(475,80,cs),
(475,219,o),
(406,307,o),
(293,307,cs),
(243,307,o),
(209,290,o),
(181,260,c),
(195,438,l),
(425,438,l),
(440,560,l),
(91,560,l),
(61,177,l),
(175,144,l),
(188,179,o),
(217,205,o),
(255,205,cs),
(322,205,o),
(344,137,o),
(344,68,cs),
(344,-14,o),
(310,-66,o),
(256,-66,cs),
(202,-66,o),
(175,-34,o),
(167,26,c),
(50,1,l),
(61,-117,o),
(145,-175,o),
(251,-175,cs)
);
}
);
width = 505;
}
);
},
{
glyphname = six.osf;
kernLeft = zero;
kernRight = six;
lastChange = "2023-02-13 22:18:23 +0000";
layers = (
{
background = {
shapes = (
{
closed = 1;
nodes = (
(415,-14,o),
(496,95,o),
(496,235,cs),
(496,381,o),
(416,455,o),
(305,455,cs),
(246,455,o),
(205,423,o),
(181,378,c),
(187,511,o),
(206,624,o),
(285,624,cs),
(338,624,o),
(361,591,o),
(368,528,c),
(484,557,l),
(461,681,o),
(399,734,o),
(298,734,cs),
(119,734,o),
(50,553,o),
(50,342,cs),
(50,106,o),
(125,-14,o),
(280,-14,cs)
);
},
{
closed = 1;
nodes = (
(226,96,o),
(192,153,o),
(192,241,cs),
(192,300,o),
(226,363,o),
(280,363,cs),
(338,363,o),
(361,301,o),
(361,230,cs),
(361,153,o),
(334,96,o),
(282,96,cs)
);
}
);
};
layerId = "849A9C4C-BF7C-40C5-8614-1FD725A2A379";
shapes = (
{
closed = 1;
nodes = (
(415,-14,o),
(496,95,o),
(496,235,cs),
(496,381,o),
(416,455,o),
(305,455,cs),
(246,455,o),
(205,423,o),
(181,378,c),
(187,511,o),
(206,624,o),
(285,624,cs),
(338,624,o),
(361,591,o),
(368,528,c),
(484,557,l),
(461,681,o),
(399,734,o),
(298,734,cs),
(119,734,o),
(50,553,o),
(50,342,cs),
(50,106,o),
(125,-14,o),
(280,-14,cs)
);
},
{
closed = 1;
nodes = (
(226,96,o),
(192,153,o),
(192,241,cs),
(192,300,o),
(226,363,o),
(280,363,cs),
(338,363,o),
(361,301,o),
(361,230,cs),
(361,153,o),
(334,96,o),
(282,96,cs)
);
}
);
width = 526;
}
);
},
{
glyphname = seven.osf;
lastChange = "2023-02-14 11:56:25 +0000";
layers = (
{
background = {
shapes = (
{
closed = 1;
nodes = (
(90,-159,l),
(226,-188,l),
(436,492,l),
(421,563,l),
(30,563,l),
(30,441,l),
(302,441,l)
);
}
);
};
layerId = "849A9C4C-BF7C-40C5-8614-1FD725A2A379";
shapes = (
{
closed = 1;
nodes = (
(90,-162,l),
(226,-191,l),
(436,489,l),
(421,560,l),
(30,560,l),
(30,438,l),
(302,438,l)
);
}
);
width = 456;
}
);
},
{
color = 4;
glyphname = eight.osf;
kernLeft = eight;
kernRight = eight;
lastChange = "2023-02-13 22:17:26 +0000";
layers = (
{
background = {
shapes = (
{
closed = 1;
nodes = (
(389,-13,o),
(478,72,o),
(478,192,cs),
(478,283,o),
(424,341,o),
(343,395,c),
(333,366,l),
(405,411,o),
(462,465,o),
(462,545,cs),
(462,660,o),
(379,733,o),
(265,733,cs),
(154,733,o),
(57,654,o),
(57,541,cs),
(57,451,o),
(100,398,o),
(176,351,c),
(186,382,l),
(103,340,o),
(39,276,o),
(39,186,cs),
(39,57,o),
(145,-13,o),
(251,-13,cs)
);
},
{
closed = 1;
nodes = (
(206,98,o),
(171,139,o),
(171,197,cs),
(171,242,o),
(199,284,o),
(247,327,c),
(216,327,l),
(292,294,o),
(345,248,o),
(345,188,cs),
(345,138,o),
(314,98,o),
(264,98,cs)
);
},
{
closed = 1;
nodes = (
(300,418,l),
(231,451,o),
(189,482,o),
(189,541,cs),
(189,591,o),
(223,624,o),
(267,624,cs),
(315,624,o),
(344,591,o),
(344,540,cs),
(344,495,o),
(311,450,o),
(260,418,c)
);
}
);
};
layerId = "849A9C4C-BF7C-40C5-8614-1FD725A2A379";
shapes = (
{
closed = 1;
nodes = (
(389,-13,o),
(478,72,o),
(478,192,cs),
(478,283,o),
(424,341,o),
(343,395,c),
(333,366,l),
(405,411,o),
(462,465,o),
(462,545,cs),
(462,660,o),
(379,733,o),
(265,733,cs),
(154,733,o),
(57,654,o),
(57,541,cs),
(57,451,o),
(100,398,o),
(176,351,c),
(186,382,l),
(103,340,o),
(39,276,o),
(39,186,cs),
(39,57,o),
(145,-13,o),
(251,-13,cs)
);
},
{
closed = 1;
nodes = (
(206,98,o),
(171,139,o),
(171,197,cs),
(171,242,o),
(199,284,o),
(247,327,c),
(216,327,l),
(292,294,o),
(345,248,o),
(345,188,cs),
(345,138,o),
(314,98,o),
(264,98,cs)
);
},
{
closed = 1;
nodes = (
(300,418,l),
(231,451,o),
(189,482,o),
(189,541,cs),
(189,591,o),
(223,624,o),
(267,624,cs),
(315,624,o),
(344,591,o),
(344,540,cs),
(344,495,o),
(311,450,o),
(260,418,c)
);
}
);
width = 516;
}
);
metricLeft = eight;
metricRight = eight;
},
{
glyphname = nine.osf;
lastChange = "2023-02-14 11:40:05 +0000";
layers = (
{
background = {
shapes = (
{
closed = 1;
nodes = (
(40,2,l),
(60,-101,o),
(126,-175,o),
(238,-175,cs),
(421,-175,o),
(472,5,o),
(472,207,cs),
(472,418,o),
(431,573,o),
(249,573,cs),
(107,573,o),
(30,457,o),
(30,317,cs),
(30,182,o),
(98,85,o),
(211,85,cs),
(269,85,o),
(324,116,o),
(344,160,c),
(344,65,o),
(333,-65,o),
(248,-65,cs),
(193,-65,o),
(170,-23,o),
(158,27,c)
);
},
{
closed = 1;
nodes = (
(318,463,o),
(333,377,o),
(333,292,cs),
(333,229,o),
(296,188,o),
(248,188,cs),
(192,188,o),
(165,246,o),
(165,317,cs),
(165,389,o),
(188,463,o),
(250,463,cs)
);
}
);
};
layerId = "849A9C4C-BF7C-40C5-8614-1FD725A2A379";
shapes = (
{
closed = 1;
nodes = (
(40,2,l),
(60,-101,o),
(126,-175,o),
(238,-175,cs),
(421,-175,o),
(472,5,o),
(472,207,cs),
(472,418,o),
(431,573,o),
(249,573,cs),
(107,573,o),
(30,457,o),
(30,317,cs),
(30,182,o),
(98,85,o),
(211,85,cs),
(269,85,o),
(324,116,o),
(344,160,c),
(344,65,o),
(333,-65,o),
(248,-65,cs),
(193,-65,o),
(170,-23,o),
(158,27,c)
);
},
{
closed = 1;
nodes = (
(318,463,o),
(333,377,o),
(333,292,cs),
(333,229,o),
(296,188,o),
(248,188,cs),
(192,188,o),
(165,246,o),
(165,317,cs),
(165,389,o),
(188,463,o),
(250,463,cs)
);
}
);
width = 522;
}
);
metricLeft = "=|six.osf";
metricRight = "=|six.osf";
},
{
glyphname = zero.tf;
lastChange = "2023-02-08 14:33:46 +0000";
layers = (
{
anchors = (
{
name = center;
pos = (272,383);
}
);
background = {
shapes = (
{
ref = zero;
}
);
};
layerId = "849A9C4C-BF7C-40C5-8614-1FD725A2A379";
shapes = (
{
closed = 1;
nodes = (
(461,-14,o),
(500,193,o),
(500,375,cs),
(500,562,o),
(461,764,o),
(270,764,cs),
(79,764,o),
(40,561,o),
(40,375,cs),
(40,192,o),
(79,-14,o),
(270,-14,cs)
);
},
{
closed = 1;
nodes = (
(202,102,o),
(188,216,o),
(188,375,cs),
(188,530,o),
(202,648,o),
(270,648,cs),
(338,648,o),
(352,531,o),
(352,375,cs),
(352,217,o),
(338,102,o),
(270,102,cs)
);
}
);
width = 540;
}
);
},
{
glyphname = one.tf;
lastChange = "2023-02-08 14:33:44 +0000";
layers = (
{
background = {
shapes = (
{
closed = 1;
nodes = (
(366,0,l),
(366,749,l),
(295,758,l),
(241,700,o),
(171,674,o),
(74,660,c),
(96,552,l),
(149,553,o),
(189,561,o),
(229,574,c),
(229,0,l)
);
},
{
closed = 1;
nodes = (
(94,0,l),
(485,0,l),
(500,118,l),
(96,118,l)
);
}
);
};
layerId = "849A9C4C-BF7C-40C5-8614-1FD725A2A379";
shapes = (
{
closed = 1;
nodes = (
(485,0,l),
(500,118,l),
(366,118,l),
(366,749,l),
(295,758,l),
(241,700,o),
(171,674,o),
(74,660,c),
(96,552,l),
(149,553,o),
(189,561,o),
(229,574,c),
(229,118,l),
(96,118,l),
(94,0,l)
);
}
);
width = 540;
}
);
},
{
glyphname = two.tf;
lastChange = "2023-02-08 14:33:42 +0000";
layers = (
{
background = {
shapes = (
{
pos = (28,0);
ref = two;
}
);
};
layerId = "849A9C4C-BF7C-40C5-8614-1FD725A2A379";
shapes = (
{
closed = 1;
nodes = (
(475,0,l),
(490,118,l),
(225,118,l),
(371,238,o),
(471,373,o),
(471,531,cs),
(471,666,o),
(404,764,o),
(268,764,cs),
(121,764,o),
(58,666,o),
(58,512,c),
(180,486,l),
(180,580,o),
(199,644,o),
(254,644,cs),
(309,644,o),
(324,581,o),
(324,515,cs),
(324,373,o),
(206,225,o),
(68,108,c),
(82,0,l)
);
}
);
width = 540;
}
);
},
{
color = 4;
glyphname = three.tf;
lastChange = "2023-02-15 14:41:29 +0000";
layers = (
{
background = {
shapes = (
{
pos = (46,0);
ref = three;
}
);
};
layerId = "849A9C4C-BF7C-40C5-8614-1FD725A2A379";
shapes = (
{
closed = 1;
nodes = (
(405,-14,o),
(487,86,o),
(487,207,cs),
(487,304,o),
(429,376,o),
(309,395,c),
(309,368,l),
(431,387,o),
(477,463,o),
(477,555,cs),
(477,696,o),
(386,764,o),
(268,764,cs),
(147,764,o),
(73,692,o),
(63,558,c),
(181,531,l),
(185,598,o),
(211,647,o),
(262,647,cs),
(307,647,o),
(337,611,o),
(337,551,cs),
(337,467,o),
(289,419,o),
(203,419,c),
(203,331,l),
(285,330,o),
(350,292,o),
(350,210,cs),
(350,155,o),
(329,104,o),
(262,104,cs),
(207,104,o),
(177,152,o),
(175,217,c),
(56,192,l),
(59,63,o),
(146,-14,o),
(264,-14,cs)
);
}
);
width = 540;
}
);
},
{
glyphname = four.tf;
lastChange = "2023-02-08 14:33:38 +0000";
layers = (
{
background = {
shapes = (
{
pos = (14,0);
ref = four;
}
);
};
layerId = "849A9C4C-BF7C-40C5-8614-1FD725A2A379";
shapes = (
{
closed = 1;
nodes = (
(423,0,l),
(423,163,l),
(505,163,l),
(517,275,l),
(422,275,l),
(422,750,l),
(283,750,l),
(217,599,o),
(128,424,o),
(24,252,c),
(38,163,l),
(286,163,l),
(286,0,l)
);
},
{
closed = 1;
nodes = (
(197,375,o),
(250,481,o),
(288,574,c),
(288,275,l),
(137,275,l)
);
}
);
width = 540;
}
);
},
{
glyphname = five.tf;
lastChange = "2023-02-08 14:33:36 +0000";
layers = (
{
background = {
shapes = (
{
pos = (31,0);
ref = five;
}
);
};
layerId = "849A9C4C-BF7C-40C5-8614-1FD725A2A379";
shapes = (
{
closed = 1;
nodes = (
(416,-14,o),
(498,99,o),
(498,257,cs),
(498,393,o),
(422,489,o),
(313,489,cs),
(257,489,o),
(218,466,o),
(197,439,c),
(212,623,l),
(454,623,l),
(469,750,l),
(109,750,l),
(76,350,l),
(188,326,l),
(206,354,o),
(233,378,o),
(270,378,cs),
(333,378,o),
(356,316,o),
(356,246,cs),
(356,175,o),
(334,103,o),
(267,103,cs),
(215,103,o),
(183,154,o),
(182,216,c),
(61,190,l),
(67,52,o),
(160,-14,o),
(275,-14,cs)
);
}
);
width = 540;
}
);
},
{
glyphname = six.tf;
lastChange = "2023-02-08 14:33:28 +0000";
layers = (
{
background = {
shapes = (
{
pos = (19,0);
ref = six;
}
);
};
layerId = "849A9C4C-BF7C-40C5-8614-1FD725A2A379";
shapes = (
{
closed = 1;
nodes = (
(426,-14,o),
(507,101,o),
(507,245,cs),
(507,387,o),
(438,474,o),
(314,474,cs),
(264,474,o),
(220,446,o),
(193,401,c),
(193,534,o),
(215,649,o),
(289,649,cs),
(342,649,o),
(362,595,o),
(372,533,c),
(494,560,l),
(477,689,o),
(415,764,o),
(289,764,cs),
(113,764,o),
(54,602,o),
(54,369,cs),
(54,135,o),
(113,-14,o),
(292,-14,cs)
);
},
{
closed = 1;
nodes = (
(220,101,o),
(199,159,o),
(199,245,cs),
(199,313,o),
(226,366,o),
(284,366,cs),
(342,366,o),
(365,313,o),
(365,245,cs),
(365,159,o),
(341,101,o),
(291,101,cs)
);
}
);
width = 540;
}
);
},
{
glyphname = seven.tf;
lastChange = "2023-02-08 14:32:41 +0000";
layers = (
{
background = {
shapes = (
{
pos = (40,0);
ref = seven;
}
);
};
layerId = "849A9C4C-BF7C-40C5-8614-1FD725A2A379";
shapes = (
{
closed = 1;
nodes = (
(298,0,l),
(299,260,o),
(354,466,o),
(483,648,c),
(461,750,l),
(50,750,l),
(50,634,l),
(353,634,l),
(235,466,o),
(156,271,o),
(149,0,c)
);
}
);
width = 540;
}
);
},
{
color = 4;
glyphname = eight.tf;
lastChange = "2023-02-08 14:33:03 +0000";
layers = (
{
background = {
shapes = (
{
pos = (4,0);
ref = eight;
}
);
};
layerId = "849A9C4C-BF7C-40C5-8614-1FD725A2A379";
shapes = (
{
closed = 1;
nodes = (
(404,-14,o),
(501,75,o),
(501,196,cs),
(501,301,o),
(447,363,o),
(355,411,c),
(345,384,l),
(427,427,o),
(479,488,o),
(479,573,cs),
(479,689,o),
(392,764,o),
(276,764,cs),
(157,764,o),
(58,683,o),
(58,564,cs),
(58,475,o),
(99,409,o),
(180,369,c),
(190,397,l),
(109,359,o),
(39,292,o),
(39,203,cs),
(39,52,o),
(149,-14,o),
(267,-14,cs)
);
},
{
closed = 1;
nodes = (
(212,104,o),
(178,148,o),
(178,200,cs),
(178,261,o),
(211,306,o),
(264,340,c),
(224,340,l),
(306,307,o),
(358,261,o),
(358,196,cs),
(358,149,o),
(327,104,o),
(273,104,cs)
);
},
{
closed = 1;
nodes = (
(311,435,l),
(235,469,o),
(195,506,o),
(195,564,cs),
(195,616,o),
(230,650,o),
(275,650,cs),
(324,650,o),
(356,616,o),
(356,563,cs),
(356,516,o),
(336,479,o),
(273,435,c)
);
}
);
width = 540;
}
);
},
{
glyphname = nine.tf;
lastChange = "2023-02-08 14:33:32 +0000";
layers = (
{
background = {
shapes = (
{
pos = (7,0);
ref = nine;
}
);
};
layerId = "849A9C4C-BF7C-40C5-8614-1FD725A2A379";
shapes = (
{
closed = 1;
nodes = (
(115,765,o),
(42,658,o),
(42,507,cs),
(42,375,o),
(111,277,o),
(234,277,cs),
(293,277,o),
(337,300,o),
(363,346,c),
(363,238,o),
(354,103,o),
(268,103,cs),
(208,103,o),
(184,153,o),
(175,211,c),
(51,185,l),
(69,63,o),
(142,-13,o),
(260,-13,cs),
(458,-13,o),
(498,171,o),
(498,389,cs),
(498,637,o),
(428,765,o),
(261,765,cs)
);
},
{
closed = 1;
nodes = (
(327,650,o),
(352,588,o),
(352,515,cs),
(352,431,o),
(321,380,o),
(269,380,cs),
(211,380,o),
(183,431,o),
(183,515,cs),
(183,589,o),
(206,650,o),
(266,650,cs)
);
}
);
width = 540;
}
);
},
{
glyphname = fraction;
lastChange = "2023-02-02 16:23:56 +0000";
layers = (
{
background = {
shapes = (
{
closed = 1;
nodes = (
(0,3,l),
(80,-28,l),
(399,743,l),
(320,776,l)
);
}
);
};
layerId = "849A9C4C-BF7C-40C5-8614-1FD725A2A379";
shapes = (
{
closed = 1;
nodes = (
(0,3,l),
(80,-28,l),
(399,743,l),
(320,776,l)
);
}
);
width = 399;
}
);
unicode = 8260;
},
{
glyphname = onesuperior;
lastChange = "2023-02-02 16:23:56 +0000";
layers = (
{
background = {
shapes = (
{
closed = 1;
nodes = (
(142,283,l),
(257,283,l),
(257,750,l),
(193,758,l),
(152,715,o),
(102,690,o),
(27,681,c),
(45,590,l),
(81,591,o),
(109,596,o),
(142,608,c)
);
}
);
};
layerId = "849A9C4C-BF7C-40C5-8614-1FD725A2A379";
shapes = (
{
closed = 1;
nodes = (
(142,283,l),
(257,283,l),
(257,750,l),
(193,758,l),
(152,715,o),
(102,690,o),
(27,681,c),
(45,590,l),
(81,591,o),
(109,596,o),
(142,608,c)
);
}
);
width = 362;
}
);
unicode = 185;
},
{
glyphname = twosuperior;
lastChange = "2023-02-02 16:23:56 +0000";
layers = (
{
background = {
shapes = (
{
closed = 1;
nodes = (
(65,283,l),
(344,283,l),
(355,377,l),
(195,377,l),
(279,429,o),
(352,514,o),
(352,609,cs),
(352,704,o),
(297,767,o),
(205,767,cs),
(105,767,o),
(49,701,o),
(44,608,c),
(141,587,l),
(143,633,o),
(158,672,o),
(191,672,cs),
(223,672,o),
(234,643,o),
(234,608,cs),
(234,523,o),
(160,434,o),
(55,354,c)
);
}
);
};
layerId = "849A9C4C-BF7C-40C5-8614-1FD725A2A379";
shapes = (
{
closed = 1;
nodes = (
(65,283,l),
(344,283,l),
(355,377,l),
(195,377,l),
(279,429,o),
(352,514,o),
(352,609,cs),
(352,704,o),
(297,767,o),
(205,767,cs),
(105,767,o),
(49,701,o),
(44,608,c),
(141,587,l),
(143,633,o),
(158,672,o),
(191,672,cs),
(223,672,o),
(234,643,o),
(234,608,cs),
(234,523,o),
(160,434,o),
(55,354,c)
);
}
);
width = 413;
}
);
unicode = 178;
},
{
glyphname = threesuperior;
lastChange = "2023-02-02 16:23:56 +0000";
layers = (
{
background = {
shapes = (
{
closed = 1;
nodes = (
(297,269,o),
(357,331,o),
(357,412,cs),
(357,470,o),
(333,500,o),
(290,520,c),
(328,542,o),
(349,583,o),
(349,631,cs),
(349,716,o),
(286,767,o),
(199,767,cs),
(122,767,o),
(62,717,o),
(56,635,c),
(152,614,l),
(155,651,o),
(168,676,o),
(198,676,cs),
(224,676,o),
(242,661,o),
(242,625,cs),
(242,582,o),
(210,556,o),
(153,556,c),
(153,479,l),
(212,479,o),
(252,467,o),
(252,414,cs),
(252,380,o),
(230,360,o),
(200,360,cs),
(165,360,o),
(146,385,o),
(143,425,c),
(49,403,l),
(56,315,o),
(119,269,o),
(200,269,cs)
);
}
);
};
layerId = "849A9C4C-BF7C-40C5-8614-1FD725A2A379";
shapes = (
{
closed = 1;
nodes = (
(297,269,o),
(357,331,o),
(357,412,cs),
(357,470,o),
(333,500,o),
(290,520,c),
(328,542,o),
(349,583,o),
(349,631,cs),
(349,716,o),
(286,767,o),
(199,767,cs),
(122,767,o),
(62,717,o),
(56,635,c),
(152,614,l),
(155,651,o),
(168,676,o),
(198,676,cs),
(224,676,o),
(242,661,o),
(242,625,cs),
(242,582,o),
(210,556,o),
(153,556,c),
(153,479,l),
(212,479,o),
(252,467,o),
(252,414,cs),
(252,380,o),
(230,360,o),
(200,360,cs),
(165,360,o),
(146,385,o),
(143,425,c),
(49,403,l),
(56,315,o),
(119,269,o),
(200,269,cs)
);
}
);
width = 423;
}
);
unicode = 179;
},
{
glyphname = foursuperior;
lastChange = "2023-02-02 16:23:56 +0000";
layers = (
{
background = {
shapes = (
{
closed = 1;
nodes = (
(220,467,l),
(220,658,l),
(190,594,o),
(156,525,o),
(116,467,c)
);
},
{
closed = 1;
nodes = (
(219,382,l),
(42,382,l),
(33,453,l),
(101,555,o),
(155,655,o),
(206,756,c),
(322,756,l),
(322,467,l),
(386,467,l),
(375,382,l),
(322,382,l),
(322,283,l),
(219,283,l)
);
}
);
};
layerId = "849A9C4C-BF7C-40C5-8614-1FD725A2A379";
shapes = (
{
closed = 1;
nodes = (
(220,467,l),
(220,658,l),
(190,594,o),
(156,525,o),
(116,467,c)
);
},
{
closed = 1;
nodes = (
(219,382,l),
(42,382,l),
(33,453,l),
(101,555,o),
(155,655,o),
(206,756,c),
(322,756,l),
(322,467,l),
(386,467,l),
(375,382,l),
(322,382,l),
(322,283,l),
(219,283,l)
);
}
);
width = 414;
}
);
unicode = 8308;
},
{
glyphname = .notdef;
lastChange = "2023-02-15 14:30:38 +0000";
layers = (
{
layerId = "849A9C4C-BF7C-40C5-8614-1FD725A2A379";
shapes = (
{
closed = 1;
nodes = (
(576,-117,l),
(576,797,l),
(80,797,l),
(80,-117,l)
);
},
{
closed = 1;
nodes = (
(216,681,l),
(440,681,l),
(440,-1,l),
(216,-1,l)
);
}
);
width = 656;
}
);
},
{
glyphname = "leftanglebracket-math";
lastChange = "2023-02-02 16:23:56 +0000";
layers = (
{
background = {
shapes = (
{
closed = 1;
nodes = (
(128,-74,l),
(238,-58,l),
(170,374,l),
(238,806,l),
(128,821,l),
(44,374,l)
);
}
);
};
layerId = "849A9C4C-BF7C-40C5-8614-1FD725A2A379";
shapes = (
{
closed = 1;
nodes = (
(128,-74,l),
(238,-58,l),
(170,374,l),
(238,806,l),
(128,821,l),
(44,374,l)
);
}
);
width = 278;
}
);
unicode = 10216;
},
{
glyphname = "rightanglebracket-math";
lastChange = "2023-02-02 16:23:56 +0000";
layers = (
{
background = {
shapes = (
{
closed = 1;
nodes = (
(150,821,l),
(40,806,l),
(108,374,l),
(40,-58,l),
(150,-74,l),
(234,374,l)
);
}
);
};
layerId = "849A9C4C-BF7C-40C5-8614-1FD725A2A379";
shapes = (
{
closed = 1;
nodes = (
(150,821,l),
(40,806,l),
(108,374,l),
(40,-58,l),
(150,-74,l),
(234,374,l)
);
}
);
width = 278;
}
);
unicode = 10217;
},
{
glyphname = period;
kernLeft = period;
kernRight = period;
lastChange = "2023-02-14 13:54:02 +0000";
layers = (
{
background = {
shapes = (
{
closed = 1;
nodes = (
(191,6,l),
(191,156,l),
(55,156,l),
(55,6,l)
);
}
);
};
layerId = "849A9C4C-BF7C-40C5-8614-1FD725A2A379";
shapes = (
{
closed = 1;
nodes = (
(191,0,l),
(191,150,l),
(55,150,l),
(55,0,l)
);
}
);
width = 246;
}
);
unicode = 46;
},
{
glyphname = comma;
kernLeft = period;
kernRight = period;
lastChange = "2023-02-08 14:55:53 +0000";
layers = (
{
background = {
shapes = (
{
closed = 1;
nodes = (
(143,-133,o),
(191,-79,o),
(191,6,cs),
(191,155,l),
(55,155,l),
(55,4,l),
(122,4,l),
(122,-53,o),
(95,-79,o),
(64,-91,c),
(90,-154,l)
);
}
);
};
layerId = "849A9C4C-BF7C-40C5-8614-1FD725A2A379";
shapes = (
{
closed = 1;
nodes = (
(143,-137,o),
(191,-83,o),
(191,2,cs),
(191,150,l),
(55,150,l),
(55,0,l),
(122,0,l),
(122,-57,o),
(95,-83,o),
(64,-95,c),
(90,-158,l)
);
}
);
width = 246;
}
);
unicode = 44;
},
{
color = 4;
glyphname = exclam;
lastChange = "2023-02-08 14:56:26 +0000";
layers = (
{
background = {
shapes = (
{
closed = 1;
nodes = (
(172,241,l),
(197,466,l),
(202,750,l),
(64,750,l),
(64,449,l),
(77,229,l)
);
},
{
pos = (9,-6);
ref = period;
}
);
};
layerId = "849A9C4C-BF7C-40C5-8614-1FD725A2A379";
shapes = (
{
closed = 1;
nodes = (
(172,241,l),
(197,466,l),
(202,750,l),
(64,750,l),
(64,449,l),
(77,229,l)
);
},
{
closed = 1;
nodes = (
(200,0,l),
(200,150,l),
(64,150,l),
(64,0,l)
);
}
);
width = 264;
}
);
unicode = 33;
},
{
color = 4;
glyphname = exclamdown;
lastChange = "2023-02-08 14:59:00 +0000";
layers = (
{
background = {
shapes = (
{
angle = 180;
pos = (266,751);
ref = exclam;
}
);
};
layerId = "849A9C4C-BF7C-40C5-8614-1FD725A2A379";
shapes = (
{
closed = 1;
nodes = (
(94,319,l),
(69,103,l),
(64,-170,l),
(202,-170,l),
(202,119,l),
(189,331,l)
);
},
{
closed = 1;
nodes = (
(66,560,l),
(66,410,l),
(202,410,l),
(202,560,l)
);
}
);
width = 264;
}
);
metricLeft = exclam;
metricRight = exclam;
unicode = 161;
},
{
color = 4;
glyphname = question;
lastChange = "2023-02-14 14:07:47 +0000";
layers = (
{
background = {
shapes = (
{
closed = 1;
nodes = (
(262,243,l),
(252,257,o),
(246,273,o),
(246,296,cs),
(246,346,o),
(282,380,o),
(321,417,cs),
(379,472,o),
(401,516,o),
(401,582,cs),
(401,691,o),
(314,764,o),
(209,764,cs),
(95,764,o),
(17,693,o),
(14,573,c),
(133,548,l),
(138,601,o),
(153,648,o),
(207,648,cs),
(238,648,o),
(265,620,o),
(265,572,cs),
(265,519,o),
(230,493,o),
(180,445,cs),
(142,408,o),
(114,367,o),
(114,308,cs),
(114,273,o),
(124,238,o),
(139,217,c)
);
},
{
pos = (78,-7);
ref = period;
}
);
};
layerId = "849A9C4C-BF7C-40C5-8614-1FD725A2A379";
shapes = (
{
closed = 1;
nodes = (
(262,243,l),
(252,257,o),
(246,273,o),
(246,296,cs),
(246,331,o),
(266,365,o),
(316,412,cs),
(379,472,o),
(401,516,o),
(401,582,cs),
(401,691,o),
(324,764,o),
(209,764,cs),
(95,764,o),
(17,693,o),
(14,573,c),
(133,548,l),
(138,601,o),
(153,648,o),
(207,648,cs),
(238,648,o),
(265,620,o),
(265,572,cs),
(265,533,o),
(247,506,o),
(180,445,cs),
(141,409,o),
(114,367,o),
(114,308,cs),
(114,273,o),
(124,238,o),
(139,217,c)
);
},
{
closed = 1;
nodes = (
(269,0,l),
(269,150,l),
(133,150,l),
(133,0,l)
);
}
);
width = 414;
}
);
unicode = 63;
},
{
color = 4;
glyphname = questiondown;
lastChange = "2023-02-14 14:07:58 +0000";
layers = (
{
background = {
shapes = (
{
closed = 1;
nodes = (
(153,317,l),
(163,303,o),
(169,287,o),
(169,264,cs),
(169,229,o),
(149,195,o),
(99,148,cs),
(36,88,o),
(14,44,o),
(14,-22,cs),
(14,-131,o),
(91,-204,o),
(206,-204,cs),
(320,-204,o),
(398,-133,o),
(401,-13,c),
(282,12,l),
(277,-41,o),
(262,-88,o),
(208,-88,cs),
(177,-88,o),
(150,-60,o),
(150,-12,cs),
(150,27,o),
(168,54,o),
(235,115,cs),
(274,151,o),
(301,193,o),
(301,252,cs),
(301,287,o),
(291,322,o),
(276,343,c)
);
},
{
closed = 1;
nodes = (
(146,560,l),
(146,410,l),
(282,410,l),
(282,560,l)
);
}
);
};
layerId = "849A9C4C-BF7C-40C5-8614-1FD725A2A379";
shapes = (
{
closed = 1;
nodes = (
(153,318,l),
(163,305,o),
(169,289,o),
(169,267,cs),
(169,234,o),
(149,201,o),
(99,156,cs),
(36,99,o),
(14,56,o),
(14,-7,cs),
(14,-111,o),
(91,-181,o),
(206,-181,cs),
(320,-181,o),
(398,-113,o),
(401,2,c),
(282,26,l),
(277,-25,o),
(262,-65,o),
(208,-65,cs),
(177,-65,o),
(150,-43,o),
(150,-7,cs),
(150,40,o),
(168,66,o),
(235,124,cs),
(274,159,o),
(301,199,o),
(301,256,cs),
(301,289,o),
(291,323,o),
(276,343,c)
);
},
{
closed = 1;
nodes = (
(146,560,l),
(146,410,l),
(282,410,l),
(282,560,l)
);
}
);
width = 414;
}
);
unicode = 191;
},
{
glyphname = periodcentered;
kernLeft = huphen;
kernRight = hyphen;
lastChange = "2023-02-14 13:33:59 +0000";
layers = (
{
anchors = (
{
name = _center;
pos = (125,306);
}
);
background = {
anchors = (
{
name = _center;
pos = (125,306);
}
);
shapes = (
{
closed = 1;
nodes = (
(195,234,l),
(195,375,l),
(55,375,l),
(55,234,l)
);
}
);
};
layerId = "849A9C4C-BF7C-40C5-8614-1FD725A2A379";
shapes = (
{
closed = 1;
nodes = (
(195,234,l),
(195,375,l),
(55,375,l),
(55,234,l)
);
}
);
width = 250;
}
);
unicode = 183;
},
{
glyphname = bullet;
lastChange = "2023-02-14 12:07:56 +0000";
layers = (
{
background = {
shapes = (
{
closed = 1;
nodes = (
(305,167,o),
(363,242,o),
(363,332,cs),
(363,421,o),
(305,497,o),
(201,497,cs),
(96,497,o),
(38,421,o),
(38,332,cs),
(38,242,o),
(96,167,o),
(201,167,cs)
);
}
);
};
layerId = "849A9C4C-BF7C-40C5-8614-1FD725A2A379";
shapes = (
{
closed = 1;
nodes = (
(305,167,o),
(363,242,o),
(363,332,cs),
(363,421,o),
(305,497,o),
(201,497,cs),
(96,497,o),
(38,421,o),
(38,332,cs),
(38,242,o),
(96,167,o),
(201,167,cs)
);
}
);
width = 401;
}
);
unicode = 8226;
},
{
glyphname = asterisk;
kernLeft = asterisk;
kernRight = asterisk;
lastChange = "2023-02-14 13:53:11 +0000";
layers = (
{
background = {
shapes = (
{
closed = 1;
nodes = (
(257,470,l),
(335,308,l),
(446,390,l),
(315,516,l),
(475,534,l),
(436,667,l),
(295,586,l),
(321,759,l),
(193,759,l),
(218,588,l),
(78,667,l),
(39,534,l),
(197,516,l),
(67,390,l),
(178,308,l)
);
}
);
};
layerId = "849A9C4C-BF7C-40C5-8614-1FD725A2A379";
shapes = (
{
closed = 1;
nodes = (
(257,461,l),
(335,299,l),
(446,381,l),
(315,507,l),
(475,525,l),
(436,658,l),
(295,577,l),
(321,750,l),
(193,750,l),
(218,579,l),
(78,658,l),
(39,525,l),
(197,507,l),
(67,381,l),
(178,299,l)
);
}
);
width = 513;
}
);
unicode = 42;
},
{
glyphname = numbersign;
lastChange = "2023-02-08 15:03:40 +0000";
layers = (
{
background = {
shapes = (
{
closed = 1;
nodes = (
(210,173,l),
(361,173,l),
(463,173,l),
(572,173,l),
(572,278,l),
(478,278,l),
(376,278,l),
(216,278,l),
(114,278,l),
(29,278,l),
(29,173,l),
(109,173,l)
);
},
{
closed = 1;
nodes = (
(274,541,l),
(296,750,l),
(171,750,l),
(149,542,l),
(145,542,l),
(112,238,l),
(108,238,l),
(80,0,l),
(205,0,l),
(233,238,l),
(237,238,l),
(270,541,l)
);
},
{
closed = 1;
nodes = (
(244,464,l),
(385,464,l),
(487,464,l),
(594,464,l),
(594,569,l),
(502,569,l),
(410,569,l),
(260,569,l),
(158,569,l),
(53,569,l),
(53,464,l),
(153,464,l)
);
},
{
closed = 1;
nodes = (
(508,541,l),
(530,750,l),
(405,750,l),
(383,542,l),
(379,542,l),
(346,238,l),
(342,238,l),
(314,0,l),
(439,0,l),
(467,238,l),
(471,238,l),
(504,541,l)
);
}
);
};
layerId = "849A9C4C-BF7C-40C5-8614-1FD725A2A379";
shapes = (
{
closed = 1;
nodes = (
(100,173,l),
(80,0,l),
(205,0,l),
(225,173,l),
(334,173,l),
(314,0,l),
(439,0,l),
(459,173,l),
(572,173,l),
(572,278,l),
(475,278,l),
(496,464,l),
(594,464,l),
(594,569,l),
(511,569,l),
(530,750,l),
(405,750,l),
(386,569,l),
(277,569,l),
(296,750,l),
(171,750,l),
(152,569,l),
(53,569,l),
(53,464,l),
(137,464,l),
(116,278,l),
(29,278,l),
(29,173,l)
);
},
{
closed = 1;
nodes = (
(262,464,l),
(371,464,l),
(350,278,l),
(241,278,l)
);
}
);
width = 625;
}
);
unicode = 35;
},
{
glyphname = slash;
lastChange = "2023-02-14 13:53:17 +0000";
layers = (
{
background = {
shapes = (
{
closed = 1;
nodes = (
(171,-37,l),
(289,769,l),
(161,785,l),
(43,-21,l)
);
}
);
};
layerId = "849A9C4C-BF7C-40C5-8614-1FD725A2A379";
shapes = (
{
closed = 1;
nodes = (
(171,-37,l),
(289,769,l),
(161,785,l),
(43,-21,l)
);
}
);
width = 332;
}
);
unicode = 47;
},
{
glyphname = backslash;
lastChange = "2023-02-14 14:05:40 +0000";
layers = (
{
background = {
shapes = (
{
closed = 1;
nodes = (
(171,785,l),
(43,769,l),
(161,-37,l),
(289,-21,l)
);
}
);
};
layerId = "849A9C4C-BF7C-40C5-8614-1FD725A2A379";
shapes = (
{
closed = 1;
nodes = (
(171,785,l),
(43,769,l),
(161,-37,l),
(289,-21,l)
);
}
);
width = 332;
}
);
unicode = 92;
},
{
glyphname = hyphen;
kernLeft = huphen;
kernRight = hyphen;
lastChange = "2023-02-14 12:00:24 +0000";
layers = (
{
background = {
shapes = (
{
closed = 1;
nodes = (
(325,269,l),
(339,384,l),
(50,384,l),
(50,269,l)
);
}
);
};
layerId = "849A9C4C-BF7C-40C5-8614-1FD725A2A379";
shapes = (
{
closed = 1;
nodes = (
(325,269,l),
(339,384,l),
(50,384,l),
(50,269,l)
);
}
);
width = 371;
}
);
unicode = 45;
},
{
glyphname = endash;
kernLeft = huphen;
kernRight = hyphen;
lastChange = "2023-02-10 11:52:40 +0000";
layers = (
{
background = {
shapes = (
{
closed = 1;
nodes = (
(342,245,l),
(349,349,l),
(55,349,l),
(48,245,l)
);
}
);
};
layerId = "849A9C4C-BF7C-40C5-8614-1FD725A2A379";
shapes = (
{
closed = 1;
nodes = (
(525,279,l),
(539,374,l),
(50,374,l),
(50,279,l)
);
}
);
width = 571;
}
);
metricLeft = hyphen;
metricRight = hyphen;
unicode = 8211;
},
{
color = 4;
glyphname = emdash;
kernLeft = huphen;
kernRight = hyphen;
lastChange = "2023-02-10 11:52:40 +0000";
layers = (
{
background = {
shapes = (
{
closed = 1;
nodes = (
(613,247,l),
(618,347,l),
(61,347,l),
(56,247,l)
);
}
);
};
layerId = "849A9C4C-BF7C-40C5-8614-1FD725A2A379";
shapes = (
{
closed = 1;
nodes = (
(725,279,l),
(739,374,l),
(50,374,l),
(50,279,l)
);
}
);
width = 771;
}
);
metricLeft = hyphen;
metricRight = hyphen;
unicode = 8212;
},
{
color = 4;
glyphname = underscore;
kernLeft = period;
kernRight = period;
lastChange = "2023-02-14 12:16:53 +0000";
layers = (
{
background = {
shapes = (
{
closed = 1;
nodes = (
(455,-116,l),
(455,0,l),
(40,0,l),
(40,-116,l)
);
}
);
};
layerId = "849A9C4C-BF7C-40C5-8614-1FD725A2A379";
shapes = (
{
closed = 1;
nodes = (
(455,-115,l),
(455,0,l),
(40,0,l),
(40,-115,l)
);
}
);
width = 495;
}
);
unicode = 95;
},
{
glyphname = parenleft;
kernLeft = parenleft;
kernRight = parenleft;
lastChange = "2023-02-14 12:32:34 +0000";
layers = (
{
background = {
shapes = (
{
closed = 1;
nodes = (
(134,839,o),
(50,693,o),
(50,377,cs),
(50,62,o),
(134,-92,o),
(326,-92,c),
(326,-10,l),
(216,9,o),
(191,143,o),
(191,377,cs),
(191,611,o),
(216,738,o),
(326,756,c),
(327,839,l)
);
}
);
};
layerId = "849A9C4C-BF7C-40C5-8614-1FD725A2A379";
shapes = (
{
closed = 1;
nodes = (
(134,839,o),
(50,693,o),
(50,377,cs),
(50,62,o),
(134,-92,o),
(327,-92,c),
(327,-10,l),
(216,9,o),
(191,143,o),
(191,377,cs),
(191,611,o),
(216,738,o),
(327,756,c),
(327,839,l)
);
}
);
width = 337;
}
);
unicode = 40;
},
{
glyphname = parenright;
kernLeft = parenright;
kernRight = parenright;
lastChange = "2023-02-14 13:34:35 +0000";
layers = (
{
background = {
shapes = (
{
closed = 1;
nodes = (
(11,756,l),
(121,738,o),
(146,611,o),
(146,377,cs),
(146,143,o),
(121,9,o),
(11,-10,c),
(11,-92,l),
(203,-92,o),
(287,62,o),
(287,377,cs),
(287,693,o),
(203,839,o),
(10,839,c)
);
}
);
};
layerId = "849A9C4C-BF7C-40C5-8614-1FD725A2A379";
shapes = (
{
closed = 1;
nodes = (
(10,756,l),
(120,738,o),
(146,611,o),
(146,377,cs),
(146,143,o),
(120,9,o),
(10,-10,c),
(10,-92,l),
(202,-92,o),
(287,62,o),
(287,377,cs),
(287,693,o),
(202,839,o),
(10,839,c)
);
}
);
width = 337;
}
);
unicode = 41;
},
{
glyphname = braceleft;
kernLeft = parenleft;
kernRight = parenleft;
lastChange = "2023-02-14 13:34:37 +0000";
layers = (
{
background = {
shapes = (
{
closed = 1;
nodes = (
(100,326,o),
(113,288,o),
(113,237,cs),
(113,183,o),
(93,129,o),
(93,64,cs),
(93,-37,o),
(144,-95,o),
(262,-95,cs),
(275,-95,o),
(289,-94,o),
(304,-93,c),
(304,-4,l),
(247,-4,o),
(220,23,o),
(220,73,cs),
(220,116,o),
(240,183,o),
(240,234,cs),
(240,306,o),
(207,356,o),
(147,373,c),
(207,390,o),
(240,440,o),
(240,512,cs),
(240,563,o),
(220,630,o),
(220,673,cs),
(220,723,o),
(247,750,o),
(304,750,c),
(304,839,l),
(289,840,o),
(275,841,o),
(262,841,cs),
(144,841,o),
(93,783,o),
(93,682,cs),
(93,617,o),
(113,563,o),
(113,509,cs),
(113,458,o),
(100,420,o),
(42,420,c),
(42,326,l)
);
}
);
};
layerId = "849A9C4C-BF7C-40C5-8614-1FD725A2A379";
shapes = (
{
closed = 1;
nodes = (
(100,326,o),
(113,288,o),
(113,237,cs),
(113,183,o),
(93,129,o),
(93,64,cs),
(93,-37,o),
(144,-95,o),
(262,-95,cs),
(274,-95,o),
(289,-94,o),
(304,-93,c),
(304,-4,l),
(247,-4,o),
(220,23,o),
(220,73,cs),
(220,116,o),
(240,183,o),
(240,234,cs),
(240,306,o),
(207,356,o),
(147,373,c),
(207,390,o),
(240,440,o),
(240,512,cs),
(240,563,o),
(220,630,o),
(220,673,cs),
(220,723,o),
(247,750,o),
(304,750,c),
(304,839,l),
(289,840,o),
(274,841,o),
(262,841,cs),
(144,841,o),
(93,783,o),
(93,682,cs),
(93,617,o),
(113,563,o),
(113,509,cs),
(113,458,o),
(100,420,o),
(42,420,c),
(42,326,l)
);
}
);
width = 330;
}
);
unicode = 123;
},
{
glyphname = braceright;
kernLeft = parenright;
kernRight = parenright;
lastChange = "2023-02-08 15:10:36 +0000";
layers = (
{
background = {
shapes = (
{
closed = 1;
nodes = (
(230,420,o),
(217,458,o),
(217,509,cs),
(217,563,o),
(237,617,o),
(237,682,cs),
(237,783,o),
(186,841,o),
(68,841,cs),
(55,841,o),
(41,840,o),
(26,839,c),
(26,750,l),
(83,750,o),
(110,723,o),
(110,673,cs),
(110,630,o),
(90,563,o),
(90,512,cs),
(90,440,o),
(123,390,o),
(183,373,c),
(123,356,o),
(90,306,o),
(90,234,cs),
(90,183,o),
(110,116,o),
(110,73,cs),
(110,23,o),
(83,-4,o),
(26,-4,c),
(26,-93,l),
(41,-94,o),
(55,-95,o),
(68,-95,cs),
(186,-95,o),
(237,-37,o),
(237,64,cs),
(237,129,o),
(217,183,o),
(217,237,cs),
(217,288,o),
(230,326,o),
(288,326,c),
(288,420,l)
);
}
);
};
layerId = "849A9C4C-BF7C-40C5-8614-1FD725A2A379";
shapes = (
{
closed = 1;
nodes = (
(230,420,o),
(217,458,o),
(217,509,cs),
(217,563,o),
(237,617,o),
(237,682,cs),
(237,783,o),
(186,841,o),
(68,841,cs),
(56,841,o),
(41,840,o),
(26,839,c),
(26,750,l),
(83,750,o),
(110,723,o),
(110,673,cs),
(110,630,o),
(90,563,o),
(90,512,cs),
(90,440,o),
(123,390,o),
(183,373,c),
(123,356,o),
(90,306,o),
(90,234,cs),
(90,183,o),
(110,116,o),
(110,73,cs),
(110,23,o),
(83,-4,o),
(26,-4,c),
(26,-93,l),
(41,-94,o),
(56,-95,o),
(68,-95,cs),
(186,-95,o),
(237,-37,o),
(237,64,cs),
(237,129,o),
(217,183,o),
(217,237,cs),
(217,288,o),
(230,326,o),
(288,326,c),
(288,420,l)
);
}
);
width = 330;
}
);
unicode = 125;
},
{
glyphname = bracketleft;
kernLeft = parenleft;
kernRight = parenleft;
lastChange = "2023-02-08 15:10:48 +0000";
layers = (
{
background = {
shapes = (
{
closed = 1;
nodes = (
(310,-87,l),
(310,16,l),
(205,16,l),
(205,733,l),
(310,733,l),
(310,837,l),
(70,837,l),
(70,-87,l)
);
}
);
};
layerId = "849A9C4C-BF7C-40C5-8614-1FD725A2A379";
shapes = (
{
closed = 1;
nodes = (
(310,-87,l),
(310,16,l),
(205,16,l),
(205,733,l),
(310,733,l),
(310,837,l),
(70,837,l),
(70,-87,l)
);
}
);
width = 320;
}
);
unicode = 91;
},
{
glyphname = bracketright;
kernLeft = parenright;
kernRight = parenright;
lastChange = "2023-02-08 15:10:52 +0000";
layers = (
{
background = {
shapes = (
{
closed = 1;
nodes = (
(251,-87,l),
(251,837,l),
(10,837,l),
(10,733,l),
(116,733,l),
(116,16,l),
(10,16,l),
(10,-87,l)
);
}
);
};
layerId = "849A9C4C-BF7C-40C5-8614-1FD725A2A379";
shapes = (
{
closed = 1;
nodes = (
(251,-87,l),
(251,837,l),
(10,837,l),
(10,733,l),
(116,733,l),
(116,16,l),
(10,16,l),
(10,-87,l)
);
}
);
width = 321;
}
);
unicode = 93;
},
{
glyphname = quotesinglbase;
kernLeft = period;
kernRight = period;
lastChange = "2023-02-10 11:52:27 +0000";
layers = (
{
background = {
shapes = (
{
closed = 1;
nodes = (
(150,-133,o),
(188,-78,o),
(188,6,cs),
(188,155,l),
(52,155,l),
(52,4,l),
(119,4,l),
(119,-53,o),
(102,-79,o),
(71,-91,c),
(97,-154,l)
);
}
);
};
layerId = "849A9C4C-BF7C-40C5-8614-1FD725A2A379";
shapes = (
{
closed = 1;
nodes = (
(143,-137,o),
(191,-83,o),
(191,2,cs),
(191,150,l),
(55,150,l),
(55,0,l),
(122,0,l),
(122,-57,o),
(95,-83,o),
(64,-95,c),
(90,-158,l)
);
}
);
width = 246;
}
);
unicode = 8218;
},
{
glyphname = quotedblbase;
kernLeft = period;
kernRight = period;
lastChange = "2023-02-14 12:06:51 +0000";
layers = (
{
background = {
shapes = (
{
closed = 1;
nodes = (
(338,-133,o),
(376,-78,o),
(376,6,cs),
(376,155,l),
(240,155,l),
(240,4,l),
(307,4,l),
(307,-53,o),
(290,-79,o),
(259,-91,c),
(285,-154,l)
);
},
{
closed = 1;
nodes = (
(151,-133,o),
(189,-78,o),
(189,6,cs),
(189,155,l),
(53,155,l),
(53,4,l),
(120,4,l),
(120,-53,o),
(103,-79,o),
(72,-91,c),
(98,-154,l)
);
}
);
};
layerId = "849A9C4C-BF7C-40C5-8614-1FD725A2A379";
shapes = (
{
closed = 1;
nodes = (
(143,-137,o),
(191,-83,o),
(191,2,cs),
(191,150,l),
(55,150,l),
(55,0,l),
(122,0,l),
(122,-57,o),
(95,-83,o),
(64,-95,c),
(90,-158,l)
);
},
{
closed = 1;
nodes = (
(329,-137,o),
(377,-83,o),
(377,2,cs),
(377,150,l),
(241,150,l),
(241,0,l),
(308,0,l),
(308,-57,o),
(281,-83,o),
(250,-95,c),
(276,-158,l)
);
}
);
width = 432;
}
);
unicode = 8222;
},
{
glyphname = quotedblleft;
kernLeft = quotes;
kernRight = quotes;
lastChange = "2023-02-14 12:50:17 +0000";
layers = (
{
background = {
shapes = (
{
closed = 1;
nodes = (
(279,748,o),
(241,693,o),
(241,609,cs),
(241,460,l),
(377,460,l),
(377,611,l),
(310,611,l),
(310,668,o),
(327,694,o),
(358,706,c),
(332,769,l)
);
},
{
closed = 1;
nodes = (
(93,748,o),
(55,693,o),
(55,609,cs),
(55,460,l),
(191,460,l),
(191,611,l),
(124,611,l),
(124,668,o),
(141,694,o),
(172,706,c),
(146,769,l)
);
}
);
};
layerId = "849A9C4C-BF7C-40C5-8614-1FD725A2A379";
shapes = (
{
closed = 1;
nodes = (
(279,748,o),
(241,693,o),
(241,609,cs),
(241,460,l),
(377,460,l),
(377,611,l),
(310,611,l),
(310,668,o),
(327,694,o),
(358,706,c),
(332,769,l)
);
},
{
closed = 1;
nodes = (
(93,748,o),
(55,693,o),
(55,609,cs),
(55,460,l),
(191,460,l),
(191,611,l),
(124,611,l),
(124,668,o),
(141,694,o),
(172,706,c),
(146,769,l)
);
}
);
width = 432;
}
);
unicode = 8220;
},
{
glyphname = quotedblright;
kernLeft = quotes;
kernRight = quotes;
lastChange = "2023-02-10 12:00:24 +0000";
layers = (
{
background = {
shapes = (
{
closed = 1;
nodes = (
(341,462,o),
(379,517,o),
(379,601,cs),
(379,750,l),
(243,750,l),
(243,599,l),
(310,599,l),
(310,542,o),
(293,516,o),
(262,504,c),
(288,441,l)
);
},
{
closed = 1;
nodes = (
(153,462,o),
(191,517,o),
(191,601,cs),
(191,750,l),
(55,750,l),
(55,599,l),
(122,599,l),
(122,542,o),
(105,516,o),
(74,504,c),
(100,441,l)
);
}
);
};
layerId = "849A9C4C-BF7C-40C5-8614-1FD725A2A379";
shapes = (
{
closed = 1;
nodes = (
(339,462,o),
(377,517,o),
(377,601,cs),
(377,750,l),
(241,750,l),
(241,599,l),
(308,599,l),
(308,542,o),
(291,516,o),
(260,504,c),
(286,441,l)
);
},
{
closed = 1;
nodes = (
(153,462,o),
(191,517,o),
(191,601,cs),
(191,750,l),
(55,750,l),
(55,599,l),
(122,599,l),
(122,542,o),
(105,516,o),
(74,504,c),
(100,441,l)
);
}
);
width = 432;
}
);
unicode = 8221;
},
{
glyphname = quoteleft;
kernLeft = quotes;
kernRight = quotes;
lastChange = "2023-02-10 12:00:24 +0000";
layers = (
{
background = {
shapes = (
{
closed = 1;
nodes = (
(93,749,o),
(55,694,o),
(55,610,cs),
(55,461,l),
(191,461,l),
(191,612,l),
(124,612,l),
(124,669,o),
(141,695,o),
(172,707,c),
(146,770,l)
);
}
);
};
layerId = "849A9C4C-BF7C-40C5-8614-1FD725A2A379";
shapes = (
{
closed = 1;
nodes = (
(93,749,o),
(55,694,o),
(55,610,cs),
(55,461,l),
(191,461,l),
(191,612,l),
(124,612,l),
(124,669,o),
(141,695,o),
(172,707,c),
(146,770,l)
);
}
);
width = 246;
}
);
unicode = 8216;
},
{
glyphname = quoteright;
kernLeft = quotes;
kernRight = quotes;
lastChange = "2023-02-10 12:00:24 +0000";
layers = (
{
background = {
shapes = (
{
closed = 1;
nodes = (
(153,462,o),
(191,517,o),
(191,601,cs),
(191,750,l),
(55,750,l),
(55,599,l),
(122,599,l),
(122,542,o),
(105,516,o),
(74,504,c),
(100,441,l)
);
}
);
};
layerId = "849A9C4C-BF7C-40C5-8614-1FD725A2A379";
shapes = (
{
closed = 1;
nodes = (
(153,462,o),
(191,517,o),
(191,601,cs),
(191,750,l),
(55,750,l),
(55,599,l),
(122,599,l),
(122,542,o),
(105,516,o),
(74,504,c),
(100,441,l)
);
}
);
width = 246;
}
);
unicode = 8217;
},
{
glyphname = guillemetleft;
kernLeft = guilleft;
kernRight = guilleft;
lastChange = "2023-02-14 12:36:57 +0000";
layers = (
{
background = {
shapes = (
{
closed = 1;
nodes = (
(265,312,l),
(259,249,l),
(453,33,l),
(509,89,l),
(385,279,l),
(508,471,l),
(453,526,l)
);
},
{
closed = 1;
nodes = (
(50,352,l),
(34,217,l),
(220,25,l),
(276,81,l),
(150,279,l),
(276,479,l),
(221,534,l)
);
}
);
};
layerId = "849A9C4C-BF7C-40C5-8614-1FD725A2A379";
shapes = (
{
closed = 1;
nodes = (
(265,312,l),
(259,249,l),
(453,33,l),
(509,89,l),
(385,279,l),
(508,471,l),
(453,526,l)
);
},
{
closed = 1;
nodes = (
(50,352,l),
(34,217,l),
(220,25,l),
(276,81,l),
(150,279,l),
(276,479,l),
(221,534,l)
);
}
);
width = 545;
}
);
metricLeft = guilsinglleft;
metricRight = guilsinglleft;
unicode = 171;
},
{
glyphname = guillemetright;
kernLeft = guilright;
kernRight = guilright;
lastChange = "2023-02-14 13:33:17 +0000";
layers = (
{
background = {
shapes = (
{
closed = 1;
nodes = (
(37,471,l),
(160,279,l),
(36,89,l),
(92,33,l),
(281,243,l),
(285,306,l),
(92,526,l)
);
},
{
closed = 1;
nodes = (
(269,479,l),
(395,279,l),
(269,81,l),
(325,25,l),
(495,200,l),
(511,335,l),
(324,534,l)
);
}
);
};
layerId = "849A9C4C-BF7C-40C5-8614-1FD725A2A379";
shapes = (
{
closed = 1;
nodes = (
(37,471,l),
(160,279,l),
(36,89,l),
(92,33,l),
(281,243,l),
(285,306,l),
(92,526,l)
);
},
{
closed = 1;
nodes = (
(269,479,l),
(395,279,l),
(269,81,l),
(325,25,l),
(495,200,l),
(511,335,l),
(324,534,l)
);
}
);
width = 545;
}
);
metricLeft = guilsinglright;
metricRight = guilsinglright;
unicode = 187;
},
{
glyphname = guilsinglleft;
kernLeft = guilleft;
kernRight = guilleft;
lastChange = "2023-02-14 13:33:14 +0000";
layers = (
{
background = {
shapes = (
{
closed = 1;
nodes = (
(50,350,l),
(34,215,l),
(220,27,l),
(276,83,l),
(150,280,l),
(276,481,l),
(221,536,l)
);
}
);
};
layerId = "849A9C4C-BF7C-40C5-8614-1FD725A2A379";
shapes = (
{
closed = 1;
nodes = (
(50,350,l),
(34,215,l),
(220,27,l),
(276,83,l),
(150,280,l),
(276,481,l),
(221,536,l)
);
}
);
width = 312;
}
);
unicode = 8249;
},
{
glyphname = guilsinglright;
kernLeft = guilright;
kernRight = guilright;
lastChange = "2023-02-14 12:28:50 +0000";
layers = (
{
background = {
shapes = (
{
closed = 1;
nodes = (
(262,210,l),
(278,345,l),
(92,533,l),
(36,477,l),
(162,280,l),
(36,79,l),
(91,24,l)
);
}
);
};
layerId = "849A9C4C-BF7C-40C5-8614-1FD725A2A379";
shapes = (
{
closed = 1;
nodes = (
(262,210,l),
(278,345,l),
(92,533,l),
(36,477,l),
(162,280,l),
(36,79,l),
(91,24,l)
);
}
);
width = 312;
}
);
unicode = 8250;
},
{
glyphname = quotedbl;
kernLeft = quotest;
kernRight = quotest;
lastChange = "2023-02-14 14:04:27 +0000";
layers = (
{
background = {
shapes = (
{
closed = 1;
nodes = (
(355,438,l),
(378,751,l),
(238,751,l),
(261,432,l)
);
},
{
closed = 1;
nodes = (
(167,438,l),
(191,751,l),
(50,751,l),
(73,432,l)
);
}
);
};
layerId = "849A9C4C-BF7C-40C5-8614-1FD725A2A379";
shapes = (
{
closed = 1;
nodes = (
(355,438,l),
(378,751,l),
(238,751,l),
(261,432,l)
);
},
{
closed = 1;
nodes = (
(167,438,l),
(191,751,l),
(50,751,l),
(73,432,l)
);
}
);
width = 428;
}
);
unicode = 34;
},
{
glyphname = quotesingle;
kernLeft = quotest;
kernRight = quotest;
lastChange = "2023-02-14 14:05:56 +0000";
layers = (
{
background = {
shapes = (
{
closed = 1;
nodes = (
(167,440,l),
(191,751,l),
(50,751,l),
(73,434,l)
);
}
);
};
layerId = "849A9C4C-BF7C-40C5-8614-1FD725A2A379";
shapes = (
{
closed = 1;
nodes = (
(167,440,l),
(191,751,l),
(50,751,l),
(73,434,l)
);
}
);
width = 241;
}
);
unicode = 39;
},
{
color = 4;
glyphname = florin;
lastChange = "2023-02-08 15:30:00 +0000";
layers = (
{
background = {
shapes = (
{
closed = 1;
nodes = (
(260,771,o),
(219,699,o),
(213,596,cs),
(180,33,ls),
(177,-25,o),
(169,-52,o),
(128,-52,cs),
(114,-52,o),
(104,-50,o),
(93,-46,c),
(80,-154,l),
(111,-164,o),
(139,-168,o),
(169,-168,cs),
(264,-168,o),
(314,-93,o),
(320,5,cs),
(353,573,ls),
(356,632,o),
(366,660,o),
(407,660,cs),
(423,660,o),
(438,658,o),
(453,654,c),
(466,752,l),
(430,765,o),
(396,771,o),
(354,771,cs)
);
},
{
closed = 1;
nodes = (
(435,458,l),
(449,563,l),
(134,563,l),
(134,458,l)
);
}
);
};
layerId = "849A9C4C-BF7C-40C5-8614-1FD725A2A379";
shapes = (
{
closed = 1;
nodes = (
(-23,-164,o),
(28,-180,o),
(76,-180,cs),
(200,-180,o),
(265,-118,o),
(280,22,cs),
(325,455,l),
(418,455,l),
(442,560,l),
(336,560,l),
(339,583,ls),
(345,627,o),
(371,655,o),
(409,655,cs),
(434,655,o),
(452,645,o),
(470,625,c),
(526,708,l),
(499,746,o),
(448,762,o),
(400,762,cs),
(276,762,o),
(211,700,o),
(196,560,c),
(131,560,l),
(120,455,l),
(185,455,l),
(137,-1,ls),
(132,-45,o),
(105,-73,o),
(67,-73,cs),
(42,-73,o),
(24,-63,o),
(6,-43,c),
(-50,-126,l)
);
}
);
width = 486;
}
);
unicode = 402;
},
{
glyphname = at;
lastChange = "2023-02-14 12:01:20 +0000";
layers = (
{
background = {
shapes = (
{
closed = 1;
nodes = (
(536,-110,o),
(611,-84,o),
(687,-34,c),
(656,28,l),
(592,-7,o),
(531,-28,o),
(455,-28,cs),
(277,-28,o),
(137,92,o),
(137,326,cs),
(137,532,o),
(260,675,o),
(441,675,cs),
(624,675,o),
(730,534,o),
(727,328,cs),
(726,258,o),
(715,184,o),
(668,184,cs),
(628,184,o),
(614,221,o),
(614,277,cs),
(614,512,l),
(511,499,l),
(511,447,l),
(494,502,o),
(448,525,o),
(399,525,cs),
(302,525,o),
(251,439,o),
(251,309,cs),
(251,185,o),
(306,104,o),
(398,104,cs),
(461,104,o),
(499,145,o),
(516,201,c),
(524,145,o),
(574,98,o),
(653,99,cs),
(765,100,o),
(822,212,o),
(822,363,cs),
(822,601,o),
(683,760,o),
(443,760,cs),
(222,760,o),
(35,614,o),
(35,312,cs),
(35,48,o),
(200,-110,o),
(434,-110,cs)
);
},
{
closed = 1;
nodes = (
(402,201,o),
(379,232,o),
(379,315,cs),
(379,394,o),
(400,436,o),
(437,436,cs),
(474,436,o),
(496,400,o),
(496,352,cs),
(496,300,ls),
(496,242,o),
(473,201,o),
(436,201,cs)
);
}
);
};
layerId = "849A9C4C-BF7C-40C5-8614-1FD725A2A379";
shapes = (
{
closed = 1;
nodes = (
(536,-110,o),
(611,-84,o),
(687,-34,c),
(656,28,l),
(592,-7,o),
(531,-28,o),
(455,-28,cs),
(277,-28,o),
(137,92,o),
(137,326,cs),
(137,532,o),
(260,675,o),
(441,675,cs),
(624,675,o),
(730,534,o),
(727,328,cs),
(726,258,o),
(715,184,o),
(668,184,cs),
(628,184,o),
(614,221,o),
(614,277,cs),
(614,512,l),
(511,499,l),
(511,447,l),
(494,502,o),
(448,525,o),
(399,525,cs),
(302,525,o),
(251,439,o),
(251,309,cs),
(251,185,o),
(306,104,o),
(398,104,cs),
(461,104,o),
(499,145,o),
(516,201,c),
(524,145,o),
(574,98,o),
(653,99,cs),
(765,100,o),
(822,212,o),
(822,363,cs),
(822,601,o),
(683,760,o),
(443,760,cs),
(222,760,o),
(35,614,o),
(35,312,cs),
(35,48,o),
(200,-110,o),
(434,-110,cs)
);
},
{
closed = 1;
nodes = (
(402,201,o),
(379,232,o),
(379,315,cs),
(379,394,o),
(400,436,o),
(437,436,cs),
(474,436,o),
(496,400,o),
(496,352,cs),
(496,300,ls),
(496,242,o),
(473,201,o),
(436,201,cs)
);
}
);
width = 852;
}
);
unicode = 64;
},
{
glyphname = ampersand;
lastChange = "2023-02-14 14:08:27 +0000";
layers = (
{
background = {
shapes = (
{
closed = 1;
nodes = (
(289,196,ls),
(378,67,o),
(438,-14,o),
(538,-14,cs),
(564,-14,o),
(575,-13,o),
(595,-10,c),
(610,107,l),
(601,106,o),
(587,105,o),
(578,105,cs),
(509,105,o),
(468,164,o),
(381,291,cs),
(305,402,ls),
(255,476,o),
(229,511,o),
(229,569,cs),
(229,614,o),
(250,648,o),
(286,648,cs),
(324,648,o),
(341,620,o),
(341,582,cs),
(341,532,o),
(308,495,o),
(260,460,c),
(310,379,l),
(407,439,o),
(461,503,o),
(461,594,cs),
(461,696,o),
(386,755,o),
(295,755,cs),
(171,755,o),
(103,665,o),
(103,567,cs),
(103,470,o),
(136,419,o),
(188,344,cs)
);
},
{
closed = 1;
nodes = (
(482,138,l),
(537,208,o),
(570,286,o),
(583,368,c),
(472,392,l),
(464,331,o),
(443,271,o),
(407,215,c)
);
},
{
closed = 1;
nodes = (
(331,127,o),
(304,107,o),
(251,107,cs),
(192,107,o),
(157,153,o),
(157,208,cs),
(157,268,o),
(181,302,o),
(225,331,c),
(170,408,l),
(82,358,o),
(24,294,o),
(24,192,cs),
(24,74,o),
(102,-14,o),
(223,-14,cs),
(330,-14,o),
(383,25,o),
(439,91,c),
(359,165,l)
);
}
);
};
layerId = "849A9C4C-BF7C-40C5-8614-1FD725A2A379";
shapes = (
{
closed = 1;
nodes = (
(24,74,o),
(102,-14,o),
(223,-14,cs),
(306,-14,o),
(356,9,o),
(401,51,c),
(442,9,o),
(484,-14,o),
(538,-14,cs),
(564,-14,o),
(575,-13,o),
(595,-10,c),
(610,107,l),
(601,106,o),
(587,105,o),
(578,105,cs),
(545,105,o),
(518,119,o),
(489,147,c),
(540,215,o),
(571,290,o),
(583,368,c),
(472,392,l),
(465,338,o),
(448,285,o),
(419,235,c),
(408,252,o),
(395,271,o),
(381,291,cs),
(318,384,l),
(410,442,o),
(461,505,o),
(461,594,cs),
(461,696,o),
(386,755,o),
(295,755,cs),
(171,755,o),
(103,665,o),
(103,567,cs),
(103,495,o),
(121,448,o),
(152,398,c),
(74,349,o),
(24,287,o),
(24,192,cs)
);
},
{
closed = 1;
nodes = (
(157,259,o),
(174,291,o),
(206,317,c),
(289,196,ls),
(304,174,o),
(318,154,o),
(332,135,c),
(312,116,o),
(287,107,o),
(251,107,cs),
(192,107,o),
(157,153,o),
(157,208,cs)
);
},
{
closed = 1;
nodes = (
(229,614,o),
(250,648,o),
(286,648,cs),
(324,648,o),
(341,620,o),
(341,582,cs),
(341,534,o),
(310,497,o),
(264,463,c),
(241,501,o),
(229,530,o),
(229,569,cs)
);
}
);
width = 628;
}
);
unicode = 38;
},
{
glyphname = paragraph;
lastChange = "2023-02-14 14:04:52 +0000";
layers = (
{
background = {
shapes = (
{
closed = 1;
nodes = (
(301,0,l),
(301,631,l),
(375,631,l),
(375,0,l),
(486,0,l),
(486,631,l),
(536,631,l),
(551,750,l),
(259,750,ls),
(128,750,o),
(25,706,o),
(25,567,cs),
(25,461,o),
(104,391,o),
(190,391,c),
(190,0,l)
);
}
);
};
layerId = "849A9C4C-BF7C-40C5-8614-1FD725A2A379";
shapes = (
{
closed = 1;
nodes = (
(301,0,l),
(301,631,l),
(375,631,l),
(375,0,l),
(486,0,l),
(486,631,l),
(536,631,l),
(551,750,l),
(259,750,ls),
(128,750,o),
(25,706,o),
(25,567,cs),
(25,461,o),
(104,391,o),
(190,391,c),
(190,0,l)
);
}
);
width = 589;
}
);
unicode = 182;
},
{
glyphname = section;
lastChange = "2023-02-08 15:44:38 +0000";
layers = (
{
background = {
shapes = (
{
closed = 1;
nodes = (
(207,354,ls),
(173,369,o),
(145,388,o),
(145,424,cs),
(145,446,o),
(153,459,o),
(167,470,c),
(93,509,l),
(57,487,o),
(28,448,o),
(28,388,cs),
(28,314,o),
(74,273,o),
(132,248,cs),
(238,202,ls),
(271,188,o),
(298,169,o),
(298,138,cs),
(298,107,o),
(273,88,o),
(240,88,cs),
(189,88,o),
(164,124,o),
(163,173,c),
(40,145,l),
(47,41,o),
(119,-16,o),
(238,-16,cs),
(335,-16,o),
(437,43,o),
(437,143,cs),
(437,236,o),
(394,272,o),
(330,300,cs)
);
},
{
closed = 1;
nodes = (
(434,285,o),
(453,328,o),
(453,375,cs),
(453,448,o),
(403,484,o),
(339,513,cs),
(243,556,ls),
(204,574,o),
(184,591,o),
(184,619,cs),
(184,646,o),
(204,667,o),
(244,667,cs),
(291,667,o),
(314,633,o),
(317,587,c),
(428,610,l),
(415,708,o),
(353,766,o),
(244,766,cs),
(130,766,o),
(50,696,o),
(50,596,cs),
(50,529,o),
(83,491,o),
(150,460,cs),
(251,413,ls),
(292,394,o),
(329,376,o),
(329,342,cs),
(329,322,o),
(325,307,o),
(313,290,c),
(392,252,l)
);
}
);
};
layerId = "849A9C4C-BF7C-40C5-8614-1FD725A2A379";
shapes = (
{
closed = 1;
nodes = (
(28,314,o),
(74,273,o),
(132,248,cs),
(238,202,ls),
(271,188,o),
(298,169,o),
(298,138,cs),
(298,107,o),
(273,88,o),
(240,88,cs),
(189,88,o),
(164,124,o),
(163,173,c),
(40,145,l),
(47,41,o),
(119,-16,o),
(238,-16,cs),
(335,-16,o),
(437,43,o),
(437,143,cs),
(437,197,o),
(423,232,o),
(398,257,c),
(436,289,o),
(453,330,o),
(453,375,cs),
(453,448,o),
(403,484,o),
(339,513,cs),
(243,556,ls),
(204,574,o),
(184,591,o),
(184,619,cs),
(184,646,o),
(204,667,o),
(244,667,cs),
(291,667,o),
(314,633,o),
(317,587,c),
(428,610,l),
(415,708,o),
(353,766,o),
(244,766,cs),
(130,766,o),
(50,696,o),
(50,596,cs),
(50,557,o),
(61,527,o),
(84,503,c),
(53,481,o),
(28,443,o),
(28,388,cs)
);
},
{
closed = 1;
nodes = (
(145,438,o),
(148,449,o),
(155,458,c),
(251,413,ls),
(292,394,o),
(329,376,o),
(329,342,cs),
(329,328,o),
(327,316,o),
(321,304,c),
(207,354,ls),
(173,369,o),
(145,388,o),
(145,424,cs)
);
}
);
width = 480;
}
);
unicode = 167;
},
{
glyphname = copyright;
lastChange = "2023-02-15 14:40:42 +0000";
layers = (
{
background = {
shapes = (
{
closed = 1;
nodes = (
(512,28,o),
(656,151,o),
(656,353,cs),
(656,554,o),
(512,677,o),
(341,677,cs),
(170,677,o),
(26,554,o),
(26,353,cs),
(26,151,o),
(170,28,o),
(341,28,cs)
);
},
{
closed = 1;
nodes = (
(242,162,o),
(187,247,o),
(187,347,cs),
(187,455,o),
(242,540,o),
(342,540,cs),
(426,540,o),
(475,493,o),
(485,411,c),
(400,393,l),
(397,428,o),
(381,461,o),
(347,461,cs),
(301,461,o),
(284,404,o),
(284,346,cs),
(284,291,o),
(296,241,o),
(347,241,cs),
(381,241,o),
(397,268,o),
(402,304,c),
(484,286,l),
(476,234,o),
(435,162,o),
(342,162,cs)
);
},
{
closed = 1;
nodes = (
(206,88,o),
(91,187,o),
(91,353,cs),
(91,519,o),
(206,617,o),
(341,617,cs),
(476,617,o),
(591,519,o),
(591,353,cs),
(591,187,o),
(476,88,o),
(341,88,cs)
);
}
);
};
layerId = "849A9C4C-BF7C-40C5-8614-1FD725A2A379";
shapes = (
{
closed = 1;
nodes = (
(512,111,o),
(656,234,o),
(656,436,cs),
(656,637,o),
(512,760,o),
(341,760,cs),
(170,760,o),
(26,637,o),
(26,436,cs),
(26,234,o),
(170,111,o),
(341,111,cs)
);
},
{
closed = 1;
nodes = (
(435,245,o),
(476,317,o),
(484,369,c),
(402,387,l),
(397,351,o),
(381,324,o),
(347,324,cs),
(296,324,o),
(284,374,o),
(284,429,cs),
(284,487,o),
(301,544,o),
(347,544,cs),
(381,544,o),
(397,511,o),
(400,476,c),
(485,494,l),
(475,576,o),
(426,623,o),
(342,623,cs),
(242,623,o),
(187,538,o),
(187,430,cs),
(187,330,o),
(242,245,o),
(342,245,cs)
);
},
{
closed = 1;
nodes = (
(206,171,o),
(91,270,o),
(91,436,cs),
(91,602,o),
(206,700,o),
(341,700,cs),
(476,700,o),
(591,602,o),
(591,436,cs),
(591,270,o),
(476,171,o),
(341,171,cs)
);
}
);
width = 682;
}
);
unicode = 169;
},
{
glyphname = registered;
lastChange = "2023-02-15 14:40:42 +0000";
layers = (
{
background = {
shapes = (
{
closed = 1;
nodes = (
(482,198,l),
(406,357,l),
(406,314,l),
(452,340,o),
(472,369,o),
(472,416,cs),
(472,501,o),
(414,529,o),
(333,529,cs),
(227,529,l),
(227,177,l),
(311,177,l),
(311,299,l),
(337,299,o),
(354,300,o),
(375,305,c),
(345,305,l),
(405,170,l)
);
},
{
closed = 1;
nodes = (
(312,460,l),
(337,460,ls),
(368,460,o),
(388,448,o),
(388,417,cs),
(388,386,o),
(368,369,o),
(339,369,cs),
(312,369,l)
);
},
{
closed = 1;
nodes = (
(512,28,o),
(656,151,o),
(656,353,cs),
(656,554,o),
(512,677,o),
(341,677,cs),
(170,677,o),
(26,554,o),
(26,353,cs),
(26,151,o),
(170,28,o),
(341,28,cs)
);
},
{
closed = 1;
nodes = (
(206,88,o),
(91,187,o),
(91,353,cs),
(91,519,o),
(206,617,o),
(341,617,cs),
(476,617,o),
(591,519,o),
(591,353,cs),
(591,187,o),
(476,88,o),
(341,88,cs)
);
}
);
};
layerId = "849A9C4C-BF7C-40C5-8614-1FD725A2A379";
shapes = (
{
closed = 1;
nodes = (
(512,111,o),
(656,234,o),
(656,436,cs),
(656,637,o),
(512,760,o),
(341,760,cs),
(170,760,o),
(26,637,o),
(26,436,cs),
(26,234,o),
(170,111,o),
(341,111,cs)
);
},
{
closed = 1;
nodes = (
(206,171,o),
(91,270,o),
(91,436,cs),
(91,602,o),
(206,700,o),
(341,700,cs),
(476,700,o),
(591,602,o),
(591,436,cs),
(591,270,o),
(476,171,o),
(341,171,cs)
);
},
{
closed = 1;
nodes = (
(482,281,l),
(422,407,l),
(457,430,o),
(472,458,o),
(472,499,cs),
(472,584,o),
(414,612,o),
(333,612,cs),
(227,612,l),
(227,260,l),
(311,260,l),
(311,382,l),
(325,382,o),
(336,382,o),
(347,383,c),
(405,253,l)
);
},
{
closed = 1;
nodes = (
(312,543,l),
(337,543,ls),
(368,543,o),
(388,531,o),
(388,500,cs),
(388,469,o),
(368,452,o),
(339,452,cs),
(312,452,l)
);
}
);
width = 682;
}
);
unicode = 174;
},
{
glyphname = trademark;
lastChange = "2023-02-08 15:45:07 +0000";
layers = (
{
background = {
shapes = (
{
closed = 1;
nodes = (
(804,266,l),
(804,679,l),
(684,679,l),
(621,437,l),
(618,414,l),
(553,679,l),
(415,679,l),
(415,266,l),
(501,266,l),
(501,526,l),
(499,550,l),
(576,258,l),
(640,266,l),
(715,550,l),
(714,527,l),
(714,266,l)
);
},
{
closed = 1;
nodes = (
(258,268,l),
(258,593,l),
(357,593,l),
(357,679,l),
(64,679,l),
(54,593,l),
(156,593,l),
(156,268,l)
);
}
);
};
layerId = "849A9C4C-BF7C-40C5-8614-1FD725A2A379";
shapes = (
{
closed = 1;
nodes = (
(804,337,l),
(804,750,l),
(684,750,l),
(621,508,l),
(618,485,l),
(553,750,l),
(415,750,l),
(415,337,l),
(501,337,l),
(501,597,l),
(499,621,l),
(576,329,l),
(640,337,l),
(715,621,l),
(714,598,l),
(714,337,l)
);
},
{
closed = 1;
nodes = (
(258,339,l),
(258,664,l),
(357,664,l),
(357,750,l),
(64,750,l),
(54,664,l),
(156,664,l),
(156,339,l)
);
}
);
width = 917;
}
);
unicode = 8482;
},
{
glyphname = degree;
lastChange = "2023-02-14 13:47:42 +0000";
layers = (
{
background = {
shapes = (
{
closed = 1;
nodes = (
(289,461,o),
(348,526,o),
(348,612,cs),
(348,698,o),
(289,764,o),
(192,764,cs),
(93,764,o),
(35,698,o),
(35,612,cs),
(35,526,o),
(93,461,o),
(192,461,cs)
);
},
{
closed = 1;
nodes = (
(153,545,o),
(131,574,o),
(131,612,cs),
(131,650,o),
(154,680,o),
(192,680,cs),
(230,680,o),
(251,648,o),
(251,612,cs),
(251,574,o),
(230,545,o),
(192,545,cs)
);
}
);
};
layerId = "849A9C4C-BF7C-40C5-8614-1FD725A2A379";
shapes = (
{
closed = 1;
nodes = (
(289,461,o),
(348,526,o),
(348,612,cs),
(348,698,o),
(289,764,o),
(192,764,cs),
(93,764,o),
(35,698,o),
(35,612,cs),
(35,526,o),
(93,461,o),
(192,461,cs)
);
},
{
closed = 1;
nodes = (
(153,545,o),
(131,574,o),
(131,612,cs),
(131,650,o),
(154,680,o),
(192,680,cs),
(230,680,o),
(251,648,o),
(251,612,cs),
(251,574,o),
(230,545,o),
(192,545,cs)
);
}
);
width = 383;
}
);
unicode = 176;
},
{
color = 4;
glyphname = minute;
kernLeft = quotest;
kernRight = quotest;
lastChange = "2023-02-13 11:23:37 +0000";
layers = (
{
background = {
shapes = (
{
closed = 1;
nodes = (
(167,440,l),
(191,751,l),
(50,751,l),
(73,434,l)
);
}
);
};
layerId = "849A9C4C-BF7C-40C5-8614-1FD725A2A379";
shapes = (
{
closed = 1;
nodes = (
(167,440,l),
(191,751,l),
(50,751,l),
(73,434,l)
);
}
);
width = 241;
}
);
unicode = 8242;
},
{
color = 4;
glyphname = second;
kernLeft = quotest;
kernRight = quotest;
lastChange = "2023-02-13 11:23:37 +0000";
layers = (
{
background = {
shapes = (
{
closed = 1;
nodes = (
(355,438,l),
(378,751,l),
(238,751,l),
(261,432,l)
);
},
{
closed = 1;
nodes = (
(167,438,l),
(191,751,l),
(50,751,l),
(73,432,l)
);
}
);
};
layerId = "849A9C4C-BF7C-40C5-8614-1FD725A2A379";
shapes = (
{
closed = 1;
nodes = (
(355,438,l),
(378,751,l),
(238,751,l),
(261,432,l)
);
},
{
closed = 1;
nodes = (
(167,438,l),
(191,751,l),
(50,751,l),
(73,432,l)
);
}
);
width = 428;
}
);
unicode = 8243;
},
{
glyphname = bar;
lastChange = "2023-02-02 16:23:56 +0000";
layers = (
{
background = {
shapes = (
{
closed = 1;
nodes = (
(200,-47,l),
(200,797,l),
(84,797,l),
(84,-47,l)
);
}
);
};
layerId = "849A9C4C-BF7C-40C5-8614-1FD725A2A379";
shapes = (
{
closed = 1;
nodes = (
(200,-47,l),
(200,797,l),
(84,797,l),
(84,-47,l)
);
}
);
width = 284;
}
);
unicode = 124;
},
